<svg id="SvgjsSvg1006" width="1395.375" height="750" xmlns="http://www.w3.org/2000/svg" version="1.1" xmlns:xlink="http://www.w3.org/1999/xlink" xmlns:svgjs="http://svgjs.com/svgjs"><defs id="SvgjsDefs1007"><pattern id="SvgjsPattern1023" x="0" y="0" width="41" height="43" patternUnits="userSpaceOnUse"><image id="SvgjsImage1024" xlink:href="https://cdn.processon.com/5f9fdadaf346fb11c3d01f5f?e=1604315370&amp;token=trhI0BY8QfVrIGn9nENop6JAc6l5nZuxhjQ62UfM:oGIUkgfusy09pJhTqv4tmXCn6fM=" width="41" height="43" preserveAspectRatio="none" crossOrigin="anonymous" x="0" y="0"></image></pattern><pattern id="SvgjsPattern1027" x="0" y="0" width="60" height="59.5" patternUnits="userSpaceOnUse"><image id="SvgjsImage1028" xlink:href="https://cdn.processon.com/5fed6bdf6376896cfafbe892?e=1609398767&amp;amp;token=trhI0BY8QfVrIGn9nENop6JAc6l5nZuxhjQ62UfM:qJkaw8I751v4NpivNa-wN28wlZM=" width="60" height="59.5" preserveAspectRatio="none" crossOrigin="anonymous" x="0" y="0"></image></pattern></defs><rect id="SvgjsRect1008" width="1395.375" height="750" fill="#a9b7c0"></rect><g id="SvgjsG1009" transform="translate(74.85890871854883,25)"><path id="SvgjsPath1010" d="M 0 0L 551.0321825629023 0L 551.0321825629023 43L 0 43Z" stroke="none" fill="none"></path><g id="SvgjsG1011"><text id="SvgjsText1012" font-family="微软雅黑" text-anchor="start" font-size="30px" width="552px" fill="#1a1a1a" font-weight="700" align="middle" anchor="start" family="微软雅黑" size="30px" weight="700" font-style="" opacity="1" y="-4" transform="rotate(0)"><tspan id="SvgjsTspan1013" dy="37" x="0"><tspan id="SvgjsTspan1014" style="text-decoration:;">  开发报建部抢报建阶段标准工期</tspan></tspan></text></g></g><g id="SvgjsG1015" transform="translate(380.875,83.89368421052632)"><path id="SvgjsPath1016" d="M 0 0L 685 0L 685 43L 0 43Z" stroke="none" fill-opacity="1" fill="#009999"></path><g id="SvgjsG1017"><text id="SvgjsText1018" font-family="微软雅黑" text-anchor="middle" font-size="20px" width="665px" fill="#ffffff" font-weight="700" align="middle" anchor="middle" family="微软雅黑" size="20px" weight="700" font-style="" opacity="1" y="6" transform="rotate(0)"><tspan id="SvgjsTspan1019" dy="25" x="342.5"><tspan id="SvgjsTspan1020" style="text-decoration:;font-size: inherit;">预售证阶段</tspan></tspan></text></g></g><g id="SvgjsG1021" transform="translate(34.375,25)"><path id="SvgjsPath1022" d="M 0 0L 41 0L 41 43L 0 43Z" stroke="none" fill="url(#SvgjsPattern1023)"></path></g><g id="SvgjsG1025" transform="translate(1253.375,61.82184210526316)"><path id="SvgjsPath1026" d="M 0 0L 60 0L 60 59.5L 0 59.5Z" stroke="none" fill="url(#SvgjsPattern1027)"></path></g><g id="SvgjsG1029" transform="translate(1222.375,109.96552631578948)"><path id="SvgjsPath1030" d="M 0 0L 122 0L 122 43L 0 43Z" stroke="none" fill="none"></path><g id="SvgjsG1031"><text id="SvgjsText1032" font-family="微软雅黑" text-anchor="middle" font-size="13px" width="122px" fill="#323232" font-weight="400" align="middle" anchor="middle" family="微软雅黑" size="13px" weight="400" font-style="" opacity="1" y="11.55" transform="rotate(0)"><tspan id="SvgjsTspan1033" dy="16" x="61"><tspan id="SvgjsTspan1034" style="text-decoration:;">打印</tspan></tspan></text></g></g><g id="SvgjsG1035" transform="translate(76.01965696313664,144)"><path id="SvgjsPath1036" d="M 7 0L 236 0C 245.33333333333334 0 245.33333333333334 21 236 21L 7 21C -2.3333333333333335 21 -2.3333333333333335 0 7 0Z" stroke="none" fill-opacity="1" fill="#ccffff"></path><g id="SvgjsG1037"><text id="SvgjsText1038" font-family="微软雅黑" text-anchor="middle" font-size="16px" width="223px" fill="#323232" font-weight="400" align="middle" anchor="middle" family="微软雅黑" size="16px" weight="400" font-style="" opacity="1" y="-1.9" transform="rotate(0)"><tspan id="SvgjsTspan1039" dy="20" x="121.5"><tspan id="SvgjsTspan1040" style="text-decoration:;">1</tspan></tspan></text></g></g><g id="SvgjsG1041" transform="translate(76.59215001462849,617)"><path id="SvgjsPath1042" d="M 14.333333333333334 0L 1243.2323666374098 0C 1262.3434777485209 0 1262.3434777485209 43 1243.2323666374098 43L 14.333333333333334 43C -4.777777777777778 43 -4.777777777777778 0 14.333333333333334 0Z" stroke="none" fill-opacity="1" fill="#009999"></path><g id="SvgjsG1043"><text id="SvgjsText1044" font-family="微软雅黑" text-anchor="middle" font-size="13px" width="1238px" fill="#323232" font-weight="400" align="middle" anchor="middle" family="微软雅黑" size="13px" weight="400" font-style="" opacity="1" y="11.55" transform="rotate(0)"></text></g></g><g id="SvgjsG1045" transform="translate(25.012863882388046,663)"><path id="SvgjsPath1046" d="M 0 0L 111.0067930807486 0L 111.0067930807486 43L 0 43Z" stroke="none" fill="none"></path><g id="SvgjsG1047"><text id="SvgjsText1048" font-family="微软雅黑" text-anchor="middle" font-size="16px" width="112px" fill="#000000" font-weight="700" align="middle" anchor="middle" family="微软雅黑" size="16px" weight="700" font-style="" opacity="1" y="-0.8999999999999999" transform="rotate(0)"><tspan id="SvgjsTspan1049" dy="20" x="56"><tspan id="SvgjsTspan1050" style="text-decoration:;">获取多规合一会</tspan></tspan><tspan id="SvgjsTspan1051" dy="20" x="56"><tspan id="SvgjsTspan1052" style="text-decoration:;">商意见</tspan></tspan></text></g></g><g id="SvgjsG1053" transform="translate(99.8682069192514,617)"><path id="SvgjsPath1054" d="M 0 0L 122 0L 122 43L 0 43Z" stroke="none" fill="none"></path><g id="SvgjsG1055"><text id="SvgjsText1056" font-family="微软雅黑" text-anchor="middle" font-size="13px" width="122px" fill="#323232" font-weight="400" align="middle" anchor="middle" family="微软雅黑" size="13px" weight="400" font-style="" opacity="1" y="11.55" transform="rotate(0)"></text></g></g><g id="SvgjsG1057" transform="translate(411.5853569338798,622.5)"><path id="SvgjsPath1058" d="M 0 0L 60 0L 60 32L 0 32Z" stroke="none" fill="none"></path><g id="SvgjsG1059"><text id="SvgjsText1060" font-family="微软雅黑" text-anchor="middle" font-size="13px" width="60px" fill="#000000" font-weight="400" align="middle" anchor="middle" family="微软雅黑" size="13px" weight="400" font-style="" opacity="1" y="6.05" transform="rotate(0)"><tspan id="SvgjsTspan1061" dy="16" x="30"><tspan id="SvgjsTspan1062" style="text-decoration:;">105天</tspan></tspan></text></g></g><g id="SvgjsG1063" transform="translate(830.875,617)"><path id="SvgjsPath1064" d="M 0 0L 41 0L 41 43L 0 43Z" stroke="none" fill="none"></path><g id="SvgjsG1065"><text id="SvgjsText1066" font-family="微软雅黑" text-anchor="middle" font-size="13px" width="41px" fill="#000000" font-weight="400" align="middle" anchor="middle" family="微软雅黑" size="13px" weight="400" font-style="" opacity="1" y="11.55" transform="rotate(0)"><tspan id="SvgjsTspan1067" dy="16" x="20.5"><tspan id="SvgjsTspan1068" style="text-decoration:;">125天</tspan></tspan></text></g></g><g id="SvgjsG1069" transform="translate(952.4144784961968,617)"><path id="SvgjsPath1070" d="M 0 0L 41 0L 41 43L 0 43Z" stroke="none" fill="none"></path><g id="SvgjsG1071"><text id="SvgjsText1072" font-family="微软雅黑" text-anchor="middle" font-size="13px" width="41px" fill="#000000" font-weight="400" align="middle" anchor="middle" family="微软雅黑" size="13px" weight="400" font-style="" opacity="1" y="11.55" transform="rotate(0)"><tspan id="SvgjsTspan1073" dy="16" x="20.5"><tspan id="SvgjsTspan1074" style="text-decoration:;">130天</tspan></tspan></text></g></g><g id="SvgjsG1075" transform="translate(1079.8682069192514,617)"><path id="SvgjsPath1076" d="M 0 0L 41 0L 41 43L 0 43Z" stroke="none" fill="none"></path><g id="SvgjsG1077"><text id="SvgjsText1078" font-family="微软雅黑" text-anchor="middle" font-size="13px" width="41px" fill="#000000" font-weight="400" align="middle" anchor="middle" family="微软雅黑" size="13px" weight="400" font-style="" opacity="1" y="11.55" transform="rotate(0)"><tspan id="SvgjsTspan1079" dy="16" x="20.5"><tspan id="SvgjsTspan1080" style="text-decoration:;">137天</tspan></tspan></text></g></g><g id="SvgjsG1081" transform="translate(1192.875,617)"><path id="SvgjsPath1082" d="M 0 0L 41 0L 41 43L 0 43Z" stroke="none" fill="none"></path><g id="SvgjsG1083"><text id="SvgjsText1084" font-family="微软雅黑" text-anchor="middle" font-size="13px" width="41px" fill="#000000" font-weight="400" align="middle" anchor="middle" family="微软雅黑" size="13px" weight="400" font-style="" opacity="1" y="11.55" transform="rotate(0)"><tspan id="SvgjsTspan1085" dy="16" x="20.5"><tspan id="SvgjsTspan1086" style="text-decoration:;">149天</tspan></tspan></text></g></g><g id="SvgjsG1087" transform="translate(1288.8682069192514,617)"><path id="SvgjsPath1088" d="M 0 0L 41 0L 41 43L 0 43Z" stroke="none" fill="none"></path><g id="SvgjsG1089"><text id="SvgjsText1090" font-family="微软雅黑" text-anchor="middle" font-size="13px" width="41px" fill="#000000" font-weight="700" align="middle" anchor="middle" family="微软雅黑" size="13px" weight="700" font-style="" opacity="1" y="11.55" transform="rotate(0)"><tspan id="SvgjsTspan1091" dy="16" x="20.5"><tspan id="SvgjsTspan1092" style="text-decoration:;">150天</tspan></tspan></text></g></g><g id="SvgjsG1093" transform="translate(334.875,133)"><path id="SvgjsPath1094" d="M 0 0L 273 0L 273 43L 0 43Z" stroke="none" fill="none"></path><g id="SvgjsG1095"><text id="SvgjsText1096" font-family="微软雅黑" text-anchor="start" font-size="16px" width="273px" fill="#323232" font-weight="400" align="middle" anchor="start" family="微软雅黑" size="16px" weight="400" font-style="" opacity="1" y="9.1" transform="rotate(0)"><tspan id="SvgjsTspan1097" dy="20" x="0"><tspan id="SvgjsTspan1098" style="text-decoration:;">配套协议</tspan></tspan></text></g></g><g id="SvgjsG1099" transform="translate(738.447163911645,319)"><path id="SvgjsPath1100" d="M 0 0L 322 0L 322 43L 0 43Z" stroke="none" fill="none"></path><g id="SvgjsG1101"><text id="SvgjsText1102" font-family="微软雅黑" text-anchor="start" font-size="16px" width="322px" fill="#323232" font-weight="400" align="middle" anchor="start" family="微软雅黑" size="16px" weight="400" font-style="" opacity="1" y="9.1" transform="rotate(0)"><tspan id="SvgjsTspan1103" dy="20" x="0"><tspan id="SvgjsTspan1104" style="text-decoration:;">物业评估摘要</tspan></tspan></text></g></g><g id="SvgjsG1105" transform="translate(570.375,281.5)"><path id="SvgjsPath1106" d="M 0 0L 322 0L 322 43L 0 43Z" stroke="none" fill="none"></path><g id="SvgjsG1107"><text id="SvgjsText1108" font-family="微软雅黑" text-anchor="start" font-size="16px" width="322px" fill="#323232" font-weight="400" align="middle" anchor="start" family="微软雅黑" size="16px" weight="400" font-style="" opacity="1" y="9.1" transform="rotate(0)"><tspan id="SvgjsTspan1109" dy="20" x="0"><tspan id="SvgjsTspan1110" style="text-decoration:;">建设方案</tspan></tspan></text></g></g><g id="SvgjsG1111"><path id="SvgjsPath1112" d="M75.3682069192514 148.5L75.3682069192514 394L75.3682069192514 394L75.3682069192514 639.5" stroke="#cfcfcf" stroke-width="1" fill="none"></path></g><g id="SvgjsG1113"><path id="SvgjsPath1114" d="M546.9557752894655 294.4226182617407L551.414478496197 294.4226182617407L551.414478496197 616.5" stroke="#cfcfcf" stroke-width="1" fill="none"></path></g><g id="SvgjsG1115" transform="translate(1077.875,189.5)"><path id="SvgjsPath1116" d="M 7 0L 188 0C 197.33333333333334 0 197.33333333333334 21 188 21L 7 21C -2.3333333333333335 21 -2.3333333333333335 0 7 0Z" stroke="none" fill-opacity="1" fill="#ffcccc"></path><g id="SvgjsG1117"><text id="SvgjsText1118" font-family="微软雅黑" text-anchor="middle" font-size="16px" width="175px" fill="#323232" font-weight="400" align="middle" anchor="middle" family="微软雅黑" size="16px" weight="400" font-style="" opacity="1" y="-1.9" transform="rotate(0)"><tspan id="SvgjsTspan1119" dy="20" x="97.5"><tspan id="SvgjsTspan1120" style="text-decoration:;">销售部、物业</tspan></tspan></text></g></g><g id="SvgjsG1121" transform="translate(1079.8682069192514,227)"><path id="SvgjsPath1122" d="M 7 0L 188 0C 197.33333333333334 0 197.33333333333334 21 188 21L 7 21C -2.3333333333333335 21 -2.3333333333333335 0 7 0Z" stroke="none" fill-opacity="1" fill="#ffe6cc"></path><g id="SvgjsG1123"><text id="SvgjsText1124" font-family="微软雅黑" text-anchor="middle" font-size="16px" width="175px" fill="#323232" font-weight="400" align="middle" anchor="middle" family="微软雅黑" size="16px" weight="400" font-style="" opacity="1" y="-1.9" transform="rotate(0)"><tspan id="SvgjsTspan1125" dy="20" x="97.5"><tspan id="SvgjsTspan1126" style="text-decoration:;">技术部</tspan></tspan></text></g></g><g id="SvgjsG1127" transform="translate(1079.8682069192514,265.5)"><path id="SvgjsPath1128" d="M 7 0L 188 0C 197.33333333333334 0 197.33333333333334 21 188 21L 7 21C -2.3333333333333335 21 -2.3333333333333335 0 7 0Z" stroke="none" fill-opacity="1" fill="#ccffff"></path><g id="SvgjsG1129"><text id="SvgjsText1130" font-family="微软雅黑" text-anchor="middle" font-size="16px" width="175px" fill="#323232" font-weight="400" align="middle" anchor="middle" family="微软雅黑" size="16px" weight="400" font-style="" opacity="1" y="-1.9" transform="rotate(0)"><tspan id="SvgjsTspan1131" dy="20" x="97.5"><tspan id="SvgjsTspan1132" style="text-decoration:;">开发部</tspan></tspan></text></g></g><g id="SvgjsG1133" transform="translate(370.625,680)"><path id="SvgjsPath1134" d="M 0 0L 705.5 0L 705.5 45L 0 45Z" stroke="none" fill-opacity="1" fill="#009999"></path><g id="SvgjsG1135"><text id="SvgjsText1136" font-family="微软雅黑" text-anchor="middle" font-size="20px" width="686px" fill="#ffffff" font-weight="700" align="middle" anchor="middle" family="微软雅黑" size="20px" weight="700" font-style="" opacity="1" y="7" transform="rotate(0)"><tspan id="SvgjsTspan1137" dy="25" x="353"><tspan id="SvgjsTspan1138" style="text-decoration:;">返回整体流程页面</tspan></tspan></text></g></g><g id="SvgjsG1139" transform="translate(76.01965696313664,617)"><path id="SvgjsPath1140" d="M 0 0L 60 0L 60 43L 0 43Z" stroke="none" fill="none"></path><g id="SvgjsG1141"><text id="SvgjsText1142" font-family="微软雅黑" text-anchor="middle" font-size="13px" width="60px" fill="#000000" font-weight="400" align="middle" anchor="middle" family="微软雅黑" size="13px" weight="400" font-style="" opacity="1" y="11.55" transform="rotate(0)"><tspan id="SvgjsTspan1143" dy="16" x="30"><tspan id="SvgjsTspan1144" style="text-decoration:;">85天</tspan></tspan></text></g></g><g id="SvgjsG1145" transform="translate(296.375,622.5)"><path id="SvgjsPath1146" d="M 0 0L 60 0L 60 32L 0 32Z" stroke="none" fill="none"></path><g id="SvgjsG1147"><text id="SvgjsText1148" font-family="微软雅黑" text-anchor="middle" font-size="13px" width="60px" fill="#000000" font-weight="400" align="middle" anchor="middle" family="微软雅黑" size="13px" weight="400" font-style="" opacity="1" y="6.05" transform="rotate(0)"><tspan id="SvgjsTspan1149" dy="16" x="30"><tspan id="SvgjsTspan1150" style="text-decoration:;">99天</tspan></tspan></text></g></g><g id="SvgjsG1151" transform="translate(192.375,622.5)"><path id="SvgjsPath1152" d="M 0 0L 60 0L 60 32L 0 32Z" stroke="none" fill="none"></path><g id="SvgjsG1153"><text id="SvgjsText1154" font-family="微软雅黑" text-anchor="middle" font-size="13px" width="60px" fill="#000000" font-weight="400" align="middle" anchor="middle" family="微软雅黑" size="13px" weight="400" font-style="" opacity="1" y="6.05" transform="rotate(0)"><tspan id="SvgjsTspan1155" dy="16" x="30"><tspan id="SvgjsTspan1156" style="text-decoration:;">95天</tspan></tspan></text></g></g><g id="SvgjsG1157" transform="translate(185.375,663)"><path id="SvgjsPath1158" d="M 0 0L 74 0L 74 43L 0 43Z" stroke="none" fill="none"></path><g id="SvgjsG1159"><text id="SvgjsText1160" font-family="微软雅黑" text-anchor="middle" font-size="16px" width="74px" fill="#000000" font-weight="700" align="middle" anchor="middle" family="微软雅黑" size="16px" weight="700" font-style="" opacity="1" y="-0.8999999999999999" transform="rotate(0)"><tspan id="SvgjsTspan1161" dy="20" x="37"><tspan id="SvgjsTspan1162" style="text-decoration:;">获取规划</tspan></tspan><tspan id="SvgjsTspan1163" dy="20" x="37"><tspan id="SvgjsTspan1164" style="text-decoration:;">许可证</tspan></tspan></text></g></g><g id="SvgjsG1165" transform="translate(521.4076854154483,622.5)"><path id="SvgjsPath1166" d="M 0 0L 60 0L 60 32L 0 32Z" stroke="none" fill="none"></path><g id="SvgjsG1167"><text id="SvgjsText1168" font-family="微软雅黑" text-anchor="middle" font-size="13px" width="60px" fill="#000000" font-weight="400" align="middle" anchor="middle" family="微软雅黑" size="13px" weight="400" font-style="" opacity="1" y="6.05" transform="rotate(0)"><tspan id="SvgjsTspan1169" dy="16" x="30"><tspan id="SvgjsTspan1170" style="text-decoration:;">109天</tspan></tspan></text></g></g><g id="SvgjsG1171" transform="translate(693.375,622.5)"><path id="SvgjsPath1172" d="M 0 0L 60 0L 60 32L 0 32Z" stroke="none" fill="none"></path><g id="SvgjsG1173"><text id="SvgjsText1174" font-family="微软雅黑" text-anchor="middle" font-size="13px" width="60px" fill="#000000" font-weight="400" align="middle" anchor="middle" family="微软雅黑" size="13px" weight="400" font-style="" opacity="1" y="6.05" transform="rotate(0)"><tspan id="SvgjsTspan1175" dy="16" x="30"><tspan id="SvgjsTspan1176" style="text-decoration:;">119天</tspan></tspan></text></g></g><g id="SvgjsG1177"><path id="SvgjsPath1178" d="M319.01965696313664 154.5L322.3682069192514 154.5L322.3682069192514 613.5" stroke="#cfcfcf" stroke-width="1" fill="none"></path></g><g id="SvgjsG1179"><path id="SvgjsPath1180" d="M221.8682069192514 230L221.375 230L221.375 617.5" stroke="#cfcfcf" stroke-width="1" fill="none"></path></g><g id="SvgjsG1181"><path id="SvgjsPath1182" d="M429.3108222275241 220.07115043874614L435.375 220.07115043874614L435.375 617.5" stroke="#cfcfcf" stroke-width="1" fill="none"></path></g><g id="SvgjsG1183" transform="translate(454.375,208.5)"><path id="SvgjsPath1184" d="M 0 0L 322 0L 322 43L 0 43Z" stroke="none" fill="none"></path><g id="SvgjsG1185"><text id="SvgjsText1186" font-family="微软雅黑" text-anchor="start" font-size="16px" width="322px" fill="#323232" font-weight="400" align="middle" anchor="start" family="微软雅黑" size="16px" weight="400" font-style="" opacity="1" y="9.1" transform="rotate(0)"><tspan id="SvgjsTspan1187" dy="20" x="0"><tspan id="SvgjsTspan1188" style="text-decoration:;">建筑物名称核准</tspan></tspan></text></g></g><g id="SvgjsG1189" transform="translate(221.8682069192514,219.5)"><path id="SvgjsPath1190" d="M 7 0L 205 0C 214.33333333333334 0 214.33333333333334 21 205 21L 7 21C -2.3333333333333335 21 -2.3333333333333335 0 7 0Z" stroke="none" fill-opacity="1" fill="#ccffff"></path><g id="SvgjsG1191"><text id="SvgjsText1192" font-family="微软雅黑" text-anchor="middle" font-size="16px" width="192px" fill="#323232" font-weight="400" align="middle" anchor="middle" family="微软雅黑" size="16px" weight="400" font-style="" opacity="1" y="-1.9" transform="rotate(0)"><tspan id="SvgjsTspan1193" dy="20" x="106"><tspan id="SvgjsTspan1194" style="text-decoration:;">3</tspan></tspan></text></g></g><g id="SvgjsG1195"><path id="SvgjsPath1196" d="M717.375 340.5L718.375 340.5L718.375 617.5" stroke="#cfcfcf" stroke-width="1" fill="none"></path></g><g id="SvgjsG1197" transform="translate(323.875,292.5)"><path id="SvgjsPath1198" d="M 7 0L 219 0C 228.33333333333334 0 228.33333333333334 21 219 21L 7 21C -2.3333333333333335 21 -2.3333333333333335 0 7 0Z" stroke="none" fill-opacity="1" fill="#ccffff"></path><g id="SvgjsG1199"><text id="SvgjsText1200" font-family="微软雅黑" text-anchor="middle" font-size="16px" width="206px" fill="#323232" font-weight="400" align="middle" anchor="middle" family="微软雅黑" size="16px" weight="400" font-style="" opacity="1" y="-1.9" transform="rotate(0)"><tspan id="SvgjsTspan1201" dy="20" x="113"><tspan id="SvgjsTspan1202" style="text-decoration:;">5</tspan></tspan></text></g></g><g id="SvgjsG1203" transform="translate(221.8682069192514,254.5)"><path id="SvgjsPath1204" d="M 7 0L 618.5067930807486 0C 627.840126414082 0 627.840126414082 21 618.5067930807486 21L 7 21C -2.3333333333333335 21 -2.3333333333333335 0 7 0Z" stroke="none" fill-opacity="1" fill="#ffe6cc"></path><g id="SvgjsG1205"><text id="SvgjsText1206" font-family="微软雅黑" text-anchor="middle" font-size="16px" width="606px" fill="#323232" font-weight="400" align="middle" anchor="middle" family="微软雅黑" size="16px" weight="400" font-style="" opacity="1" y="-1.9" transform="rotate(0)"><tspan id="SvgjsTspan1207" dy="20" x="313"><tspan id="SvgjsTspan1208" style="text-decoration:;">4</tspan></tspan></text></g></g><g id="SvgjsG1209" transform="translate(867.375,243.5)"><path id="SvgjsPath1210" d="M 0 0L 163 0L 163 43L 0 43Z" stroke="none" fill="none"></path><g id="SvgjsG1211"><text id="SvgjsText1212" font-family="微软雅黑" text-anchor="start" font-size="16px" width="163px" fill="#323232" font-weight="400" align="middle" anchor="start" family="微软雅黑" size="16px" weight="400" font-style="" opacity="1" y="9.1" transform="rotate(0)"><tspan id="SvgjsTspan1213" dy="20" x="0"><tspan id="SvgjsTspan1214" style="text-decoration:;">施工外审意见</tspan></tspan></text></g></g><g id="SvgjsG1215" transform="translate(437.8682069192514,330.5)"><path id="SvgjsPath1216" d="M 6.666666666666667 0L 272.8401264140819 0C 281.7290153029708 0 281.7290153029708 20 272.8401264140819 20L 6.666666666666667 20C -2.2222222222222223 20 -2.2222222222222223 0 6.666666666666667 0Z" stroke="none" fill-opacity="1" fill="#ffcccc"></path><g id="SvgjsG1217"><text id="SvgjsText1218" font-family="微软雅黑" text-anchor="middle" font-size="16px" width="260px" fill="#323232" font-weight="400" align="middle" anchor="middle" family="微软雅黑" size="16px" weight="400" font-style="" opacity="1" y="-2.4" transform="rotate(0)"><tspan id="SvgjsTspan1219" dy="20" x="140"><tspan id="SvgjsTspan1220" style="text-decoration:;">6</tspan></tspan></text></g></g><g id="SvgjsG1221" transform="translate(76.01965696313664,181)"><path id="SvgjsPath1222" d="M 7 0L 236 0C 245.33333333333334 0 245.33333333333334 21 236 21L 7 21C -2.3333333333333335 21 -2.3333333333333335 0 7 0Z" stroke="none" fill-opacity="1" fill="#ccffff"></path><g id="SvgjsG1223"><text id="SvgjsText1224" font-family="微软雅黑" text-anchor="middle" font-size="16px" width="223px" fill="#323232" font-weight="400" align="middle" anchor="middle" family="微软雅黑" size="16px" weight="400" font-style="" opacity="1" y="-1.9" transform="rotate(0)"><tspan id="SvgjsTspan1225" dy="20" x="121.5"><tspan id="SvgjsTspan1226" style="text-decoration:;">2</tspan></tspan></text></g></g><g id="SvgjsG1227" transform="translate(334.875,170)"><path id="SvgjsPath1228" d="M 0 0L 322 0L 322 43L 0 43Z" stroke="none" fill="none"></path><g id="SvgjsG1229"><text id="SvgjsText1230" font-family="微软雅黑" text-anchor="start" font-size="16px" width="322px" fill="#323232" font-weight="400" align="middle" anchor="start" family="微软雅黑" size="16px" weight="400" font-style="" opacity="1" y="9.1" transform="rotate(0)"><tspan id="SvgjsTspan1231" dy="20" x="0"><tspan id="SvgjsTspan1232" style="text-decoration:;">缴纳基础设施配套费</tspan></tspan></text></g></g><g id="SvgjsG1233"><path id="SvgjsPath1234" d="M844.65607663889 256.7678547852221L849.375 256.7678547852221L849.375 617.5" stroke="#cfcfcf" stroke-width="1" fill="none"></path></g><g id="SvgjsG1235"><path id="SvgjsPath1236" d="M970.7769237886466 363L976.375 363L976.375 616.5" stroke="#cfcfcf" stroke-width="1" fill="none"></path></g><g id="SvgjsG1237" transform="translate(850.375,362)"><path id="SvgjsPath1238" d="M 6.666666666666667 0L 118.33333333333333 0C 127.22222222222223 0 127.22222222222223 20 118.33333333333333 20L 6.666666666666667 20C -2.2222222222222223 20 -2.2222222222222223 0 6.666666666666667 0Z" stroke="none" fill-opacity="1" fill="#ccffff"></path><g id="SvgjsG1239"><text id="SvgjsText1240" font-family="微软雅黑" text-anchor="middle" font-size="16px" width="105px" fill="#323232" font-weight="400" align="middle" anchor="middle" family="微软雅黑" size="16px" weight="400" font-style="" opacity="1" y="-2.4" transform="rotate(0)"><tspan id="SvgjsTspan1241" dy="20" x="62.5"><tspan id="SvgjsTspan1242" style="text-decoration:;">7</tspan></tspan></text></g></g><g id="SvgjsG1243" transform="translate(986.375,359.5)"><path id="SvgjsPath1244" d="M 0 0L 151 0L 151 34L 0 34Z" stroke="none" fill="none"></path><g id="SvgjsG1245"><text id="SvgjsText1246" font-family="微软雅黑" text-anchor="start" font-size="16px" width="151px" fill="#323232" font-weight="400" align="middle" anchor="start" family="微软雅黑" size="16px" weight="400" font-style="" opacity="1" y="4.6" transform="rotate(0)"><tspan id="SvgjsTspan1247" dy="20" x="0"><tspan id="SvgjsTspan1248" style="text-decoration:;">配套情况确认单</tspan></tspan></text></g></g><g id="SvgjsG1249" transform="translate(850.375,398)"><path id="SvgjsPath1250" d="M 6.666666666666667 0L 118.33333333333333 0C 127.22222222222223 0 127.22222222222223 20 118.33333333333333 20L 6.666666666666667 20C -2.2222222222222223 20 -2.2222222222222223 0 6.666666666666667 0Z" stroke="none" fill-opacity="1" fill="#ccffff"></path><g id="SvgjsG1251"><text id="SvgjsText1252" font-family="微软雅黑" text-anchor="middle" font-size="16px" width="105px" fill="#323232" font-weight="400" align="middle" anchor="middle" family="微软雅黑" size="16px" weight="400" font-style="" opacity="1" y="-2.4" transform="rotate(0)"><tspan id="SvgjsTspan1253" dy="20" x="62.5"><tspan id="SvgjsTspan1254" style="text-decoration:;">8</tspan></tspan></text></g></g><g id="SvgjsG1255" transform="translate(986.375,386.5)"><path id="SvgjsPath1256" d="M 0 0L 322 0L 322 43L 0 43Z" stroke="none" fill="none"></path><g id="SvgjsG1257"><text id="SvgjsText1258" font-family="微软雅黑" text-anchor="start" font-size="16px" width="322px" fill="#323232" font-weight="400" align="middle" anchor="start" family="微软雅黑" size="16px" weight="400" font-style="" opacity="1" y="9.1" transform="rotate(0)"><tspan id="SvgjsTspan1259" dy="20" x="0"><tspan id="SvgjsTspan1260" style="text-decoration:;">预测数据备案</tspan></tspan></text></g></g><g id="SvgjsG1261" transform="translate(850.375,432)"><path id="SvgjsPath1262" d="M 6.666666666666667 0L 118.33333333333333 0C 127.22222222222223 0 127.22222222222223 20 118.33333333333333 20L 6.666666666666667 20C -2.2222222222222223 20 -2.2222222222222223 0 6.666666666666667 0Z" stroke="none" fill-opacity="1" fill="#ccffff"></path><g id="SvgjsG1263"><text id="SvgjsText1264" font-family="微软雅黑" text-anchor="middle" font-size="16px" width="105px" fill="#323232" font-weight="400" align="middle" anchor="middle" family="微软雅黑" size="16px" weight="400" font-style="" opacity="1" y="-2.4" transform="rotate(0)"><tspan id="SvgjsTspan1265" dy="20" x="62.5"><tspan id="SvgjsTspan1266" style="text-decoration:;">9</tspan></tspan></text></g></g><g id="SvgjsG1267" transform="translate(850.375,467)"><path id="SvgjsPath1268" d="M 6.666666666666667 0L 118.33333333333333 0C 127.22222222222223 0 127.22222222222223 20 118.33333333333333 20L 6.666666666666667 20C -2.2222222222222223 20 -2.2222222222222223 0 6.666666666666667 0Z" stroke="none" fill-opacity="1" fill="#ccffff"></path><g id="SvgjsG1269"><text id="SvgjsText1270" font-family="微软雅黑" text-anchor="middle" font-size="16px" width="105px" fill="#323232" font-weight="400" align="middle" anchor="middle" family="微软雅黑" size="16px" weight="400" font-style="" opacity="1" y="-2.4" transform="rotate(0)"><tspan id="SvgjsTspan1271" dy="20" x="62.5"><tspan id="SvgjsTspan1272" style="text-decoration:;">10</tspan></tspan></text></g></g><g id="SvgjsG1273" transform="translate(986.375,455.5)"><path id="SvgjsPath1274" d="M 0 0L 322 0L 322 43L 0 43Z" stroke="none" fill="none"></path><g id="SvgjsG1275"><text id="SvgjsText1276" font-family="微软雅黑" text-anchor="start" font-size="16px" width="322px" fill="#323232" font-weight="400" align="middle" anchor="start" family="微软雅黑" size="16px" weight="400" font-style="" opacity="1" y="9.1" transform="rotate(0)"><tspan id="SvgjsTspan1277" dy="20" x="0"><tspan id="SvgjsTspan1278" style="text-decoration:;">区、市建委项目手册备案</tspan></tspan></text></g></g><g id="SvgjsG1279"><path id="SvgjsPath1280" d="M1100.375 512L1101.375 512L1101.375 617.5" stroke="#cfcfcf" stroke-width="1" fill="none"></path></g><g id="SvgjsG1281" transform="translate(975.375,502)"><path id="SvgjsPath1282" d="M 6.666666666666667 0L 118.33333333333333 0C 127.22222222222223 0 127.22222222222223 20 118.33333333333333 20L 6.666666666666667 20C -2.2222222222222223 20 -2.2222222222222223 0 6.666666666666667 0Z" stroke="none" fill-opacity="1" fill="#ccffff"></path><g id="SvgjsG1283"><text id="SvgjsText1284" font-family="微软雅黑" text-anchor="middle" font-size="16px" width="105px" fill="#323232" font-weight="400" align="middle" anchor="middle" family="微软雅黑" size="16px" weight="400" font-style="" opacity="1" y="-2.4" transform="rotate(0)"><tspan id="SvgjsTspan1285" dy="20" x="62.5"><tspan id="SvgjsTspan1286" style="text-decoration:;">11</tspan></tspan></text></g></g><g id="SvgjsG1287" transform="translate(1125.375,490.5)"><path id="SvgjsPath1288" d="M 0 0L 144 0L 144 43L 0 43Z" stroke="none" fill="none"></path><g id="SvgjsG1289"><text id="SvgjsText1290" font-family="微软雅黑" text-anchor="start" font-size="16px" width="144px" fill="#323232" font-weight="400" align="middle" anchor="start" family="微软雅黑" size="16px" weight="400" font-style="" opacity="1" y="9.1" transform="rotate(0)"><tspan id="SvgjsTspan1291" dy="20" x="0"><tspan id="SvgjsTspan1292" style="text-decoration:;">区建委预售审批</tspan></tspan></text></g></g><g id="SvgjsG1293"><path id="SvgjsPath1294" d="M1210.60708702878 535.7678547852221L1213.375 535.7678547852221L1213.375 617.5" stroke="#cfcfcf" stroke-width="1" fill="none"></path></g><g id="SvgjsG1295" transform="translate(1100.375,533.5)"><path id="SvgjsPath1296" d="M 6.666666666666667 0L 106.33333333333333 0C 115.22222222222223 0 115.22222222222223 20 106.33333333333333 20L 6.666666666666667 20C -2.2222222222222223 20 -2.2222222222222223 0 6.666666666666667 0Z" stroke="none" fill-opacity="1" fill="#ccffff"></path><g id="SvgjsG1297"><text id="SvgjsText1298" font-family="微软雅黑" text-anchor="middle" font-size="16px" width="93px" fill="#323232" font-weight="400" align="middle" anchor="middle" family="微软雅黑" size="16px" weight="400" font-style="" opacity="1" y="-2.4" transform="rotate(0)"><tspan id="SvgjsTspan1299" dy="20" x="56.5"><tspan id="SvgjsTspan1300" style="text-decoration:;">12</tspan></tspan></text></g></g><g id="SvgjsG1301" transform="translate(1228.375,522)"><path id="SvgjsPath1302" d="M 0 0L 142 0L 142 43L 0 43Z" stroke="none" fill="none"></path><g id="SvgjsG1303"><text id="SvgjsText1304" font-family="微软雅黑" text-anchor="start" font-size="16px" width="142px" fill="#323232" font-weight="400" align="middle" anchor="start" family="微软雅黑" size="16px" weight="400" font-style="" opacity="1" y="9.1" transform="rotate(0)"><tspan id="SvgjsTspan1305" dy="20" x="0"><tspan id="SvgjsTspan1306" style="text-decoration:;">市里审批、公示</tspan></tspan></text></g></g><g id="SvgjsG1307"><path id="SvgjsPath1308" d="M1334.1578499853715 575L1334.375 575L1334.375 639.5" stroke="#cfcfcf" stroke-width="1" fill="none"></path></g><g id="SvgjsG1309" transform="translate(1216.8682069192514,565)"><path id="SvgjsPath1310" d="M 6.666666666666667 0L 110.62297639945344 0C 119.51186528834234 0 119.51186528834234 20 110.62297639945344 20L 6.666666666666667 20C -2.2222222222222223 20 -2.2222222222222223 0 6.666666666666667 0Z" stroke="none" fill-opacity="1" fill="#ccffff"></path><g id="SvgjsG1311"><text id="SvgjsText1312" font-family="微软雅黑" text-anchor="middle" font-size="16px" width="98px" fill="#323232" font-weight="400" align="middle" anchor="middle" family="微软雅黑" size="16px" weight="400" font-style="" opacity="1" y="-2.4" transform="rotate(0)"><tspan id="SvgjsTspan1313" dy="20" x="59"><tspan id="SvgjsTspan1314" style="text-decoration:;">13</tspan></tspan></text></g></g><g id="SvgjsG1315" transform="translate(874.375,553.5)"><path id="SvgjsPath1316" d="M 0 0L 322 0L 322 43L 0 43Z" stroke="none" fill="none"></path><g id="SvgjsG1317"><text id="SvgjsText1318" font-family="微软雅黑" text-anchor="end" font-size="16px" width="322px" fill="#323232" font-weight="700" align="middle" anchor="end" family="微软雅黑" size="16px" weight="700" font-style="" opacity="1" y="9.1" transform="rotate(0)"><tspan id="SvgjsTspan1319" dy="20" x="322"><tspan id="SvgjsTspan1320" style="text-decoration:;">预售证</tspan></tspan></text></g></g><g id="SvgjsG1321" transform="translate(986.375,420.5)"><path id="SvgjsPath1322" d="M 0 0L 322 0L 322 43L 0 43Z" stroke="none" fill="none"></path><g id="SvgjsG1323"><text id="SvgjsText1324" font-family="微软雅黑" text-anchor="start" font-size="16px" width="322px" fill="#323232" font-weight="400" align="middle" anchor="start" family="微软雅黑" size="16px" weight="400" font-style="" opacity="1" y="9.1" transform="rotate(0)"><tspan id="SvgjsTspan1325" dy="20" x="0"><tspan id="SvgjsTspan1326" style="text-decoration:;">85%价格评估</tspan></tspan></text></g></g><g id="SvgjsG1327" transform="translate(814.375,579.5)"><path id="SvgjsPath1328" d="M 0 0L 74 0L 74 43L 0 43Z" stroke="none" fill="none"></path><g id="SvgjsG1329"><text id="SvgjsText1330" font-family="微软雅黑" text-anchor="middle" font-size="16px" width="74px" fill="#000000" font-weight="700" align="middle" anchor="middle" family="微软雅黑" size="16px" weight="700" font-style="" opacity="1" y="9.1" transform="rotate(0)"><tspan id="SvgjsTspan1331" dy="20" x="37"><tspan id="SvgjsTspan1332" style="text-decoration:;">施工证</tspan></tspan></text></g></g></svg>