<svg id="SvgjsSvg1006" width="1194.953125" height="566" xmlns="http://www.w3.org/2000/svg" version="1.1" xmlns:xlink="http://www.w3.org/1999/xlink" xmlns:svgjs="http://svgjs.com/svgjs"><defs id="SvgjsDefs1007"><pattern id="SvgjsPattern1129" x="0" y="0" width="40" height="43" patternUnits="userSpaceOnUse"><image id="SvgjsImage1130" xlink:href="https://cdn.processon.com/5f9fdadaf346fb11c3d01f5f?e=1604315370&amp;token=trhI0BY8QfVrIGn9nENop6JAc6l5nZuxhjQ62UfM:oGIUkgfusy09pJhTqv4tmXCn6fM=" width="40" height="43" preserveAspectRatio="none" crossOrigin="anonymous" x="0" y="0"></image></pattern><pattern id="SvgjsPattern1223" x="0" y="0" width="60" height="59.5" patternUnits="userSpaceOnUse"><image id="SvgjsImage1224" xlink:href="https://cdn.processon.com/5fed6bdf6376896cfafbe892?e=1609398767&amp;amp;token=trhI0BY8QfVrIGn9nENop6JAc6l5nZuxhjQ62UfM:qJkaw8I751v4NpivNa-wN28wlZM=" width="60" height="59.5" preserveAspectRatio="none" crossOrigin="anonymous" x="0" y="0"></image></pattern></defs><rect id="SvgjsRect1008" width="1194.953125" height="566" fill="#a9b7c0"></rect><g id="SvgjsG1009" transform="translate(760.3485956699824,236)"><path id="SvgjsPath1010" d="M 0 0L 75.84844938560562 0L 75.84844938560562 32L 0 32Z" stroke="none" fill="none"></path><g id="SvgjsG1011"><text id="SvgjsText1012" font-family="微软雅黑" text-anchor="middle" font-size="13px" width="76px" fill="#323232" font-weight="400" align="middle" anchor="middle" family="微软雅黑" size="13px" weight="400" font-style="" opacity="1" y="6.05" transform="rotate(0)"><tspan id="SvgjsTspan1013" dy="16" x="38"><tspan id="SvgjsTspan1014" style="text-decoration:;font-size: inherit;">119天</tspan></tspan></text></g></g><g id="SvgjsG1015" transform="translate(1011.3177296664717,229)"><path id="SvgjsPath1016" d="M 0 0L 108 0L 108 46L 0 46Z" stroke="none" fill="none"></path><g id="SvgjsG1017"><text id="SvgjsText1018" font-family="微软雅黑" text-anchor="middle" font-size="13px" width="108px" fill="#323232" font-weight="400" align="middle" anchor="middle" family="微软雅黑" size="13px" weight="400" font-style="" opacity="1" y="13.05" transform="rotate(0)"><tspan id="SvgjsTspan1019" dy="16" x="54"><tspan id="SvgjsTspan1020" style="text-decoration:;font-size: inherit;">150天</tspan></tspan></text></g></g><g id="SvgjsG1021" transform="translate(151,385)"><path id="SvgjsPath1022" d="M 0 0L 136.0449981689453 0L 159.4499969482422 23.404998779296875L 136.0449981689453 46.80999755859375L 0 46.80999755859375L 0 0Z" stroke="none" fill-opacity="1" fill="#ccffff"></path><g id="SvgjsG1023"><text id="SvgjsText1024" font-family="微软雅黑" text-anchor="middle" font-size="16px" width="109px" fill="#323232" font-weight="700" align="middle" anchor="middle" family="微软雅黑" size="16px" weight="700" font-style="" opacity="1" y="2.004998779296875" transform="rotate(0)"><tspan id="SvgjsTspan1025" dy="20" x="70.44499969482422"><tspan id="SvgjsTspan1026" style="text-decoration:;">出让合同补充</tspan></tspan><tspan id="SvgjsTspan1027" dy="20" x="70.44499969482422"><tspan id="SvgjsTspan1028" style="text-decoration:;">协议（地下）</tspan></tspan></text></g></g><g id="SvgjsG1029" transform="translate(229.63253364540662,236)"><path id="SvgjsPath1030" d="M 0 0L 63 0L 63 32L 0 32Z" stroke="none" fill="none"></path><g id="SvgjsG1031"><text id="SvgjsText1032" font-family="微软雅黑" text-anchor="middle" font-size="13px" width="63px" fill="#323232" font-weight="400" align="middle" anchor="middle" family="微软雅黑" size="13px" weight="400" font-style="" opacity="1" y="6.05" transform="rotate(0)"><tspan id="SvgjsTspan1033" dy="16" x="31.5"><tspan id="SvgjsTspan1034" style="text-decoration:;font-size: inherit;">60天</tspan></tspan></text></g></g><g id="SvgjsG1035" transform="translate(487.96342890579285,236)"><path id="SvgjsPath1036" d="M 0 0L 63 0L 63 32L 0 32Z" stroke="none" fill="none"></path><g id="SvgjsG1037"><text id="SvgjsText1038" font-family="微软雅黑" text-anchor="middle" font-size="13px" width="63px" fill="#323232" font-weight="400" align="middle" anchor="middle" family="微软雅黑" size="13px" weight="400" font-style="" opacity="1" y="6.05" transform="rotate(0)"><tspan id="SvgjsTspan1039" dy="16" x="31.5"><tspan id="SvgjsTspan1040" style="text-decoration:;font-size: inherit;">85天</tspan></tspan></text></g></g><g id="SvgjsG1041" transform="translate(492,243)"><path id="SvgjsPath1042" d="M 0 9C 0 -3 18 -3 18 9C 18 21 0 21 0 9Z" stroke="none" fill-opacity="1" fill="#ffffcc"></path><g id="SvgjsG1043"><text id="SvgjsText1044" font-family="微软雅黑" text-anchor="middle" font-size="13px" width="0" fill="#323232" font-weight="400" align="middle" anchor="middle" family="微软雅黑" size="13px" weight="400" font-style="" opacity="1" y="-0.95" transform="rotate(0)"></text></g></g><g id="SvgjsG1045" transform="translate(367.9444119368052,236)"><path id="SvgjsPath1046" d="M 0 0L 63 0L 63 32L 0 32Z" stroke="none" fill="none"></path><g id="SvgjsG1047"><text id="SvgjsText1048" font-family="微软雅黑" text-anchor="middle" font-size="13px" width="63px" fill="#323232" font-weight="400" align="middle" anchor="middle" family="微软雅黑" size="13px" weight="400" font-style="" opacity="1" y="6.05" transform="rotate(0)"><tspan id="SvgjsTspan1049" dy="16" x="31.5"><tspan id="SvgjsTspan1050" style="text-decoration:;font-size: inherit;">70天</tspan></tspan></text></g></g><g id="SvgjsG1051" transform="translate(878.3598595669982,229)"><path id="SvgjsPath1052" d="M 0 0L 108 0L 108 46L 0 46Z" stroke="none" fill="none"></path><g id="SvgjsG1053"><text id="SvgjsText1054" font-family="微软雅黑" text-anchor="middle" font-size="13px" width="108px" fill="#323232" font-weight="400" align="middle" anchor="middle" family="微软雅黑" size="13px" weight="400" font-style="" opacity="1" y="13.05" transform="rotate(0)"><tspan id="SvgjsTspan1055" dy="16" x="54"><tspan id="SvgjsTspan1056" style="text-decoration:;font-size: inherit;">125天</tspan></tspan></text></g></g><g id="SvgjsG1057" transform="translate(635.6448215330603,236)"><path id="SvgjsPath1058" d="M 0 0L 46 0L 46 32L 0 32Z" stroke="none" fill="none"></path><g id="SvgjsG1059"><text id="SvgjsText1060" font-family="微软雅黑" text-anchor="middle" font-size="13px" width="46px" fill="#323232" font-weight="400" align="middle" anchor="middle" family="微软雅黑" size="13px" weight="400" font-style="" opacity="1" y="6.05" transform="rotate(0)"><tspan id="SvgjsTspan1061" dy="16" x="23"><tspan id="SvgjsTspan1062" style="text-decoration:;font-size: inherit;">95天</tspan></tspan></text></g></g><g id="SvgjsG1063" transform="translate(361,243)"><path id="SvgjsPath1064" d="M 0 9C 0 -3 18 -3 18 9C 18 21 0 21 0 9Z" stroke="none" fill-opacity="1" fill="#ffe6cc"></path><g id="SvgjsG1065"><text id="SvgjsText1066" font-family="微软雅黑" text-anchor="middle" font-size="13px" width="0" fill="#323232" font-weight="400" align="middle" anchor="middle" family="微软雅黑" size="13px" weight="400" font-style="" opacity="1" y="-0.95" transform="rotate(0)"></text></g></g><g id="SvgjsG1067" transform="translate(626,243)"><path id="SvgjsPath1068" d="M 0 9C 0 -3 18 -3 18 9C 18 21 0 21 0 9Z" stroke-dasharray="10,6" stroke="rgba(229,229,229,1)" stroke-width="1" fill-opacity="1" fill="#ffffcc"></path><g id="SvgjsG1069"><text id="SvgjsText1070" font-family="微软雅黑" text-anchor="middle" font-size="13px" width="0" fill="#323232" font-weight="400" align="middle" anchor="middle" family="微软雅黑" size="13px" weight="400" font-style="" opacity="1" y="-0.95" transform="rotate(0)"></text></g></g><g id="SvgjsG1071" transform="translate(1032.7337624341721,243)"><path id="SvgjsPath1072" d="M 0 9C 0 -3 18 -3 18 9C 18 21 0 21 0 9Z" stroke="none" fill-opacity="1" fill="#cce5ff"></path><g id="SvgjsG1073"><text id="SvgjsText1074" font-family="微软雅黑" text-anchor="middle" font-size="13px" width="0" fill="#323232" font-weight="400" align="middle" anchor="middle" family="微软雅黑" size="13px" weight="400" font-style="" opacity="1" y="-0.95" transform="rotate(0)"></text></g></g><g id="SvgjsG1075" transform="translate(893,243)"><path id="SvgjsPath1076" d="M 0 9C 0 -3 18 -3 18 9C 18 21 0 21 0 9Z" stroke="none" fill-opacity="1" fill="#ccffff"></path><g id="SvgjsG1077"><text id="SvgjsText1078" font-family="微软雅黑" text-anchor="middle" font-size="13px" width="0" fill="#323232" font-weight="400" align="middle" anchor="middle" family="微软雅黑" size="13px" weight="400" font-style="" opacity="1" y="-0.95" transform="rotate(0)"></text></g></g><g id="SvgjsG1079" transform="translate(760,243)"><path id="SvgjsPath1080" d="M 0 9C 0 -3 18 -3 18 9C 18 21 0 21 0 9Z" stroke="none" fill-opacity="1" fill="#e6ffcc"></path><g id="SvgjsG1081"><text id="SvgjsText1082" font-family="微软雅黑" text-anchor="middle" font-size="13px" width="0" fill="#323232" font-weight="400" align="middle" anchor="middle" family="微软雅黑" size="13px" weight="400" font-style="" opacity="1" y="-0.95" transform="rotate(0)"></text></g></g><g id="SvgjsG1083" transform="translate(227,243)"><path id="SvgjsPath1084" d="M 0 9C 0 -3 18 -3 18 9C 18 21 0 21 0 9Z" stroke="none" fill-opacity="1" fill="#ffcccc"></path><g id="SvgjsG1085"><text id="SvgjsText1086" font-family="微软雅黑" text-anchor="middle" font-size="13px" width="0" fill="#323232" font-weight="400" align="middle" anchor="middle" family="微软雅黑" size="13px" weight="400" font-style="" opacity="1" y="-0.95" transform="rotate(0)"></text></g></g><g id="SvgjsG1087" transform="translate(59.967817437097665,229)"><path id="SvgjsPath1088" d="M 0 0L 1087.0643651258047 0L 1110.0643651258047 23L 1087.0643651258047 46L 0 46L 0 0Z" stroke="none" fill-opacity="1" fill="#009999"></path><g id="SvgjsG1089"><text id="SvgjsText1090" font-family="微软雅黑" text-anchor="middle" font-size="13px" width="870px" fill="#323232" font-weight="400" align="middle" anchor="middle" family="微软雅黑" size="13px" weight="400" font-style="" opacity="1" y="14.05" transform="rotate(0)"></text></g></g><g id="SvgjsG1091" transform="translate(257,229.5)"><path id="SvgjsPath1092" d="M 0 22.5C 0 -7.5 90 -7.5 90 22.5C 90 52.5 0 52.5 0 22.5Z" stroke="none" fill-opacity="1" fill="#e5e5e5"></path><g id="SvgjsG1093"><text id="SvgjsText1094" font-family="微软雅黑" text-anchor="middle" font-size="12px" width="70px" fill="#323232" font-weight="700" align="middle" anchor="middle" family="微软雅黑" size="12px" weight="700" font-style="" opacity="1" y="13.2" transform="rotate(0)"><tspan id="SvgjsTspan1095" dy="15" x="45"><tspan id="SvgjsTspan1096" style="text-decoration:;">105天</tspan></tspan></text></g></g><g id="SvgjsG1097" transform="translate(59.967817437097665,25)"><path id="SvgjsPath1098" d="M 0 0L 551.0321825629023 0L 551.0321825629023 46L 0 46Z" stroke="none" fill="none"></path><g id="SvgjsG1099"><text id="SvgjsText1100" font-family="微软雅黑" text-anchor="start" font-size="30px" width="552px" fill="#1a1a1a" font-weight="700" align="middle" anchor="start" family="微软雅黑" size="30px" weight="700" font-style="" opacity="1" y="-2.5" transform="rotate(0)"><tspan id="SvgjsTspan1101" dy="37" x="0"><tspan id="SvgjsTspan1102" style="text-decoration:;">  开发报建部抢报建阶段标准工期</tspan></tspan></text></g></g><g id="SvgjsG1103" transform="translate(34.82433074897597,229)"><path id="SvgjsPath1104" d="M 0 23C 0 -7.666666666666667 64.17566925102403 -7.666666666666667 64.17566925102403 23C 64.17566925102403 53.666666666666664 0 53.666666666666664 0 23Z" stroke="none" fill-opacity="1" fill="#e5e5e5"></path><g id="SvgjsG1105"><text id="SvgjsText1106" font-family="微软雅黑" text-anchor="middle" font-size="16px" width="45px" fill="#323232" font-weight="700" align="middle" anchor="middle" family="微软雅黑" size="16px" weight="700" font-style="" opacity="1" y="10.6" transform="rotate(0)"><tspan id="SvgjsTspan1107" dy="20" x="32.5"><tspan id="SvgjsTspan1108" style="text-decoration:;">拿地</tspan></tspan></text></g></g><g id="SvgjsG1109" transform="translate(401.96342890579285,229.5)"><path id="SvgjsPath1110" d="M 0 22.5C 0 -7.5 90 -7.5 90 22.5C 90 52.5 0 52.5 0 22.5Z" stroke="none" fill-opacity="1" fill="#e5e5e5"></path><g id="SvgjsG1111"><text id="SvgjsText1112" font-family="微软雅黑" text-anchor="middle" font-size="12px" width="70px" fill="#323232" font-weight="700" align="middle" anchor="middle" family="微软雅黑" size="12px" weight="700" font-style="" opacity="1" y="13.2" transform="rotate(0)"><tspan id="SvgjsTspan1113" dy="15" x="45"><tspan id="SvgjsTspan1114" style="text-decoration:;font-size: inherit;">106天</tspan></tspan></text></g></g><g id="SvgjsG1115" transform="translate(278,123.39368421052632)"><path id="SvgjsPath1116" d="M 0 0L 685 0L 685 46L 0 46Z" stroke="none" fill-opacity="1" fill="#009999"></path><g id="SvgjsG1117"><text id="SvgjsText1118" font-family="微软雅黑" text-anchor="middle" font-size="20px" width="665px" fill="#ffffff" font-weight="700" align="middle" anchor="middle" family="微软雅黑" size="20px" weight="700" font-style="" opacity="1" y="7.5" transform="rotate(0)"><tspan id="SvgjsTspan1119" dy="25" x="342.5"><tspan id="SvgjsTspan1120" style="text-decoration:;font-size: inherit;">地下国土手续阶段</tspan></tspan></text></g></g><g id="SvgjsG1121" transform="translate(278,501)"><path id="SvgjsPath1122" d="M 0 0L 672.5 0L 672.5 40L 0 40Z" stroke="none" fill-opacity="1" fill="#009999"></path><g id="SvgjsG1123"><text id="SvgjsText1124" font-family="微软雅黑" text-anchor="middle" font-size="20px" width="653px" fill="#ffffff" font-weight="700" align="middle" anchor="middle" family="微软雅黑" size="20px" weight="700" font-style="" opacity="1" y="4.5" transform="rotate(0)"><tspan id="SvgjsTspan1125" dy="25" x="336.5"><tspan id="SvgjsTspan1126" style="text-decoration:;">返回整体流程页面</tspan></tspan></text></g></g><g id="SvgjsG1127" transform="translate(25,26.5)"><path id="SvgjsPath1128" d="M 0 0L 40 0L 40 43L 0 43Z" stroke="none" fill="url(#SvgjsPattern1129)"></path></g><g id="SvgjsG1131" transform="translate(319.5,329.1499996185303)"><path id="SvgjsPath1132" d="M 0 0L 110.09492800113445 0L 132.11391360136133 24L 110.09492800113445 48L 0 48L 0 0Z" stroke="none" fill-opacity="1" fill="#e6ffcc"></path><g id="SvgjsG1133"><text id="SvgjsText1134" font-family="微软雅黑" text-anchor="middle" font-size="16px" width="89px" fill="#323232" font-weight="700" align="middle" anchor="middle" family="微软雅黑" size="16px" weight="700" font-style="" opacity="1" y="2.6" transform="rotate(0)"><tspan id="SvgjsTspan1135" dy="20" x="57.71139136013613"><tspan id="SvgjsTspan1136" style="text-decoration:;">补交出让金</tspan></tspan><tspan id="SvgjsTspan1137" dy="20" x="57.71139136013613"><tspan id="SvgjsTspan1138" style="text-decoration:;">（地下）</tspan></tspan></text></g></g><g id="SvgjsG1139" transform="translate(148,232)"><path id="SvgjsPath1140" d="M 0 0L 120 0L 120 40L 0 40Z" stroke="none" fill="none"></path><g id="SvgjsG1141"><text id="SvgjsText1142" font-family="微软雅黑" text-anchor="middle" font-size="13px" width="120px" fill="#ffffff" font-weight="700" align="middle" anchor="middle" family="微软雅黑" size="13px" weight="700" font-style="" opacity="1" y="10.05" transform="rotate(0)"><tspan id="SvgjsTspan1143" dy="16" x="60"><tspan id="SvgjsTspan1144" style="text-decoration:;">20天</tspan></tspan></text></g></g><g id="SvgjsG1145" transform="translate(319.5,232)"><path id="SvgjsPath1146" d="M 0 0L 112 0L 112 40L 0 40Z" stroke="none" fill="none"></path><g id="SvgjsG1147"><text id="SvgjsText1148" font-family="微软雅黑" text-anchor="middle" font-size="13px" width="112px" fill="#ffffff" font-weight="700" align="middle" anchor="middle" family="微软雅黑" size="13px" weight="700" font-style="" opacity="1" y="10.05" transform="rotate(0)"><tspan id="SvgjsTspan1149" dy="16" x="56"><tspan id="SvgjsTspan1150" style="text-decoration:;">1天</tspan></tspan></text></g></g><g id="SvgjsG1151" transform="translate(711,229.5)"><path id="SvgjsPath1152" d="M 0 22.5C 0 -7.5 90 -7.5 90 22.5C 90 52.5 0 52.5 0 22.5Z" stroke="none" fill-opacity="1" fill="#e5e5e5"></path><g id="SvgjsG1153"><text id="SvgjsText1154" font-family="微软雅黑" text-anchor="middle" font-size="12px" width="70px" fill="#323232" font-weight="700" align="middle" anchor="middle" family="微软雅黑" size="12px" weight="700" font-style="" opacity="1" y="13.2" transform="rotate(0)"><tspan id="SvgjsTspan1155" dy="15" x="45"><tspan id="SvgjsTspan1156" style="text-decoration:;font-size: inherit;">112天</tspan></tspan></text></g></g><g id="SvgjsG1157" transform="translate(601.5,327.3797368421053)"><path id="SvgjsPath1158" d="M 0 0L 124.36665852864583 0L 149.239990234375 25.770262776425L 124.36665852864583 51.54052555285L 0 51.54052555285L 0 0Z" stroke="none" fill-opacity="1" fill="#ccffff"></path><g id="SvgjsG1159"><text id="SvgjsText1160" font-family="微软雅黑" text-anchor="middle" font-size="16px" width="100px" fill="#323232" font-weight="700" align="middle" anchor="middle" family="微软雅黑" size="16px" weight="700" font-style="" opacity="1" y="4.370262776424999" transform="rotate(0)"><tspan id="SvgjsTspan1161" dy="20" x="64.9239990234375"><tspan id="SvgjsTspan1162" style="text-decoration:;">出让金及契税</tspan></tspan><tspan id="SvgjsTspan1163" dy="20" x="64.9239990234375"><tspan id="SvgjsTspan1164" style="text-decoration:;">证明推送</tspan></tspan></text></g></g><g id="SvgjsG1165" transform="translate(891,229.5)"><path id="SvgjsPath1166" d="M 0 22.5C 0 -7.5 90 -7.5 90 22.5C 90 52.5 0 52.5 0 22.5Z" stroke="none" fill-opacity="1" fill="#e5e5e5"></path><g id="SvgjsG1167"><text id="SvgjsText1168" font-family="微软雅黑" text-anchor="middle" font-size="12px" width="70px" fill="#323232" font-weight="700" align="middle" anchor="middle" family="微软雅黑" size="12px" weight="700" font-style="" opacity="1" y="13.2" transform="rotate(0)"><tspan id="SvgjsTspan1169" dy="15" x="45"><tspan id="SvgjsTspan1170" style="text-decoration:;font-size: inherit;">119天</tspan></tspan></text></g></g><g id="SvgjsG1171" transform="translate(756,327.3797368421052)"><path id="SvgjsPath1172" d="M 0 0L 135.4634996577471 0L 161.23376243417215 25.770262776425056L 135.4634996577471 51.54052555285011L 0 51.54052555285011L 0 0Z" stroke="none" fill-opacity="1" fill="#ccffff"></path><g id="SvgjsG1173"><text id="SvgjsText1174" font-family="微软雅黑" text-anchor="middle" font-size="16px" width="109px" fill="#323232" font-weight="700" align="middle" anchor="middle" family="微软雅黑" size="16px" weight="700" font-style="" opacity="1" y="4.370262776425056" transform="rotate(0)"><tspan id="SvgjsTspan1175" dy="20" x="70.62337624341721"><tspan id="SvgjsTspan1176" style="text-decoration:;">不动产权证</tspan></tspan><tspan id="SvgjsTspan1177" dy="20" x="70.62337624341721"><tspan id="SvgjsTspan1178" style="text-decoration:;">（地下）</tspan></tspan></text></g></g><g id="SvgjsG1179" transform="translate(606,232)"><path id="SvgjsPath1180" d="M 0 0L 120 0L 120 40L 0 40Z" stroke="none" fill="none"></path><g id="SvgjsG1181"><text id="SvgjsText1182" font-family="微软雅黑" text-anchor="middle" font-size="13px" width="120px" fill="#ffffff" font-weight="700" align="middle" anchor="middle" family="微软雅黑" size="13px" weight="700" font-style="" opacity="1" y="10.05" transform="rotate(0)"><tspan id="SvgjsTspan1183" dy="16" x="60"><tspan id="SvgjsTspan1184" style="text-decoration:;">5天</tspan></tspan></text></g></g><g id="SvgjsG1185" transform="translate(783.7337624341721,232)"><path id="SvgjsPath1186" d="M 0 0L 120 0L 120 40L 0 40Z" stroke="none" fill="none"></path><g id="SvgjsG1187"><text id="SvgjsText1188" font-family="微软雅黑" text-anchor="middle" font-size="13px" width="120px" fill="#ffffff" font-weight="700" align="middle" anchor="middle" family="微软雅黑" size="13px" weight="700" font-style="" opacity="1" y="10.05" transform="rotate(0)"><tspan id="SvgjsTspan1189" dy="16" x="60"><tspan id="SvgjsTspan1190" style="text-decoration:;">7天</tspan></tspan></text></g></g><g id="SvgjsG1191" transform="translate(1056.7337624341721,229.5)"><path id="SvgjsPath1192" d="M 0 22.5C 0 -7.5 90 -7.5 90 22.5C 90 52.5 0 52.5 0 22.5Z" stroke="none" fill-opacity="1" fill="#e5e5e5"></path><g id="SvgjsG1193"><text id="SvgjsText1194" font-family="微软雅黑" text-anchor="middle" font-size="12px" width="70px" fill="#323232" font-weight="700" align="middle" anchor="middle" family="微软雅黑" size="12px" weight="700" font-style="" opacity="1" y="13.2" transform="rotate(0)"><tspan id="SvgjsTspan1195" dy="15" x="45"><tspan id="SvgjsTspan1196" style="text-decoration:;font-size: inherit;">125天</tspan></tspan></text></g></g><g id="SvgjsG1197" transform="translate(960.7337624341721,229.5)"><path id="SvgjsPath1198" d="M 0 0L 120 0L 120 40L 0 40Z" stroke="none" fill="none"></path><g id="SvgjsG1199"><text id="SvgjsText1200" font-family="微软雅黑" text-anchor="middle" font-size="13px" width="120px" fill="#ffffff" font-weight="700" align="middle" anchor="middle" family="微软雅黑" size="13px" weight="700" font-style="" opacity="1" y="10.05" transform="rotate(0)"><tspan id="SvgjsTspan1201" dy="16" x="60"><tspan id="SvgjsTspan1202" style="text-decoration:;">6天</tspan></tspan></text></g></g><g id="SvgjsG1203" transform="translate(924.3537575513596,319)"><path id="SvgjsPath1204" d="M 0 0L 148.75 0L 178.5 34.14999961853027L 148.75 68.29999923706055L 0 68.29999923706055L 0 0Z" stroke="none" fill-opacity="1" fill="#ffe6cc"></path><g id="SvgjsG1205"><text id="SvgjsText1206" font-family="微软雅黑" text-anchor="middle" font-size="16px" width="119px" fill="#323232" font-weight="700" align="middle" anchor="middle" family="微软雅黑" size="16px" weight="700" font-style="" opacity="1" y="2.7499996185302735" transform="rotate(0)"><tspan id="SvgjsTspan1207" dy="20" x="77.35"><tspan id="SvgjsTspan1208" style="text-decoration:;">土地抵押手续、</tspan></tspan><tspan id="SvgjsTspan1209" dy="20" x="77.35"><tspan id="SvgjsTspan1210" style="text-decoration:;">不动产权证登记</tspan></tspan><tspan id="SvgjsTspan1211" dy="20" x="77.35"><tspan id="SvgjsTspan1212" style="text-decoration:;">（他项权）</tspan></tspan></text></g></g><g id="SvgjsG1213" transform="translate(99,159.39368421052632)"><path id="SvgjsPath1214" d="M 0 0L 108.18217645938671 0L 108.18217645938671 53.596313653243215L 0 53.596313653243215Z" stroke="none" fill="none"></path><g id="SvgjsG1215"><text id="SvgjsText1216" font-family="微软雅黑" text-anchor="middle" font-size="16px" width="109px" fill="#323232" font-weight="700" align="middle" anchor="middle" family="微软雅黑" size="16px" weight="700" font-style="" opacity="1" y="4.398156826621607" transform="rotate(0)"><tspan id="SvgjsTspan1217" dy="20" x="54.5"><tspan id="SvgjsTspan1218" style="text-decoration:;">取得多规合一</tspan></tspan><tspan id="SvgjsTspan1219" dy="20" x="54.5"><tspan id="SvgjsTspan1220" style="text-decoration:;">会商意见</tspan></tspan></text></g></g><g id="SvgjsG1221" transform="translate(1078,30.643684210526317)"><path id="SvgjsPath1222" d="M 0 0L 60 0L 60 59.5L 0 59.5Z" stroke="none" fill="url(#SvgjsPattern1223)"></path></g><g id="SvgjsG1225" transform="translate(1048,83.39368421052632)"><path id="SvgjsPath1226" d="M 0 0L 120 0L 120 40L 0 40Z" stroke="none" fill="none"></path><g id="SvgjsG1227"><text id="SvgjsText1228" font-family="微软雅黑" text-anchor="middle" font-size="13px" width="120px" fill="#323232" font-weight="400" align="middle" anchor="middle" family="微软雅黑" size="13px" weight="400" font-style="" opacity="1" y="10.05" transform="rotate(0)"><tspan id="SvgjsTspan1229" dy="16" x="60"><tspan id="SvgjsTspan1230" style="text-decoration:;">打印</tspan></tspan></text></g></g><g id="SvgjsG1231" transform="translate(459.1199951171875,329.1499996185303)"><path id="SvgjsPath1232" d="M 0 0L 112.24166870117188 0L 134.69000244140625 24L 112.24166870117188 48L 0 48L 0 0Z" stroke="none" fill-opacity="1" fill="#ccffff"></path><g id="SvgjsG1233"><text id="SvgjsText1234" font-family="微软雅黑" text-anchor="middle" font-size="16px" width="90px" fill="#323232" font-weight="700" align="middle" anchor="middle" family="微软雅黑" size="16px" weight="700" font-style="" opacity="1" y="2.6" transform="rotate(0)"><tspan id="SvgjsTspan1235" dy="20" x="58.469000244140624"><tspan id="SvgjsTspan1236" style="text-decoration:;">契税及完税</tspan></tspan><tspan id="SvgjsTspan1237" dy="20" x="58.469000244140624"><tspan id="SvgjsTspan1238" style="text-decoration:;">证明</tspan></tspan></text></g></g><g id="SvgjsG1239" transform="translate(541,232)"><path id="SvgjsPath1240" d="M 0 22.5C 0 -7.5 90 -7.5 90 22.5C 90 52.5 0 52.5 0 22.5Z" stroke="none" fill-opacity="1" fill="#e5e5e5"></path><g id="SvgjsG1241"><text id="SvgjsText1242" font-family="微软雅黑" text-anchor="middle" font-size="12px" width="70px" fill="#323232" font-weight="700" align="middle" anchor="middle" family="微软雅黑" size="12px" weight="700" font-style="" opacity="1" y="13.2" transform="rotate(0)"><tspan id="SvgjsTspan1243" dy="15" x="45"><tspan id="SvgjsTspan1244" style="text-decoration:;font-size: inherit;">107天</tspan></tspan></text></g></g><g id="SvgjsG1245" transform="translate(464.25,232)"><path id="SvgjsPath1246" d="M 0 0L 112 0L 112 40L 0 40Z" stroke="none" fill="none"></path><g id="SvgjsG1247"><text id="SvgjsText1248" font-family="微软雅黑" text-anchor="middle" font-size="13px" width="112px" fill="#ffffff" font-weight="700" align="middle" anchor="middle" family="微软雅黑" size="13px" weight="700" font-style="" opacity="1" y="10.05" transform="rotate(0)"><tspan id="SvgjsTspan1249" dy="16" x="56"><tspan id="SvgjsTspan1250" style="text-decoration:;">1天</tspan></tspan></text></g></g><g id="SvgjsG1251" transform="translate(999,484)"><path id="SvgjsPath1252" d="M 0 0L 133.1199951171875 0L 145.1199951171875 12L 133.1199951171875 24L 0 24L 0 0Z" stroke="none" fill-opacity="1" fill="#e6ffcc"></path><g id="SvgjsG1253"><text id="SvgjsText1254" font-family="微软雅黑" text-anchor="middle" font-size="15px" width="107px" fill="#323232" font-weight="400" align="middle" anchor="middle" family="微软雅黑" size="15px" weight="400" font-style="" opacity="1" y="1.25" transform="rotate(0)"><tspan id="SvgjsTspan1255" dy="18" x="68.01199951171876"><tspan id="SvgjsTspan1256" style="text-decoration:;">财务部、开发部</tspan></tspan></text></g></g><g id="SvgjsG1257" transform="translate(999,450)"><path id="SvgjsPath1258" d="M 0 0L 133.1199951171875 0L 145.1199951171875 12L 133.1199951171875 24L 0 24L 0 0Z" stroke="none" fill-opacity="1" fill="#ffe6cc"></path><g id="SvgjsG1259"><text id="SvgjsText1260" font-family="微软雅黑" text-anchor="middle" font-size="15px" width="107px" fill="#323232" font-weight="400" align="middle" anchor="middle" family="微软雅黑" size="15px" weight="400" font-style="" opacity="1" y="1.25" transform="rotate(0)"><tspan id="SvgjsTspan1261" dy="18" x="68.01199951171876"><tspan id="SvgjsTspan1262" style="text-decoration:;">财务部</tspan></tspan></text></g></g><g id="SvgjsG1263" transform="translate(999,414)"><path id="SvgjsPath1264" d="M 0 0L 133.1199951171875 0L 145.1199951171875 12L 133.1199951171875 24L 0 24L 0 0Z" stroke="none" fill-opacity="1" fill="#ccffff"></path><g id="SvgjsG1265"><text id="SvgjsText1266" font-family="微软雅黑" text-anchor="middle" font-size="15px" width="107px" fill="#323232" font-weight="400" align="middle" anchor="middle" family="微软雅黑" size="15px" weight="400" font-style="" opacity="1" y="1.25" transform="rotate(0)"><tspan id="SvgjsTspan1267" dy="18" x="68.01199951171876"><tspan id="SvgjsTspan1268" style="text-decoration:;">开发部</tspan></tspan></text></g></g><g id="SvgjsG1269"><path id="SvgjsPath1270" d="M149.9499969482422 209.05999755859375L149.9499969482422 294.17999839782715L149.9499969482422 294.17999839782715L149.9499969482422 379.29999923706055" stroke-dasharray="8,5" stroke="#ffffff" stroke-width="1" fill="none"></path></g><g id="SvgjsG1271" transform="translate(65,232)"><path id="SvgjsPath1272" d="M 0 0L 120 0L 120 40L 0 40Z" stroke="none" fill="none"></path><g id="SvgjsG1273"><text id="SvgjsText1274" font-family="微软雅黑" text-anchor="middle" font-size="13px" width="120px" fill="#ffffff" font-weight="700" align="middle" anchor="middle" family="微软雅黑" size="13px" weight="700" font-style="" opacity="1" y="10.05" transform="rotate(0)"><tspan id="SvgjsTspan1275" dy="16" x="60"><tspan id="SvgjsTspan1276" style="text-decoration:;">85天</tspan></tspan></text></g></g></svg>