<svg id="SvgjsSvg1006" width="1424" height="743.75" xmlns="http://www.w3.org/2000/svg" version="1.1" xmlns:xlink="http://www.w3.org/1999/xlink" xmlns:svgjs="http://svgjs.com/svgjs"><defs id="SvgjsDefs1007"><pattern id="SvgjsPattern1268" x="0" y="0" width="44" height="46" patternUnits="userSpaceOnUse"><image id="SvgjsImage1269" xlink:href="https://cdn.processon.com/5f9fdadaf346fb11c3d01f5f?e=1604315370&amp;token=trhI0BY8QfVrIGn9nENop6JAc6l5nZuxhjQ62UfM:oGIUkgfusy09pJhTqv4tmXCn6fM=" width="44" height="46" preserveAspectRatio="none" crossOrigin="anonymous" x="0" y="0"></image></pattern><pattern id="SvgjsPattern1414" x="0" y="0" width="60" height="59.5" patternUnits="userSpaceOnUse"><image id="SvgjsImage1415" xlink:href="https://cdn.processon.com/5fed6bdf6376896cfafbe892?e=1609398767&amp;amp;token=trhI0BY8QfVrIGn9nENop6JAc6l5nZuxhjQ62UfM:qJkaw8I751v4NpivNa-wN28wlZM=" width="60" height="59.5" preserveAspectRatio="none" crossOrigin="anonymous" x="0" y="0"></image></pattern></defs><rect id="SvgjsRect1008" width="1424" height="743.75" fill="#a9b7c0"></rect><g id="SvgjsG1009" transform="translate(741,242.75)"><path id="SvgjsPath1010" d="M 0 0L 76 0L 76 32L 0 32Z" stroke="none" fill="none"></path><g id="SvgjsG1011"><text id="SvgjsText1012" font-family="微软雅黑" text-anchor="middle" font-size="13px" width="76px" fill="#323232" font-weight="400" align="middle" anchor="middle" family="微软雅黑" size="13px" weight="400" font-style="" opacity="1" y="6.05" transform="rotate(0)"><tspan id="SvgjsTspan1013" dy="16" x="38"><tspan id="SvgjsTspan1014" style="text-decoration:;font-size: inherit;">119天</tspan></tspan></text></g></g><g id="SvgjsG1015" transform="translate(992,235.75)"><path id="SvgjsPath1016" d="M 0 0L 108 0L 108 46L 0 46Z" stroke="none" fill="none"></path><g id="SvgjsG1017"><text id="SvgjsText1018" font-family="微软雅黑" text-anchor="middle" font-size="13px" width="108px" fill="#323232" font-weight="400" align="middle" anchor="middle" family="微软雅黑" size="13px" weight="400" font-style="" opacity="1" y="13.05" transform="rotate(0)"><tspan id="SvgjsTspan1019" dy="16" x="54"><tspan id="SvgjsTspan1020" style="text-decoration:;font-size: inherit;">150天</tspan></tspan></text></g></g><g id="SvgjsG1021" transform="translate(57.258630778232884,401.7121052631579)"><path id="SvgjsPath1022" d="M 0 0L 134.94324166179052 0L 157.94324166179052 23L 134.94324166179052 46L 0 46L 0 0Z" stroke="none" fill-opacity="1" fill="#ffcccc"></path><g id="SvgjsG1023"><text id="SvgjsText1024" font-family="微软雅黑" text-anchor="middle" font-size="16px" width="108px" fill="#323232" font-weight="700" align="middle" anchor="middle" family="微软雅黑" size="16px" weight="700" font-style="" opacity="1" y="1.6" transform="rotate(0)"><tspan id="SvgjsTspan1025" dy="20" x="69.79432416617905"><tspan id="SvgjsTspan1026" style="text-decoration:;">地上国土手续</tspan></tspan><tspan id="SvgjsTspan1027" dy="20" x="69.79432416617905"><tspan id="SvgjsTspan1028" style="text-decoration:;">阶段</tspan></tspan></text></g></g><g id="SvgjsG1029" transform="translate(210,242.75)"><path id="SvgjsPath1030" d="M 0 0L 64 0L 64 32L 0 32Z" stroke="none" fill="none"></path><g id="SvgjsG1031"><text id="SvgjsText1032" font-family="微软雅黑" text-anchor="middle" font-size="13px" width="64px" fill="#323232" font-weight="400" align="middle" anchor="middle" family="微软雅黑" size="13px" weight="400" font-style="" opacity="1" y="6.05" transform="rotate(0)"><tspan id="SvgjsTspan1033" dy="16" x="32"><tspan id="SvgjsTspan1034" style="text-decoration:;font-size: inherit;">60天</tspan></tspan></text></g></g><g id="SvgjsG1035" transform="translate(57.258630778232884,455.75)"><path id="SvgjsPath1036" d="M 0 0L 269.6857811585723 0L 292.6857811585723 23L 269.6857811585723 46L 0 46L 0 0Z" stroke="none" fill-opacity="1" fill="#ffe6cc"></path><g id="SvgjsG1037"><text id="SvgjsText1038" font-family="微软雅黑" text-anchor="middle" font-size="18px" width="216px" fill="#323232" font-weight="700" align="middle" anchor="middle" family="微软雅黑" size="18px" weight="700" font-style="" opacity="1" y="9.8" transform="rotate(0)"><tspan id="SvgjsTspan1039" dy="22" x="137.26857811585722"><tspan id="SvgjsTspan1040" style="text-decoration:;">立项阶段</tspan></tspan></text></g></g><g id="SvgjsG1041" transform="translate(468,242.75)"><path id="SvgjsPath1042" d="M 0 0L 64 0L 64 32L 0 32Z" stroke="none" fill="none"></path><g id="SvgjsG1043"><text id="SvgjsText1044" font-family="微软雅黑" text-anchor="middle" font-size="13px" width="64px" fill="#323232" font-weight="400" align="middle" anchor="middle" family="微软雅黑" size="13px" weight="400" font-style="" opacity="1" y="6.05" transform="rotate(0)"><tspan id="SvgjsTspan1045" dy="16" x="32"><tspan id="SvgjsTspan1046" style="text-decoration:;font-size: inherit;">85天</tspan></tspan></text></g></g><g id="SvgjsG1047" transform="translate(473,249.75)"><path id="SvgjsPath1048" d="M 0 9C 0 -3 18 -3 18 9C 18 21 0 21 0 9Z" stroke="none" fill-opacity="1" fill="#ffffcc"></path><g id="SvgjsG1049"><text id="SvgjsText1050" font-family="微软雅黑" text-anchor="middle" font-size="13px" width="0" fill="#323232" font-weight="400" align="middle" anchor="middle" family="微软雅黑" size="13px" weight="400" font-style="" opacity="1" y="-0.95" transform="rotate(0)"></text></g></g><g id="SvgjsG1051" transform="translate(348,242.75)"><path id="SvgjsPath1052" d="M 0 0L 64 0L 64 32L 0 32Z" stroke="none" fill="none"></path><g id="SvgjsG1053"><text id="SvgjsText1054" font-family="微软雅黑" text-anchor="middle" font-size="13px" width="64px" fill="#323232" font-weight="400" align="middle" anchor="middle" family="微软雅黑" size="13px" weight="400" font-style="" opacity="1" y="6.05" transform="rotate(0)"><tspan id="SvgjsTspan1055" dy="16" x="32"><tspan id="SvgjsTspan1056" style="text-decoration:;font-size: inherit;">70天</tspan></tspan></text></g></g><g id="SvgjsG1057" transform="translate(484.68695143358696,616.611754385965)"><path id="SvgjsPath1058" d="M 0 0L 373.97739906377996 0L 396.97739906377996 23L 373.97739906377996 46L 0 46L 0 0Z" stroke="none" fill-opacity="1" fill="#e6ffcc"></path><g id="SvgjsG1059"><text id="SvgjsText1060" font-family="微软雅黑" text-anchor="middle" font-size="18px" width="300px" fill="#323232" font-weight="700" align="middle" anchor="middle" family="微软雅黑" size="18px" weight="700" font-style="" opacity="1" y="9.8" transform="rotate(0)"><tspan id="SvgjsTspan1061" dy="22" x="189.697739906378"><tspan id="SvgjsTspan1062" style="text-decoration:;">地下</tspan><tspan id="SvgjsTspan1063" style="text-decoration:;font-size: inherit;">国土手续阶段</tspan></tspan></text></g></g><g id="SvgjsG1064" transform="translate(487.9344645991807,672.75)"><path id="SvgjsPath1065" d="M 0 0L 499.13107080163843 0L 522.1310708016384 23L 499.13107080163843 46L 0 46L 0 0Z" stroke="none" fill-opacity="1" fill="#cce5ff"></path><g id="SvgjsG1066"><text id="SvgjsText1067" font-family="微软雅黑" text-anchor="middle" font-size="18px" width="400px" fill="#323232" font-weight="700" align="middle" anchor="middle" family="微软雅黑" size="18px" weight="700" font-style="" opacity="1" y="9.8" transform="rotate(0)"><tspan id="SvgjsTspan1068" dy="22" x="252.21310708016384"><tspan id="SvgjsTspan1069" style="text-decoration:;">预售证阶段</tspan></tspan></text></g></g><g id="SvgjsG1070" transform="translate(859,235.75)"><path id="SvgjsPath1071" d="M 0 0L 108 0L 108 46L 0 46Z" stroke="none" fill="none"></path><g id="SvgjsG1072"><text id="SvgjsText1073" font-family="微软雅黑" text-anchor="middle" font-size="13px" width="108px" fill="#323232" font-weight="400" align="middle" anchor="middle" family="微软雅黑" size="13px" weight="400" font-style="" opacity="1" y="13.05" transform="rotate(0)"><tspan id="SvgjsTspan1074" dy="16" x="54"><tspan id="SvgjsTspan1075" style="text-decoration:;font-size: inherit;">125天</tspan></tspan></text></g></g><g id="SvgjsG1076" transform="translate(616,242.75)"><path id="SvgjsPath1077" d="M 0 0L 44 0L 44 32L 0 32Z" stroke="none" fill="none"></path><g id="SvgjsG1078"><text id="SvgjsText1079" font-family="微软雅黑" text-anchor="middle" font-size="13px" width="44px" fill="#323232" font-weight="400" align="middle" anchor="middle" family="微软雅黑" size="13px" weight="400" font-style="" opacity="1" y="6.05" transform="rotate(0)"><tspan id="SvgjsTspan1080" dy="16" x="22"><tspan id="SvgjsTspan1081" style="text-decoration:;font-size: inherit;">95天</tspan></tspan></text></g></g><g id="SvgjsG1082" transform="translate(343,249.75)"><path id="SvgjsPath1083" d="M 0 9C 0 -3 18 -3 18 9C 18 21 0 21 0 9Z" stroke="none" fill-opacity="1" fill="#ffe6cc"></path><g id="SvgjsG1084"><text id="SvgjsText1085" font-family="微软雅黑" text-anchor="middle" font-size="13px" width="0" fill="#323232" font-weight="400" align="middle" anchor="middle" family="微软雅黑" size="13px" weight="400" font-style="" opacity="1" y="-0.95" transform="rotate(0)"></text></g></g><g id="SvgjsG1086" transform="translate(606,249.75)"><path id="SvgjsPath1087" d="M 0 9C 0 -3 18 -3 18 9C 18 21 0 21 0 9Z" stroke-dasharray="10,6" stroke="rgba(229,229,229,1)" stroke-width="1" fill-opacity="1" fill="#ffffcc"></path><g id="SvgjsG1088"><text id="SvgjsText1089" font-family="微软雅黑" text-anchor="middle" font-size="13px" width="0" fill="#323232" font-weight="400" align="middle" anchor="middle" family="微软雅黑" size="13px" weight="400" font-style="" opacity="1" y="-0.95" transform="rotate(0)"></text></g></g><g id="SvgjsG1090" transform="translate(1013,249.75)"><path id="SvgjsPath1091" d="M 0 9C 0 -3 18 -3 18 9C 18 21 0 21 0 9Z" stroke="none" fill-opacity="1" fill="#cce5ff"></path><g id="SvgjsG1092"><text id="SvgjsText1093" font-family="微软雅黑" text-anchor="middle" font-size="13px" width="0" fill="#323232" font-weight="400" align="middle" anchor="middle" family="微软雅黑" size="13px" weight="400" font-style="" opacity="1" y="-0.95" transform="rotate(0)"></text></g></g><g id="SvgjsG1094" transform="translate(874,249.75)"><path id="SvgjsPath1095" d="M 0 9C 0 -3 18 -3 18 9C 18 21 0 21 0 9Z" stroke="none" fill-opacity="1" fill="#ccffff"></path><g id="SvgjsG1096"><text id="SvgjsText1097" font-family="微软雅黑" text-anchor="middle" font-size="13px" width="0" fill="#323232" font-weight="400" align="middle" anchor="middle" family="微软雅黑" size="13px" weight="400" font-style="" opacity="1" y="-0.95" transform="rotate(0)"></text></g></g><g id="SvgjsG1098" transform="translate(740,249.75)"><path id="SvgjsPath1099" d="M 0 9C 0 -3 18 -3 18 9C 18 21 0 21 0 9Z" stroke="none" fill-opacity="1" fill="#e6ffcc"></path><g id="SvgjsG1100"><text id="SvgjsText1101" font-family="微软雅黑" text-anchor="middle" font-size="13px" width="0" fill="#323232" font-weight="400" align="middle" anchor="middle" family="微软雅黑" size="13px" weight="400" font-style="" opacity="1" y="-0.95" transform="rotate(0)"></text></g></g><g id="SvgjsG1102" transform="translate(207,249.75)"><path id="SvgjsPath1103" d="M 0 9C 0 -3 18 -3 18 9C 18 21 0 21 0 9Z" stroke="none" fill-opacity="1" fill="#ffcccc"></path><g id="SvgjsG1104"><text id="SvgjsText1105" font-family="微软雅黑" text-anchor="middle" font-size="13px" width="0" fill="#323232" font-weight="400" align="middle" anchor="middle" family="微软雅黑" size="13px" weight="400" font-style="" opacity="1" y="-0.95" transform="rotate(0)"></text></g></g><g id="SvgjsG1106" transform="translate(59.5,235.75)"><path id="SvgjsPath1107" d="M 0 0L 1088 0L 1111 23L 1088 46L 0 46L 0 0Z" stroke="none" fill-opacity="1" fill="#009999"></path><g id="SvgjsG1108"><text id="SvgjsText1109" font-family="微软雅黑" text-anchor="middle" font-size="13px" width="871px" fill="#323232" font-weight="400" align="middle" anchor="middle" family="微软雅黑" size="13px" weight="400" font-style="" opacity="1" y="14.05" transform="rotate(0)"></text></g></g><g id="SvgjsG1110" transform="translate(171,235.75)"><path id="SvgjsPath1111" d="M 0 23C 0 -7.666666666666667 90 -7.666666666666667 90 23C 90 53.666666666666664 0 53.666666666666664 0 23Z" stroke="none" fill-opacity="1" fill="#e5e5e5"></path><g id="SvgjsG1112"><text id="SvgjsText1113" font-family="微软雅黑" text-anchor="middle" font-size="12px" width="70px" fill="#323232" font-weight="700" align="middle" anchor="middle" family="微软雅黑" size="12px" weight="700" font-style="" opacity="1" y="13.7" transform="rotate(0)"><tspan id="SvgjsTspan1114" dy="15" x="45"><tspan id="SvgjsTspan1115" style="text-decoration:;">2010.10.10</tspan></tspan></text></g></g><g id="SvgjsG1116"><path id="SvgjsPath1117" d="M214.18845357763553 235.75L214.18845357763553 219.25L214.12806869689007 219.25L214.12806869689007 202.75" stroke-dasharray="8,5" stroke="#ffffff" stroke-width="1" fill="none"></path></g><g id="SvgjsG1118"><path id="SvgjsPath1119" d="M216.5 281.75L216.5 425.1591228070175L215.2018724400234 425.1591228070175" stroke-dasharray="8,5" stroke="#ffffff" stroke-width="1" fill="none"></path></g><g id="SvgjsG1120" transform="translate(307,235.75)"><path id="SvgjsPath1121" d="M 0 23C 0 -7.666666666666667 90 -7.666666666666667 90 23C 90 53.666666666666664 0 53.666666666666664 0 23Z" stroke="none" fill-opacity="1" fill="#e5e5e5"></path><g id="SvgjsG1122"><text id="SvgjsText1123" font-family="微软雅黑" text-anchor="middle" font-size="12px" width="70px" fill="#323232" font-weight="700" align="middle" anchor="middle" family="微软雅黑" size="12px" weight="700" font-style="" opacity="1" y="13.7" transform="rotate(0)"><tspan id="SvgjsTspan1124" dy="15" x="45"><tspan id="SvgjsTspan1125" style="text-decoration:;">2010.10.10</tspan></tspan></text></g></g><g id="SvgjsG1126"><path id="SvgjsPath1127" d="M349.9444119368052 478.75L352 478.75L352 281.75" stroke-dasharray="8,5" stroke="#ffffff" stroke-width="1" fill="none"></path></g><g id="SvgjsG1128"><path id="SvgjsPath1129" d="M352.0000000000001 235.75L352.0000000000001 219.25L352.0000000000001 219.25L352.0000000000001 202.75" stroke-dasharray="8,5" stroke="#ffffff" stroke-width="1" fill="none"></path></g><g id="SvgjsG1130" transform="translate(437,235.75)"><path id="SvgjsPath1131" d="M 0 23C 0 -7.666666666666667 90 -7.666666666666667 90 23C 90 53.666666666666664 0 53.666666666666664 0 23Z" stroke="none" fill-opacity="1" fill="#e5e5e5"></path><g id="SvgjsG1132"><text id="SvgjsText1133" font-family="微软雅黑" text-anchor="middle" font-size="12px" width="70px" fill="#323232" font-weight="700" align="middle" anchor="middle" family="微软雅黑" size="12px" weight="700" font-style="" opacity="1" y="13.7" transform="rotate(0)"><tspan id="SvgjsTspan1134" dy="15" x="45"><tspan id="SvgjsTspan1135" style="text-decoration:;">2010.10.10</tspan></tspan></text></g></g><g id="SvgjsG1136" transform="translate(570,235.75)"><path id="SvgjsPath1137" d="M 0 23C 0 -7.666666666666667 90 -7.666666666666667 90 23C 90 53.666666666666664 0 53.666666666666664 0 23Z" stroke="none" fill-opacity="1" fill="#e5e5e5"></path><g id="SvgjsG1138"><text id="SvgjsText1139" font-family="微软雅黑" text-anchor="middle" font-size="12px" width="70px" fill="#323232" font-weight="700" align="middle" anchor="middle" family="微软雅黑" size="12px" weight="700" font-style="" opacity="1" y="13.7" transform="rotate(0)"><tspan id="SvgjsTspan1140" dy="15" x="45"><tspan id="SvgjsTspan1141" style="text-decoration:;">2010.10.10</tspan></tspan></text></g></g><g id="SvgjsG1142" transform="translate(704,235.75)"><path id="SvgjsPath1143" d="M 0 23C 0 -7.666666666666667 90 -7.666666666666667 90 23C 90 53.666666666666664 0 53.666666666666664 0 23Z" stroke="none" fill-opacity="1" fill="#e5e5e5"></path><g id="SvgjsG1144"><text id="SvgjsText1145" font-family="微软雅黑" text-anchor="middle" font-size="12px" width="70px" fill="#323232" font-weight="700" align="middle" anchor="middle" family="微软雅黑" size="12px" weight="700" font-style="" opacity="1" y="13.7" transform="rotate(0)"><tspan id="SvgjsTspan1146" dy="15" x="45"><tspan id="SvgjsTspan1147" style="text-decoration:;">2020.10.10</tspan></tspan></text></g></g><g id="SvgjsG1148" transform="translate(968,235.75)"><path id="SvgjsPath1149" d="M 0 23C 0 -7.666666666666667 90 -7.666666666666667 90 23C 90 53.666666666666664 0 53.666666666666664 0 23Z" stroke="none" fill-opacity="1" fill="#e5e5e5"></path><g id="SvgjsG1150"><text id="SvgjsText1151" font-family="微软雅黑" text-anchor="middle" font-size="12px" width="70px" fill="#323232" font-weight="700" align="middle" anchor="middle" family="微软雅黑" size="12px" weight="700" font-style="" opacity="1" y="13.7" transform="rotate(0)"><tspan id="SvgjsTspan1152" dy="15" x="45"><tspan id="SvgjsTspan1153" style="text-decoration:;font-size: inherit;">2020.10.10</tspan></tspan></text></g></g><g id="SvgjsG1154"><path id="SvgjsPath1155" d="M615 281.75L615 348.75L689 348.75" stroke-dasharray="8,5" stroke="#ffffff" stroke-width="1" fill="none"></path></g><g id="SvgjsG1156"><path id="SvgjsPath1157" d="M617.0000000000001 229.93654970760235L617.0000000000001 216.34327485380118L617.0000000000001 216.34327485380118L617.0000000000001 202.75" stroke-dasharray="8,5" stroke="#ffffff" stroke-width="1" fill="none"></path></g><g id="SvgjsG1158"><path id="SvgjsPath1159" d="M1012.1076653013458 281.75L1012.1076653013458 695.75L1010.065535400819 695.75" stroke-dasharray="8,5" stroke="#ffffff" stroke-width="1" fill="none"></path></g><g id="SvgjsG1160"><path id="SvgjsPath1161" d="M482 235.75L482 219L482 219L482 202.75" stroke-dasharray="8,5" stroke="#ffffff" stroke-width="1" fill="none"></path></g><g id="SvgjsG1162"><path id="SvgjsPath1163" d="M1013 235.75L1013 219L1013 219L1013 202.75" stroke-dasharray="8,5" stroke="#ffffff" stroke-width="1" fill="none"></path></g><g id="SvgjsG1164" transform="translate(59.94338794616738,31.75)"><path id="SvgjsPath1165" d="M 0 0L 480.07606787595086 0L 480.07606787595086 46L 0 46Z" stroke="none" fill="none"></path><g id="SvgjsG1166"><text id="SvgjsText1167" font-family="微软雅黑" text-anchor="start" font-size="30px" width="481px" fill="#1a1a1a" font-weight="700" align="middle" anchor="start" family="微软雅黑" size="30px" weight="700" font-style="" opacity="1" y="-2.5" transform="rotate(0)"><tspan id="SvgjsTspan1168" dy="37" x="0"><tspan id="SvgjsTspan1169" style="text-decoration:;">  开发报建部抢报建阶段标准工期</tspan></tspan></text></g></g><g id="SvgjsG1170" transform="translate(35,235.75)"><path id="SvgjsPath1171" d="M 0 23C 0 -7.666666666666667 64 -7.666666666666667 64 23C 64 53.666666666666664 0 53.666666666666664 0 23Z" stroke="none" fill-opacity="1" fill="#e5e5e5"></path><g id="SvgjsG1172"><text id="SvgjsText1173" font-family="微软雅黑" text-anchor="middle" font-size="16px" width="44px" fill="#323232" font-weight="700" align="middle" anchor="middle" family="微软雅黑" size="16px" weight="700" font-style="" opacity="1" y="10.6" transform="rotate(0)"><tspan id="SvgjsTspan1174" dy="20" x="32"><tspan id="SvgjsTspan1175" style="text-decoration:;">计划</tspan></tspan></text></g></g><g id="SvgjsG1176"><path id="SvgjsPath1177" d="M749 281.75L749 310.25L749 310.25L749 587.75L749 587.75" stroke-dasharray="8,5" stroke="#ffffff" stroke-width="1" fill="none"></path></g><g id="SvgjsG1178"><path id="SvgjsPath1179" d="M749 235.75L749 219L749 219L749 202.75" stroke-dasharray="8,5" stroke="#ffffff" stroke-width="1" fill="none"></path></g><g id="SvgjsG1180"><path id="SvgjsPath1181" d="M883 281.75L883 639.611754385965L881.664350497367 639.611754385965" stroke-dasharray="8,5" stroke="#ffffff" stroke-width="1" fill="none"></path></g><g id="SvgjsG1182"><path id="SvgjsPath1183" d="M883 235.75L883 219L883 219L883 202.75" stroke-dasharray="8,5" stroke="#ffffff" stroke-width="1" fill="none"></path></g><g id="SvgjsG1184" transform="translate(838,235.75)"><path id="SvgjsPath1185" d="M 0 23C 0 -7.666666666666667 90 -7.666666666666667 90 23C 90 53.666666666666664 0 53.666666666666664 0 23Z" stroke="none" fill-opacity="1" fill="#e5e5e5"></path><g id="SvgjsG1186"><text id="SvgjsText1187" font-family="微软雅黑" text-anchor="middle" font-size="12px" width="70px" fill="#323232" font-weight="700" align="middle" anchor="middle" family="微软雅黑" size="12px" weight="700" font-style="" opacity="1" y="13.7" transform="rotate(0)"><tspan id="SvgjsTspan1188" dy="15" x="45"><tspan id="SvgjsTspan1189" style="text-decoration:;font-size: inherit;">2020.10.10</tspan></tspan></text></g></g><g id="SvgjsG1190"><path id="SvgjsPath1191" d="M482 281.75L482 639.611754385965L484.68695143358696 639.611754385965" stroke-dasharray="8,5" stroke="#ffffff" stroke-width="1" fill="none"></path></g><g id="SvgjsG1192" transform="translate(57.258630778232884,564.75)"><path id="SvgjsPath1193" d="M 0 0L 668.7413692217672 0L 691.7413692217672 23L 668.7413692217672 46L 0 46L 0 0Z" stroke="none" fill-opacity="1" fill="#ccffff"></path><g id="SvgjsG1194"><text id="SvgjsText1195" font-family="微软雅黑" text-anchor="middle" font-size="18px" width="535px" fill="#323232" font-weight="700" align="middle" anchor="middle" family="微软雅黑" size="18px" weight="700" font-style="" opacity="1" y="9.8" transform="rotate(0)"><tspan id="SvgjsTspan1196" dy="22" x="336.67413692217673"><tspan id="SvgjsTspan1197" style="text-decoration:;">施工证阶段</tspan></tspan></text></g></g><g id="SvgjsG1198" transform="translate(57.258630778232884,509.32754385964904)"><path id="SvgjsPath1199" d="M 0 0L 532.0321825629023 0L 555.0321825629023 23L 532.0321825629023 46L 0 46L 0 0Z" stroke="none" fill-opacity="1" fill="#ffffcc"></path><g id="SvgjsG1200"><text id="SvgjsText1201" font-family="微软雅黑" text-anchor="middle" font-size="18px" width="426px" fill="#323232" font-weight="700" align="middle" anchor="middle" family="微软雅黑" size="18px" weight="700" font-style="" opacity="1" y="9.8" transform="rotate(0)"><tspan id="SvgjsTspan1202" dy="22" x="268.5032182562902"><tspan id="SvgjsTspan1203" style="text-decoration:;">规证阶段</tspan></tspan></text></g></g><g id="SvgjsG1204" transform="translate(223.25,91.75)"><path id="SvgjsPath1205" d="M 0 0L 783.5 0L 783.5 46L 0 46Z" stroke="none" fill-opacity="1" fill="#009999"></path><g id="SvgjsG1206"><text id="SvgjsText1207" font-family="微软雅黑" text-anchor="middle" font-size="20px" width="764px" fill="#ffffff" font-weight="700" align="middle" anchor="middle" family="微软雅黑" size="20px" weight="700" font-style="" opacity="1" y="7.5" transform="rotate(0)"><tspan id="SvgjsTspan1208" dy="25" x="392"><tspan id="SvgjsTspan1209" style="text-decoration:;">项目名称：测试 拿地时间：2010.10.10 是否社会投资：空</tspan></tspan></text></g></g><g id="SvgjsG1210" transform="translate(1199,474.82754385964904)"><path id="SvgjsPath1211" d="M 0 0L 200 0L 200 45L 0 45Z" stroke="none" fill-opacity="1" fill="#cce5ff"></path><g id="SvgjsG1212"><text id="SvgjsText1213" font-family="微软雅黑" text-anchor="middle" font-size="16px" width="180px" fill="#000000" font-weight="700" align="middle" anchor="middle" family="微软雅黑" size="16px" weight="700" font-style="" opacity="1" y="10.1" transform="rotate(0)"><tspan id="SvgjsTspan1214" dy="20" x="100"><tspan id="SvgjsTspan1215" style="text-decoration:;">创建项目查看标准工期</tspan></tspan></text></g></g><g id="SvgjsG1216" transform="translate(146.25,156.75)"><path id="SvgjsPath1217" d="M 0 0L 139.5 0L 139.5 46L 0 46Z" stroke="none" fill-opacity="1" fill="#ffcccc"></path><g id="SvgjsG1218"><text id="SvgjsText1219" font-family="微软雅黑" text-anchor="middle" font-size="16px" width="120px" fill="#323232" font-weight="700" align="middle" anchor="middle" family="微软雅黑" size="16px" weight="700" font-style="" opacity="1" y="0.6000000000000001" transform="rotate(0)"><tspan id="SvgjsTspan1220" dy="20" x="70"><tspan id="SvgjsTspan1221" style="text-decoration:;">不动产权证书</tspan></tspan><tspan id="SvgjsTspan1222" dy="20" x="70"><tspan id="SvgjsTspan1223" style="text-decoration:;">（地上）</tspan></tspan></text></g></g><g id="SvgjsG1224" transform="translate(547.5,156.75)"><path id="SvgjsPath1225" d="M 0 0L 135 0L 135 46L 0 46Z" stroke="none" fill-opacity="1" fill="#ffffcc"></path><g id="SvgjsG1226"><text id="SvgjsText1227" font-family="微软雅黑" text-anchor="middle" font-size="16px" width="115px" fill="#323232" font-weight="700" align="middle" anchor="middle" family="微软雅黑" size="16px" weight="700" font-style="" opacity="1" y="10.6" transform="rotate(0)"><tspan id="SvgjsTspan1228" dy="20" x="67.5"><tspan id="SvgjsTspan1229" style="text-decoration:;">规划许可证</tspan></tspan></text></g></g><g id="SvgjsG1230" transform="translate(815.5,156.75)"><path id="SvgjsPath1231" d="M 0 0L 135 0L 135 46L 0 46Z" stroke="none" fill-opacity="1" fill="#ccffff"></path><g id="SvgjsG1232"><text id="SvgjsText1233" font-family="微软雅黑" text-anchor="middle" font-size="16px" width="115px" fill="#323232" font-weight="700" align="middle" anchor="middle" family="微软雅黑" size="16px" weight="700" font-style="" opacity="1" y="0.6000000000000001" transform="rotate(0)"><tspan id="SvgjsTspan1234" dy="20" x="67.5"><tspan id="SvgjsTspan1235" style="text-decoration:;">不动产权证书</tspan></tspan><tspan id="SvgjsTspan1236" dy="20" x="67.5"><tspan id="SvgjsTspan1237" style="text-decoration:;">（地下、抵押）</tspan></tspan></text></g></g><g id="SvgjsG1238" transform="translate(945.5,156.75)"><path id="SvgjsPath1239" d="M 0 0L 135 0L 135 46L 0 46Z" stroke="none" fill-opacity="1" fill="#cce5ff"></path><g id="SvgjsG1240"><text id="SvgjsText1241" font-family="微软雅黑" text-anchor="middle" font-size="16px" width="115px" fill="#323232" font-weight="700" align="middle" anchor="middle" family="微软雅黑" size="16px" weight="700" font-style="" opacity="1" y="10.6" transform="rotate(0)"><tspan id="SvgjsTspan1242" dy="20" x="67.5"><tspan id="SvgjsTspan1243" style="text-decoration:;">预售许可证</tspan></tspan></text></g></g><g id="SvgjsG1244" transform="translate(414.5,156.75)"><path id="SvgjsPath1245" d="M 0 0L 135 0L 135 46L 0 46Z" stroke="none" fill-opacity="1" fill="#ffffcc"></path><g id="SvgjsG1246"><text id="SvgjsText1247" font-family="微软雅黑" text-anchor="middle" font-size="17px" width="115px" fill="#323232" font-weight="700" align="middle" anchor="middle" family="微软雅黑" size="17px" weight="700" font-style="" opacity="1" y="-0.5499999999999998" transform="rotate(0)"><tspan id="SvgjsTspan1248" dy="21" x="67.5"><tspan id="SvgjsTspan1249" style="text-decoration:;">多规合一</tspan></tspan><tspan id="SvgjsTspan1250" dy="21" x="67.5"><tspan id="SvgjsTspan1251" style="text-decoration:;">会商意见</tspan></tspan></text></g></g><g id="SvgjsG1252" transform="translate(681.5,156.75)"><path id="SvgjsPath1253" d="M 0 0L 135 0L 135 46L 0 46Z" stroke="none" fill-opacity="1" fill="#e6ffcc"></path><g id="SvgjsG1254"><text id="SvgjsText1255" font-family="微软雅黑" text-anchor="middle" font-size="16px" width="115px" fill="#323232" font-weight="700" align="middle" anchor="middle" family="微软雅黑" size="16px" weight="700" font-style="" opacity="1" y="0.6000000000000001" transform="rotate(0)"><tspan id="SvgjsTspan1256" dy="20" x="67.5"><tspan id="SvgjsTspan1257" style="text-decoration:;">建筑工程</tspan></tspan><tspan id="SvgjsTspan1258" dy="20" x="67.5"><tspan id="SvgjsTspan1259" style="text-decoration:;">施工许可证</tspan></tspan></text></g></g><g id="SvgjsG1260" transform="translate(284.5,156.75)"><path id="SvgjsPath1261" d="M 0 0L 135 0L 135 46L 0 46Z" stroke="none" fill-opacity="1" fill="#ffe6cc"></path><g id="SvgjsG1262"><text id="SvgjsText1263" font-family="微软雅黑" text-anchor="middle" font-size="16px" width="115px" fill="#323232" font-weight="700" align="middle" anchor="middle" family="微软雅黑" size="16px" weight="700" font-style="" opacity="1" y="10.6" transform="rotate(0)"><tspan id="SvgjsTspan1264" dy="20" x="67.5"><tspan id="SvgjsTspan1265" style="text-decoration:;">立项批复</tspan></tspan></text></g></g><g id="SvgjsG1266" transform="translate(25,31.75)"><path id="SvgjsPath1267" d="M 0 0L 44 0L 44 46L 0 46Z" stroke="none" fill="url(#SvgjsPattern1268)"></path></g><g id="SvgjsG1270" transform="translate(741,332.75)"><path id="SvgjsPath1271" d="M 0 0L 76 0L 76 32L 0 32Z" stroke="none" fill="none"></path><g id="SvgjsG1272"><text id="SvgjsText1273" font-family="微软雅黑" text-anchor="middle" font-size="13px" width="76px" fill="#323232" font-weight="400" align="middle" anchor="middle" family="微软雅黑" size="13px" weight="400" font-style="" opacity="1" y="6.05" transform="rotate(0)"><tspan id="SvgjsTspan1274" dy="16" x="38"><tspan id="SvgjsTspan1275" style="text-decoration:;font-size: inherit;">119天</tspan></tspan></text></g></g><g id="SvgjsG1276" transform="translate(992,325.75)"><path id="SvgjsPath1277" d="M 0 0L 108 0L 108 46L 0 46Z" stroke="none" fill="none"></path><g id="SvgjsG1278"><text id="SvgjsText1279" font-family="微软雅黑" text-anchor="middle" font-size="13px" width="108px" fill="#323232" font-weight="400" align="middle" anchor="middle" family="微软雅黑" size="13px" weight="400" font-style="" opacity="1" y="13.05" transform="rotate(0)"><tspan id="SvgjsTspan1280" dy="16" x="54"><tspan id="SvgjsTspan1281" style="text-decoration:;font-size: inherit;">150天</tspan></tspan></text></g></g><g id="SvgjsG1282" transform="translate(210,332.75)"><path id="SvgjsPath1283" d="M 0 0L 64 0L 64 32L 0 32Z" stroke="none" fill="none"></path><g id="SvgjsG1284"><text id="SvgjsText1285" font-family="微软雅黑" text-anchor="middle" font-size="13px" width="64px" fill="#323232" font-weight="400" align="middle" anchor="middle" family="微软雅黑" size="13px" weight="400" font-style="" opacity="1" y="6.05" transform="rotate(0)"><tspan id="SvgjsTspan1286" dy="16" x="32"><tspan id="SvgjsTspan1287" style="text-decoration:;font-size: inherit;">60天</tspan></tspan></text></g></g><g id="SvgjsG1288" transform="translate(468,332.75)"><path id="SvgjsPath1289" d="M 0 0L 64 0L 64 32L 0 32Z" stroke="none" fill="none"></path><g id="SvgjsG1290"><text id="SvgjsText1291" font-family="微软雅黑" text-anchor="middle" font-size="13px" width="64px" fill="#323232" font-weight="400" align="middle" anchor="middle" family="微软雅黑" size="13px" weight="400" font-style="" opacity="1" y="6.05" transform="rotate(0)"><tspan id="SvgjsTspan1292" dy="16" x="32"><tspan id="SvgjsTspan1293" style="text-decoration:;font-size: inherit;">85天</tspan></tspan></text></g></g><g id="SvgjsG1294" transform="translate(473,339.75)"><path id="SvgjsPath1295" d="M 0 9C 0 -3 18 -3 18 9C 18 21 0 21 0 9Z" stroke="none" fill-opacity="1" fill="#ffffcc"></path><g id="SvgjsG1296"><text id="SvgjsText1297" font-family="微软雅黑" text-anchor="middle" font-size="13px" width="0" fill="#323232" font-weight="400" align="middle" anchor="middle" family="微软雅黑" size="13px" weight="400" font-style="" opacity="1" y="-0.95" transform="rotate(0)"></text></g></g><g id="SvgjsG1298" transform="translate(348,332.75)"><path id="SvgjsPath1299" d="M 0 0L 64 0L 64 32L 0 32Z" stroke="none" fill="none"></path><g id="SvgjsG1300"><text id="SvgjsText1301" font-family="微软雅黑" text-anchor="middle" font-size="13px" width="64px" fill="#323232" font-weight="400" align="middle" anchor="middle" family="微软雅黑" size="13px" weight="400" font-style="" opacity="1" y="6.05" transform="rotate(0)"><tspan id="SvgjsTspan1302" dy="16" x="32"><tspan id="SvgjsTspan1303" style="text-decoration:;font-size: inherit;">70天</tspan></tspan></text></g></g><g id="SvgjsG1304" transform="translate(859,325.75)"><path id="SvgjsPath1305" d="M 0 0L 108 0L 108 46L 0 46Z" stroke="none" fill="none"></path><g id="SvgjsG1306"><text id="SvgjsText1307" font-family="微软雅黑" text-anchor="middle" font-size="13px" width="108px" fill="#323232" font-weight="400" align="middle" anchor="middle" family="微软雅黑" size="13px" weight="400" font-style="" opacity="1" y="13.05" transform="rotate(0)"><tspan id="SvgjsTspan1308" dy="16" x="54"><tspan id="SvgjsTspan1309" style="text-decoration:;font-size: inherit;">125天</tspan></tspan></text></g></g><g id="SvgjsG1310" transform="translate(616,332.75)"><path id="SvgjsPath1311" d="M 0 0L 44 0L 44 32L 0 32Z" stroke="none" fill="none"></path><g id="SvgjsG1312"><text id="SvgjsText1313" font-family="微软雅黑" text-anchor="middle" font-size="13px" width="44px" fill="#323232" font-weight="400" align="middle" anchor="middle" family="微软雅黑" size="13px" weight="400" font-style="" opacity="1" y="6.05" transform="rotate(0)"><tspan id="SvgjsTspan1314" dy="16" x="22"><tspan id="SvgjsTspan1315" style="text-decoration:;font-size: inherit;">95天</tspan></tspan></text></g></g><g id="SvgjsG1316" transform="translate(343,339.75)"><path id="SvgjsPath1317" d="M 0 9C 0 -3 18 -3 18 9C 18 21 0 21 0 9Z" stroke="none" fill-opacity="1" fill="#ffe6cc"></path><g id="SvgjsG1318"><text id="SvgjsText1319" font-family="微软雅黑" text-anchor="middle" font-size="13px" width="0" fill="#323232" font-weight="400" align="middle" anchor="middle" family="微软雅黑" size="13px" weight="400" font-style="" opacity="1" y="-0.95" transform="rotate(0)"></text></g></g><g id="SvgjsG1320" transform="translate(606,339.75)"><path id="SvgjsPath1321" d="M 0 9C 0 -3 18 -3 18 9C 18 21 0 21 0 9Z" stroke-dasharray="10,6" stroke="rgba(229,229,229,1)" stroke-width="1" fill-opacity="1" fill="#ffffcc"></path><g id="SvgjsG1322"><text id="SvgjsText1323" font-family="微软雅黑" text-anchor="middle" font-size="13px" width="0" fill="#323232" font-weight="400" align="middle" anchor="middle" family="微软雅黑" size="13px" weight="400" font-style="" opacity="1" y="-0.95" transform="rotate(0)"></text></g></g><g id="SvgjsG1324" transform="translate(1013,339.75)"><path id="SvgjsPath1325" d="M 0 9C 0 -3 18 -3 18 9C 18 21 0 21 0 9Z" stroke="none" fill-opacity="1" fill="#cce5ff"></path><g id="SvgjsG1326"><text id="SvgjsText1327" font-family="微软雅黑" text-anchor="middle" font-size="13px" width="0" fill="#323232" font-weight="400" align="middle" anchor="middle" family="微软雅黑" size="13px" weight="400" font-style="" opacity="1" y="-0.95" transform="rotate(0)"></text></g></g><g id="SvgjsG1328" transform="translate(874,339.75)"><path id="SvgjsPath1329" d="M 0 9C 0 -3 18 -3 18 9C 18 21 0 21 0 9Z" stroke="none" fill-opacity="1" fill="#ccffff"></path><g id="SvgjsG1330"><text id="SvgjsText1331" font-family="微软雅黑" text-anchor="middle" font-size="13px" width="0" fill="#323232" font-weight="400" align="middle" anchor="middle" family="微软雅黑" size="13px" weight="400" font-style="" opacity="1" y="-0.95" transform="rotate(0)"></text></g></g><g id="SvgjsG1332" transform="translate(740,339.75)"><path id="SvgjsPath1333" d="M 0 9C 0 -3 18 -3 18 9C 18 21 0 21 0 9Z" stroke="none" fill-opacity="1" fill="#e6ffcc"></path><g id="SvgjsG1334"><text id="SvgjsText1335" font-family="微软雅黑" text-anchor="middle" font-size="13px" width="0" fill="#323232" font-weight="400" align="middle" anchor="middle" family="微软雅黑" size="13px" weight="400" font-style="" opacity="1" y="-0.95" transform="rotate(0)"></text></g></g><g id="SvgjsG1336" transform="translate(207,339.75)"><path id="SvgjsPath1337" d="M 0 9C 0 -3 18 -3 18 9C 18 21 0 21 0 9Z" stroke="none" fill-opacity="1" fill="#ffcccc"></path><g id="SvgjsG1338"><text id="SvgjsText1339" font-family="微软雅黑" text-anchor="middle" font-size="13px" width="0" fill="#323232" font-weight="400" align="middle" anchor="middle" family="微软雅黑" size="13px" weight="400" font-style="" opacity="1" y="-0.95" transform="rotate(0)"></text></g></g><g id="SvgjsG1340" transform="translate(59.5,325.75)"><path id="SvgjsPath1341" d="M 0 0L 1088 0L 1111 23L 1088 46L 0 46L 0 0Z" stroke="none" fill-opacity="1" fill="#006666"></path><g id="SvgjsG1342"><text id="SvgjsText1343" font-family="微软雅黑" text-anchor="middle" font-size="13px" width="871px" fill="#cdcdcd" font-weight="400" align="middle" anchor="middle" family="微软雅黑" size="13px" weight="400" font-style="" opacity="1" y="14.05" transform="rotate(0)"></text></g></g><g id="SvgjsG1344" transform="translate(171,325.75)"><path id="SvgjsPath1345" d="M 0 23C 0 -7.666666666666667 90 -7.666666666666667 90 23C 90 53.666666666666664 0 53.666666666666664 0 23Z" stroke="none" fill-opacity="1" fill="#e5e5e5"></path><g id="SvgjsG1346">
<text id="SvgjsText1347" font-family="微软雅黑" text-anchor="middle" font-size="12px" width="70px" fill="#009900" font-weight="700" align="middle" anchor="middle" family="微软雅黑" size="12px" weight="700" font-style="" opacity="1" y="6.2" transform="rotate(0)">
<tspan id="SvgjsTspan1348" dy="15" x="45"><tspan id="SvgjsTspan1349" style="text-decoration:;">2010.10.10</tspan></tspan>
<tspan id="SvgjsTspan1350" dy="15" x="45">
<tspan id="SvgjsTspan1351" style="text-decoration:;font-size: inherit;" display='none'>提前  天</tspan>
</tspan>
</text></g></g><g id="SvgjsG1352" transform="translate(307,325.75)"><path id="SvgjsPath1353" d="M 0 23C 0 -7.666666666666667 90 -7.666666666666667 90 23C 90 53.666666666666664 0 53.666666666666664 0 23Z" stroke="none" fill-opacity="1" fill="#e5e5e5"></path><g id="SvgjsG1354"><text id="SvgjsText1355" font-family="微软雅黑" text-anchor="middle" font-size="12px" width="70px" fill="#323232" font-weight="700" align="middle" anchor="middle" family="微软雅黑" size="12px" weight="700" font-style="" opacity="1" y="13.7" transform="rotate(0)"><tspan id="SvgjsTspan1356" dy="15" x="45"><tspan id="SvgjsTspan1357" style="text-decoration:;">2010.10.10</tspan></tspan></text></g></g><g id="SvgjsG1358" transform="translate(437,325.75)"><path id="SvgjsPath1359" d="M 0 23C 0 -7.666666666666667 90 -7.666666666666667 90 23C 90 53.666666666666664 0 53.666666666666664 0 23Z" stroke="none" fill-opacity="1" fill="#e5e5e5"></path><g id="SvgjsG1360"><text id="SvgjsText1361" font-family="微软雅黑" text-anchor="middle" font-size="12px" width="70px" fill="#323232" font-weight="700" align="middle" anchor="middle" family="微软雅黑" size="12px" weight="700" font-style="" opacity="1" y="13.7" transform="rotate(0)"><tspan id="SvgjsTspan1362" dy="15" x="45"><tspan id="SvgjsTspan1363" style="text-decoration:;">2010.10.10</tspan></tspan></text></g></g><g id="SvgjsG1364" transform="translate(570,325.75)"><path id="SvgjsPath1365" d="M 0 23C 0 -7.666666666666667 90 -7.666666666666667 90 23C 90 53.666666666666664 0 53.666666666666664 0 23Z" stroke="none" fill-opacity="1" fill="#e5e5e5"></path><g id="SvgjsG1366"><text id="SvgjsText1367" font-family="微软雅黑" text-anchor="middle" font-size="12px" width="70px" fill="#323232" font-weight="700" align="middle" anchor="middle" family="微软雅黑" size="12px" weight="700" font-style="" opacity="1" y="13.7" transform="rotate(0)"><tspan id="SvgjsTspan1368" dy="15" x="45"><tspan id="SvgjsTspan1369" style="text-decoration:;">2010.10.10</tspan></tspan></text></g></g><g id="SvgjsG1370" transform="translate(704,325.75)"><path id="SvgjsPath1371" d="M 0 23C 0 -7.666666666666667 90 -7.666666666666667 90 23C 90 53.666666666666664 0 53.666666666666664 0 23Z" stroke="none" fill-opacity="1" fill="#e5e5e5"></path><g id="SvgjsG1372"><text id="SvgjsText1373" font-family="微软雅黑" text-anchor="middle" font-size="12px" width="70px" fill="#323232" font-weight="700" align="middle" anchor="middle" family="微软雅黑" size="12px" weight="700" font-style="" opacity="1" y="13.7" transform="rotate(0)"><tspan id="SvgjsTspan1374" dy="15" x="45"><tspan id="SvgjsTspan1375" style="text-decoration:;">2020.10.10</tspan></tspan></text></g></g><g id="SvgjsG1376" transform="translate(968,325.75)"><path id="SvgjsPath1377" d="M 0 23C 0 -7.666666666666667 90 -7.666666666666667 90 23C 90 53.666666666666664 0 53.666666666666664 0 23Z" stroke="none" fill-opacity="1" fill="#e5e5e5"></path><g id="SvgjsG1378"><text id="SvgjsText1379" font-family="微软雅黑" text-anchor="middle" font-size="12px" width="70px" fill="#323232" font-weight="700" align="middle" anchor="middle" family="微软雅黑" size="12px" weight="700" font-style="" opacity="1" y="13.7" transform="rotate(0)"><tspan id="SvgjsTspan1380" dy="15" x="45"><tspan id="SvgjsTspan1381" style="text-decoration:;font-size: inherit;">2020.10.10</tspan></tspan></text></g></g><g id="SvgjsG1382" transform="translate(35,325.75)"><path id="SvgjsPath1383" d="M 0 23C 0 -7.666666666666667 64 -7.666666666666667 64 23C 64 53.666666666666664 0 53.666666666666664 0 23Z" stroke="none" fill-opacity="1" fill="#e5e5e5"></path><g id="SvgjsG1384"><text id="SvgjsText1385" font-family="微软雅黑" text-anchor="middle" font-size="16px" width="44px" fill="#323232" font-weight="700" align="middle" anchor="middle" family="微软雅黑" size="16px" weight="700" font-style="" opacity="1" y="10.6" transform="rotate(0)"><tspan id="SvgjsTspan1386" dy="20" x="32"><tspan id="SvgjsTspan1387" style="text-decoration:;">实际</tspan></tspan></text></g></g><g id="SvgjsG1388" transform="translate(838,325.75)"><path id="SvgjsPath1389" d="M 0 23C 0 -7.666666666666667 90 -7.666666666666667 90 23C 90 53.666666666666664 0 53.666666666666664 0 23Z" stroke="none" fill-opacity="1" fill="#e5e5e5"></path><g id="SvgjsG1390"><text id="SvgjsText1391" font-family="微软雅黑" text-anchor="middle" font-size="12px" width="70px" fill="#323232" font-weight="700" align="middle" anchor="middle" family="微软雅黑" size="12px" weight="700" font-style="" opacity="1" y="13.7" transform="rotate(0)"><tspan id="SvgjsTspan1392" dy="15" x="45"><tspan id="SvgjsTspan1393" style="text-decoration:;font-size: inherit;">2020.10.10</tspan></tspan></text></g></g><g id="SvgjsG1394" transform="translate(1199,551.827543859649)"><path id="SvgjsPath1395" d="M 0 0L 200 0L 200 45L 0 45Z" stroke="none" fill-opacity="1" fill="#cce5ff"></path><g id="SvgjsG1396"><text id="SvgjsText1397" font-family="微软雅黑" text-anchor="middle" font-size="16px" width="180px" fill="#000000" font-weight="700" align="middle" anchor="middle" family="微软雅黑" size="16px" weight="700" font-style="" opacity="1" y="10.1" transform="rotate(0)"><tspan id="SvgjsTspan1398" dy="20" x="100"><tspan id="SvgjsTspan1399" style="text-decoration:;">重新选择项目</tspan></tspan></text></g></g><g id="SvgjsG1400" transform="translate(1199,625.827543859649)"><path id="SvgjsPath1401" d="M 0 0L 200 0L 200 45L 0 45Z" stroke="none" fill-opacity="1" fill="#cce5ff"></path><g id="SvgjsG1402"><text id="SvgjsText1403" font-family="微软雅黑" text-anchor="middle" font-size="16px" width="180px" fill="#000000" font-weight="700" align="middle" anchor="middle" family="微软雅黑" size="16px" weight="700" font-style="" opacity="1" y="10.1" transform="rotate(0)"><tspan id="SvgjsTspan1404" dy="20" x="100"><tspan id="SvgjsTspan1405" style="text-decoration:;">返回标准工期页面</tspan></tspan></text></g></g><g id="SvgjsG1406" transform="translate(1199,393.82754385964904)"><path id="SvgjsPath1407" d="M 0 0L 200 0L 200 45L 0 45Z" stroke="none" fill-opacity="1" fill="#cce5ff"></path><g id="SvgjsG1408"><text id="SvgjsText1409" font-family="微软雅黑" text-anchor="middle" font-size="16px" width="180px" fill="#000000" font-weight="700" align="middle" anchor="middle" family="微软雅黑" size="16px" weight="700" font-style="" opacity="1" y="10.1" transform="rotate(0)"><tspan id="SvgjsTspan1410" dy="20" x="100"><tspan id="SvgjsTspan1411" style="text-decoration:;">输入项目已获取证照</tspan></tspan></text></g></g><g id="SvgjsG1412" transform="translate(1295,25)"><path id="SvgjsPath1413" d="M 0 0L 60 0L 60 59.5L 0 59.5Z" stroke="none" fill="url(#SvgjsPattern1414)"></path></g><g id="SvgjsG1416" transform="translate(1265,77.75)"><path id="SvgjsPath1417" d="M 0 0L 120 0L 120 40L 0 40Z" stroke="none" fill="none"></path><g id="SvgjsG1418"><text id="SvgjsText1419" font-family="微软雅黑" text-anchor="middle" font-size="13px" width="120px" fill="#323232" font-weight="400" align="middle" anchor="middle" family="微软雅黑" size="13px" weight="400" font-style="" opacity="1" y="10.05" transform="rotate(0)"><tspan id="SvgjsTspan1420" dy="16" x="60"><tspan id="SvgjsTspan1421" style="text-decoration:;">打印</tspan></tspan></text></g></g><g id="SvgjsG1422" transform="translate(689,328.75)"><path id="SvgjsPath1423" d="M 0 0L 120 0L 120 40L 0 40Z" stroke="none" fill="none"></path><g id="SvgjsG1424"><text id="SvgjsText1425" font-family="微软雅黑" text-anchor="middle" font-size="13px" width="120px" fill="#323232" font-weight="400" align="middle" anchor="middle" family="微软雅黑" size="13px" weight="400" font-style="" opacity="1" y="10.05" transform="rotate(0)"><tspan id="SvgjsTspan1426" dy="16" x="60"><tspan id="SvgjsTspan1427" style="text-decoration:;">输入获取时间</tspan></tspan></text></g></g><g id="SvgjsG1428"><path id="SvgjsPath1429" d="M615 371.75L615 532.327543859649L612.2908133411352 532.327543859649" stroke-dasharray="8,5" stroke="#ffffff" stroke-width="1" fill="none"></path></g><g id="SvgjsG1430" transform="translate(156,295.75)"><path id="SvgjsPath1431" d="M 0 0L 120 0L 120 40L 0 40Z" stroke="none" fill="none"></path><g id="SvgjsG1432"><text id="SvgjsText1433" font-family="微软雅黑" text-anchor="middle" font-size="13px" width="120px" fill="#323232" font-weight="700" align="middle" anchor="middle" family="微软雅黑" size="13px" weight="700" font-style="" opacity="1" y="10.05" transform="rotate(0)"><tspan id="SvgjsTspan1434" dy="16" x="60"><tspan id="SvgjsTspan1435" style="text-decoration:;">1提前（延后）  天</tspan></tspan></text></g></g><g id="SvgjsG1436" transform="translate(292,295.75)"><path id="SvgjsPath1437" d="M 0 0L 120 0L 120 40L 0 40Z" stroke="none" fill="none"></path><g id="SvgjsG1438"><text id="SvgjsText1439" font-family="微软雅黑" text-anchor="middle" font-size="13px" width="120px" fill="#323232" font-weight="700" align="middle" anchor="middle" family="微软雅黑" size="13px" weight="700" font-style="" opacity="1" y="10.05" transform="rotate(0)"><tspan id="SvgjsTspan1440" dy="16" x="60"><tspan id="SvgjsTspan1441" style="text-decoration:;">2提前（延后）  天</tspan></tspan></text></g></g><g id="SvgjsG1442" transform="translate(422,295.75)"><path id="SvgjsPath1443" d="M 0 0L 120 0L 120 40L 0 40Z" stroke="none" fill="none"></path><g id="SvgjsG1444"><text id="SvgjsText1445" font-family="微软雅黑" text-anchor="middle" font-size="13px" width="120px" fill="#323232" font-weight="700" align="middle" anchor="middle" family="微软雅黑" size="13px" weight="700" font-style="" opacity="1" y="10.05" transform="rotate(0)"><tspan id="SvgjsTspan1446" dy="16" x="60"><tspan id="SvgjsTspan1447" style="text-decoration:;">3提前（延后）  天</tspan></tspan></text></g></g><g id="SvgjsG1448" transform="translate(555,295.75)"><path id="SvgjsPath1449" d="M 0 0L 120 0L 120 40L 0 40Z" stroke="none" fill="none"></path><g id="SvgjsG1450"><text id="SvgjsText1451" font-family="微软雅黑" text-anchor="middle" font-size="13px" width="120px" fill="#323232" font-weight="700" align="middle" anchor="middle" family="微软雅黑" size="13px" weight="700" font-style="" opacity="1" y="10.05" transform="rotate(0)"><tspan id="SvgjsTspan1452" dy="16" x="60"><tspan id="SvgjsTspan1453" style="text-decoration:;">4提前（延后）  天</tspan></tspan></text></g></g><g id="SvgjsG1454" transform="translate(689,295.75)"><path id="SvgjsPath1455" d="M 0 0L 120 0L 120 40L 0 40Z" stroke="none" fill="none"></path><g id="SvgjsG1456"><text id="SvgjsText1457" font-family="微软雅黑" text-anchor="middle" font-size="13px" width="120px" fill="#323232" font-weight="700" align="middle" anchor="middle" family="微软雅黑" size="13px" weight="700" font-style="" opacity="1" y="10.05" transform="rotate(0)"><tspan id="SvgjsTspan1458" dy="16" x="60"><tspan id="SvgjsTspan1459" style="text-decoration:;">5提前（延后）  天</tspan></tspan></text></g></g><g id="SvgjsG1460" transform="translate(823,295.75)"><path id="SvgjsPath1461" d="M 0 0L 120 0L 120 40L 0 40Z" stroke="none" fill="none"></path><g id="SvgjsG1462"><text id="SvgjsText1463" font-family="微软雅黑" text-anchor="middle" font-size="13px" width="120px" fill="#323232" font-weight="700" align="middle" anchor="middle" family="微软雅黑" size="13px" weight="700" font-style="" opacity="1" y="10.05" transform="rotate(0)"><tspan id="SvgjsTspan1464" dy="16" x="60"><tspan id="SvgjsTspan1465" style="text-decoration:;">6提前（延后）  天</tspan></tspan></text></g></g><g id="SvgjsG1466" transform="translate(953,295.75)"><path id="SvgjsPath1467" d="M 0 0L 120 0L 120 40L 0 40Z" stroke="none" fill="none"></path><g id="SvgjsG1468"><text id="SvgjsText1469" font-family="微软雅黑" text-anchor="middle" font-size="13px" width="120px" fill="#323232" font-weight="700" align="middle" anchor="middle" family="微软雅黑" size="13px" weight="700" font-style="" opacity="1" y="10.05" transform="rotate(0)"><tspan id="SvgjsTspan1470" dy="16" x="60"><tspan id="SvgjsTspan1471" style="text-decoration:;">7提前（延后）  天</tspan></tspan></text></g></g></svg>