<svg id="SvgjsSvg1006" width="1194.953125" height="646" xmlns="http://www.w3.org/2000/svg" version="1.1" xmlns:xlink="http://www.w3.org/1999/xlink" xmlns:svgjs="http://svgjs.com/svgjs"><defs id="SvgjsDefs1007"><pattern id="SvgjsPattern1128" x="0" y="0" width="40" height="43" patternUnits="userSpaceOnUse"><image id="SvgjsImage1129" xlink:href="https://cdn.processon.com/5f9fdadaf346fb11c3d01f5f?e=1604315370&amp;token=trhI0BY8QfVrIGn9nENop6JAc6l5nZuxhjQ62UfM:oGIUkgfusy09pJhTqv4tmXCn6fM=" width="40" height="43" preserveAspectRatio="none" crossOrigin="anonymous" x="0" y="0"></image></pattern><pattern id="SvgjsPattern1224" x="0" y="0" width="60" height="59.5" patternUnits="userSpaceOnUse"><image id="SvgjsImage1225" xlink:href="https://cdn.processon.com/5fed6bdf6376896cfafbe892?e=1609398767&amp;amp;token=trhI0BY8QfVrIGn9nENop6JAc6l5nZuxhjQ62UfM:qJkaw8I751v4NpivNa-wN28wlZM=" width="60" height="59.5" preserveAspectRatio="none" crossOrigin="anonymous" x="0" y="0"></image></pattern></defs><rect id="SvgjsRect1008" width="1194.953125" height="646" fill="#a9b7c0"></rect><g id="SvgjsG1009" transform="translate(740.3485956699824,236)"><path id="SvgjsPath1010" d="M 0 0L 75.84844938560562 0L 75.84844938560562 32L 0 32Z" stroke="none" fill="none"></path><g id="SvgjsG1011"><text id="SvgjsText1012" font-family="微软雅黑" text-anchor="middle" font-size="13px" width="76px" fill="#323232" font-weight="400" align="middle" anchor="middle" family="微软雅黑" size="13px" weight="400" font-style="" opacity="1" y="6.05" transform="rotate(0)"><tspan id="SvgjsTspan1013" dy="16" x="38"><tspan id="SvgjsTspan1014" style="text-decoration:;font-size: inherit;">119天</tspan></tspan></text></g></g><g id="SvgjsG1015" transform="translate(991.3177296664717,229)"><path id="SvgjsPath1016" d="M 0 0L 108 0L 108 46L 0 46Z" stroke="none" fill="none"></path><g id="SvgjsG1017"><text id="SvgjsText1018" font-family="微软雅黑" text-anchor="middle" font-size="13px" width="108px" fill="#323232" font-weight="400" align="middle" anchor="middle" family="微软雅黑" size="13px" weight="400" font-style="" opacity="1" y="13.05" transform="rotate(0)"><tspan id="SvgjsTspan1019" dy="16" x="54"><tspan id="SvgjsTspan1020" style="text-decoration:;font-size: inherit;">150天</tspan></tspan></text></g></g><g id="SvgjsG1021" transform="translate(59.967817437097665,388.5189473684211)"><path id="SvgjsPath1022" d="M 0 0L 168.74136922176717 0L 192.74136922176717 24L 168.74136922176717 48L 0 48L 0 0Z" stroke="none" fill-opacity="1" fill="#ccffff"></path><g id="SvgjsG1023"><text id="SvgjsText1024" font-family="微软雅黑" text-anchor="start" font-size="16px" width="135px" fill="#323232" font-weight="700" align="middle" anchor="start" family="微软雅黑" size="16px" weight="700" font-style="" opacity="1" y="12.6" transform="rotate(0)"><tspan id="SvgjsTspan1025" dy="20" x="19.27413692217672"><tspan id="SvgjsTspan1026" style="text-decoration:;">方案基础数据</tspan></tspan></text></g></g><g id="SvgjsG1027" transform="translate(209.63253364540662,236)"><path id="SvgjsPath1028" d="M 0 0L 63 0L 63 32L 0 32Z" stroke="none" fill="none"></path><g id="SvgjsG1029"><text id="SvgjsText1030" font-family="微软雅黑" text-anchor="middle" font-size="13px" width="63px" fill="#323232" font-weight="400" align="middle" anchor="middle" family="微软雅黑" size="13px" weight="400" font-style="" opacity="1" y="6.05" transform="rotate(0)"><tspan id="SvgjsTspan1031" dy="16" x="31.5"><tspan id="SvgjsTspan1032" style="text-decoration:;font-size: inherit;">60天</tspan></tspan></text></g></g><g id="SvgjsG1033" transform="translate(467.96342890579285,236)"><path id="SvgjsPath1034" d="M 0 0L 63 0L 63 32L 0 32Z" stroke="none" fill="none"></path><g id="SvgjsG1035"><text id="SvgjsText1036" font-family="微软雅黑" text-anchor="middle" font-size="13px" width="63px" fill="#323232" font-weight="400" align="middle" anchor="middle" family="微软雅黑" size="13px" weight="400" font-style="" opacity="1" y="6.05" transform="rotate(0)"><tspan id="SvgjsTspan1037" dy="16" x="31.5"><tspan id="SvgjsTspan1038" style="text-decoration:;font-size: inherit;">85天</tspan></tspan></text></g></g><g id="SvgjsG1039" transform="translate(472,243)"><path id="SvgjsPath1040" d="M 0 9C 0 -3 18 -3 18 9C 18 21 0 21 0 9Z" stroke="none" fill-opacity="1" fill="#ffffcc"></path><g id="SvgjsG1041"><text id="SvgjsText1042" font-family="微软雅黑" text-anchor="middle" font-size="13px" width="0" fill="#323232" font-weight="400" align="middle" anchor="middle" family="微软雅黑" size="13px" weight="400" font-style="" opacity="1" y="-0.95" transform="rotate(0)"></text></g></g><g id="SvgjsG1043" transform="translate(347.9444119368052,236)"><path id="SvgjsPath1044" d="M 0 0L 63 0L 63 32L 0 32Z" stroke="none" fill="none"></path><g id="SvgjsG1045"><text id="SvgjsText1046" font-family="微软雅黑" text-anchor="middle" font-size="13px" width="63px" fill="#323232" font-weight="400" align="middle" anchor="middle" family="微软雅黑" size="13px" weight="400" font-style="" opacity="1" y="6.05" transform="rotate(0)"><tspan id="SvgjsTspan1047" dy="16" x="31.5"><tspan id="SvgjsTspan1048" style="text-decoration:;font-size: inherit;">70天</tspan></tspan></text></g></g><g id="SvgjsG1049" transform="translate(858.3598595669982,229)"><path id="SvgjsPath1050" d="M 0 0L 108 0L 108 46L 0 46Z" stroke="none" fill="none"></path><g id="SvgjsG1051"><text id="SvgjsText1052" font-family="微软雅黑" text-anchor="middle" font-size="13px" width="108px" fill="#323232" font-weight="400" align="middle" anchor="middle" family="微软雅黑" size="13px" weight="400" font-style="" opacity="1" y="13.05" transform="rotate(0)"><tspan id="SvgjsTspan1053" dy="16" x="54"><tspan id="SvgjsTspan1054" style="text-decoration:;font-size: inherit;">125天</tspan></tspan></text></g></g><g id="SvgjsG1055" transform="translate(615.6448215330603,236)"><path id="SvgjsPath1056" d="M 0 0L 46 0L 46 32L 0 32Z" stroke="none" fill="none"></path><g id="SvgjsG1057"><text id="SvgjsText1058" font-family="微软雅黑" text-anchor="middle" font-size="13px" width="46px" fill="#323232" font-weight="400" align="middle" anchor="middle" family="微软雅黑" size="13px" weight="400" font-style="" opacity="1" y="6.05" transform="rotate(0)"><tspan id="SvgjsTspan1059" dy="16" x="23"><tspan id="SvgjsTspan1060" style="text-decoration:;font-size: inherit;">95天</tspan></tspan></text></g></g><g id="SvgjsG1061" transform="translate(341,243)"><path id="SvgjsPath1062" d="M 0 9C 0 -3 18 -3 18 9C 18 21 0 21 0 9Z" stroke="none" fill-opacity="1" fill="#ffe6cc"></path><g id="SvgjsG1063"><text id="SvgjsText1064" font-family="微软雅黑" text-anchor="middle" font-size="13px" width="0" fill="#323232" font-weight="400" align="middle" anchor="middle" family="微软雅黑" size="13px" weight="400" font-style="" opacity="1" y="-0.95" transform="rotate(0)"></text></g></g><g id="SvgjsG1065" transform="translate(606,243)"><path id="SvgjsPath1066" d="M 0 9C 0 -3 18 -3 18 9C 18 21 0 21 0 9Z" stroke-dasharray="10,6" stroke="rgba(229,229,229,1)" stroke-width="1" fill-opacity="1" fill="#ffffcc"></path><g id="SvgjsG1067"><text id="SvgjsText1068" font-family="微软雅黑" text-anchor="middle" font-size="13px" width="0" fill="#323232" font-weight="400" align="middle" anchor="middle" family="微软雅黑" size="13px" weight="400" font-style="" opacity="1" y="-0.95" transform="rotate(0)"></text></g></g><g id="SvgjsG1069" transform="translate(1012.7337624341721,243)"><path id="SvgjsPath1070" d="M 0 9C 0 -3 18 -3 18 9C 18 21 0 21 0 9Z" stroke="none" fill-opacity="1" fill="#cce5ff"></path><g id="SvgjsG1071"><text id="SvgjsText1072" font-family="微软雅黑" text-anchor="middle" font-size="13px" width="0" fill="#323232" font-weight="400" align="middle" anchor="middle" family="微软雅黑" size="13px" weight="400" font-style="" opacity="1" y="-0.95" transform="rotate(0)"></text></g></g><g id="SvgjsG1073" transform="translate(873,243)"><path id="SvgjsPath1074" d="M 0 9C 0 -3 18 -3 18 9C 18 21 0 21 0 9Z" stroke="none" fill-opacity="1" fill="#ccffff"></path><g id="SvgjsG1075"><text id="SvgjsText1076" font-family="微软雅黑" text-anchor="middle" font-size="13px" width="0" fill="#323232" font-weight="400" align="middle" anchor="middle" family="微软雅黑" size="13px" weight="400" font-style="" opacity="1" y="-0.95" transform="rotate(0)"></text></g></g><g id="SvgjsG1077" transform="translate(740,243)"><path id="SvgjsPath1078" d="M 0 9C 0 -3 18 -3 18 9C 18 21 0 21 0 9Z" stroke="none" fill-opacity="1" fill="#e6ffcc"></path><g id="SvgjsG1079"><text id="SvgjsText1080" font-family="微软雅黑" text-anchor="middle" font-size="13px" width="0" fill="#323232" font-weight="400" align="middle" anchor="middle" family="微软雅黑" size="13px" weight="400" font-style="" opacity="1" y="-0.95" transform="rotate(0)"></text></g></g><g id="SvgjsG1081" transform="translate(207,243)"><path id="SvgjsPath1082" d="M 0 9C 0 -3 18 -3 18 9C 18 21 0 21 0 9Z" stroke="none" fill-opacity="1" fill="#ffcccc"></path><g id="SvgjsG1083"><text id="SvgjsText1084" font-family="微软雅黑" text-anchor="middle" font-size="13px" width="0" fill="#323232" font-weight="400" align="middle" anchor="middle" family="微软雅黑" size="13px" weight="400" font-style="" opacity="1" y="-0.95" transform="rotate(0)"></text></g></g><g id="SvgjsG1085" transform="translate(59.967817437097665,229)"><path id="SvgjsPath1086" d="M 0 0L 1087.0643651258047 0L 1110.0643651258047 23L 1087.0643651258047 46L 0 46L 0 0Z" stroke="none" fill-opacity="1" fill="#009999"></path><g id="SvgjsG1087"><text id="SvgjsText1088" font-family="微软雅黑" text-anchor="middle" font-size="13px" width="870px" fill="#323232" font-weight="400" align="middle" anchor="middle" family="微软雅黑" size="13px" weight="400" font-style="" opacity="1" y="14.05" transform="rotate(0)"></text></g></g><g id="SvgjsG1089" transform="translate(207,229.5)"><path id="SvgjsPath1090" d="M 0 22.5C 0 -7.5 90 -7.5 90 22.5C 90 52.5 0 52.5 0 22.5Z" stroke="none" fill-opacity="1" fill="#e5e5e5"></path><g id="SvgjsG1091"><text id="SvgjsText1092" font-family="微软雅黑" text-anchor="middle" font-size="12px" width="70px" fill="#323232" font-weight="700" align="middle" anchor="middle" family="微软雅黑" size="12px" weight="700" font-style="" opacity="1" y="13.2" transform="rotate(0)"><tspan id="SvgjsTspan1093" dy="15" x="45"><tspan id="SvgjsTspan1094" style="text-decoration:;">11天</tspan></tspan></text></g></g><g id="SvgjsG1095" transform="translate(59.967817437097665,25)"><path id="SvgjsPath1096" d="M 0 0L 551.0321825629023 0L 551.0321825629023 46L 0 46Z" stroke="none" fill="none"></path><g id="SvgjsG1097"><text id="SvgjsText1098" font-family="微软雅黑" text-anchor="start" font-size="30px" width="552px" fill="#1a1a1a" font-weight="700" align="middle" anchor="start" family="微软雅黑" size="30px" weight="700" font-style="" opacity="1" y="-2.5" transform="rotate(0)"><tspan id="SvgjsTspan1099" dy="37" x="0"><tspan id="SvgjsTspan1100" style="text-decoration:;">  开发报建部抢报建阶段标准工期</tspan></tspan></text></g></g><g id="SvgjsG1101" transform="translate(34.82433074897597,229)"><path id="SvgjsPath1102" d="M 0 23C 0 -7.666666666666667 64.17566925102403 -7.666666666666667 64.17566925102403 23C 64.17566925102403 53.666666666666664 0 53.666666666666664 0 23Z" stroke="none" fill-opacity="1" fill="#e5e5e5"></path><g id="SvgjsG1103"><text id="SvgjsText1104" font-family="微软雅黑" text-anchor="middle" font-size="16px" width="45px" fill="#323232" font-weight="700" align="middle" anchor="middle" family="微软雅黑" size="16px" weight="700" font-style="" opacity="1" y="10.6" transform="rotate(0)"><tspan id="SvgjsTspan1105" dy="20" x="32.5"><tspan id="SvgjsTspan1106" style="text-decoration:;">拿地</tspan></tspan></text></g></g><g id="SvgjsG1107" transform="translate(395,229.5)"><path id="SvgjsPath1108" d="M 0 22.5C 0 -7.5 90 -7.5 90 22.5C 90 52.5 0 52.5 0 22.5Z" stroke="none" fill-opacity="1" fill="#e5e5e5"></path><g id="SvgjsG1109"><text id="SvgjsText1110" font-family="微软雅黑" text-anchor="middle" font-size="12px" width="70px" fill="#323232" font-weight="700" align="middle" anchor="middle" family="微软雅黑" size="12px" weight="700" font-style="" opacity="1" y="13.2" transform="rotate(0)"><tspan id="SvgjsTspan1111" dy="15" x="45"><tspan id="SvgjsTspan1112" style="text-decoration:;font-size: inherit;">25天</tspan></tspan></text></g></g><g id="SvgjsG1113" transform="translate(278,123.39368421052632)"><path id="SvgjsPath1114" d="M 0 0L 685 0L 685 46L 0 46Z" stroke="none" fill-opacity="1" fill="#009999"></path><g id="SvgjsG1115"><text id="SvgjsText1116" font-family="微软雅黑" text-anchor="middle" font-size="20px" width="665px" fill="#ffffff" font-weight="700" align="middle" anchor="middle" family="微软雅黑" size="20px" weight="700" font-style="" opacity="1" y="7.5" transform="rotate(0)"><tspan id="SvgjsTspan1117" dy="25" x="342.5"><tspan id="SvgjsTspan1118" style="text-decoration:;">立项</tspan><tspan id="SvgjsTspan1119" style="text-decoration:;font-size: inherit;">阶段</tspan></tspan></text></g></g><g id="SvgjsG1120" transform="translate(196.31955822118192,576)"><path id="SvgjsPath1121" d="M 0 0L 248.25424224692802 0L 248.25424224692802 45L 0 45Z" stroke="none" fill-opacity="1" fill="#009999"></path><g id="SvgjsG1122"><text id="SvgjsText1123" font-family="微软雅黑" text-anchor="middle" font-size="19px" width="229px" fill="#ffffff" font-weight="700" align="middle" anchor="middle" family="微软雅黑" size="19px" weight="700" font-style="" opacity="1" y="7.65" transform="rotate(0)"><tspan id="SvgjsTspan1124" dy="23" x="124.5"><tspan id="SvgjsTspan1125" style="text-decoration:;">返回整体流程页面</tspan></tspan></text></g></g><g id="SvgjsG1126" transform="translate(25,26.5)"><path id="SvgjsPath1127" d="M 0 0L 40 0L 40 43L 0 43Z" stroke="none" fill="url(#SvgjsPattern1128)"></path></g><g id="SvgjsG1130" transform="translate(252.70918665886484,388.5189473684211)"><path id="SvgjsPath1131" d="M 0 0L 167 0L 191 24L 167 48L 0 48L 0 0Z" stroke="none" fill-opacity="1" fill="#ccffff"></path><g id="SvgjsG1132"><text id="SvgjsText1133" font-family="微软雅黑" text-anchor="start" font-size="16px" width="134px" fill="#323232" font-weight="700" align="middle" anchor="start" family="微软雅黑" size="16px" weight="700" font-style="" opacity="1" y="12.6" transform="rotate(0)"><tspan id="SvgjsTspan1134" dy="20" x="19.1"><tspan id="SvgjsTspan1135" style="text-decoration:;">编写立项报告</tspan></tspan></text></g></g><g id="SvgjsG1136" transform="translate(87,232)"><path id="SvgjsPath1137" d="M 0 0L 120 0L 120 40L 0 40Z" stroke="none" fill="none"></path><g id="SvgjsG1138"><text id="SvgjsText1139" font-family="微软雅黑" text-anchor="middle" font-size="13px" width="120px" fill="#ffffff" font-weight="700" align="middle" anchor="middle" family="微软雅黑" size="13px" weight="700" font-style="" opacity="1" y="10.05" transform="rotate(0)"><tspan id="SvgjsTspan1140" dy="16" x="60"><tspan id="SvgjsTspan1141" style="text-decoration:;">10天</tspan></tspan></text></g></g><g id="SvgjsG1142" transform="translate(287.5,232)"><path id="SvgjsPath1143" d="M 0 0L 120 0L 120 40L 0 40Z" stroke="none" fill="none"></path><g id="SvgjsG1144"><text id="SvgjsText1145" font-family="微软雅黑" text-anchor="middle" font-size="13px" width="120px" fill="#ffffff" font-weight="700" align="middle" anchor="middle" family="微软雅黑" size="13px" weight="700" font-style="" opacity="1" y="10.05" transform="rotate(0)"><tspan id="SvgjsTspan1146" dy="16" x="60"><tspan id="SvgjsTspan1147" style="text-decoration:;">14天</tspan></tspan></text></g></g><g id="SvgjsG1148" transform="translate(701,229.5)"><path id="SvgjsPath1149" d="M 0 22.5C 0 -7.5 90 -7.5 90 22.5C 90 52.5 0 52.5 0 22.5Z" stroke="none" fill-opacity="1" fill="#e5e5e5"></path><g id="SvgjsG1150"><text id="SvgjsText1151" font-family="微软雅黑" text-anchor="middle" font-size="12px" width="70px" fill="#323232" font-weight="700" align="middle" anchor="middle" family="微软雅黑" size="12px" weight="700" font-style="" opacity="1" y="13.2" transform="rotate(0)"><tspan id="SvgjsTspan1152" dy="15" x="45"><tspan id="SvgjsTspan1153" style="text-decoration:;font-size: inherit;">45天</tspan></tspan></text></g></g><g id="SvgjsG1154" transform="translate(587.7091866588648,443)"><path id="SvgjsPath1155" d="M 0 0L 134.16666666666666 0L 161 33.75947368421055L 134.16666666666666 67.5189473684211L 0 67.5189473684211L 0 0Z" stroke="none" fill-opacity="1" fill="#ccffff"></path><g id="SvgjsG1156"><text id="SvgjsText1157" font-family="微软雅黑" text-anchor="start" font-size="16px" width="108px" fill="#323232" font-weight="700" align="middle" anchor="start" family="微软雅黑" size="16px" weight="700" font-style="" opacity="1" y="2.3594736842105477" transform="rotate(0)"><tspan id="SvgjsTspan1158" dy="20" x="16.1"><tspan id="SvgjsTspan1159" style="text-decoration:;">区发改初审</tspan></tspan><tspan id="SvgjsTspan1160" dy="20" x="16.1"><tspan id="SvgjsTspan1161" style="text-decoration:;">（10万平米以</tspan></tspan><tspan id="SvgjsTspan1162" dy="20" x="16.1"><tspan id="SvgjsTspan1163" style="text-decoration:;">下批复）</tspan></tspan></text></g></g><g id="SvgjsG1164" transform="translate(881,229.5)"><path id="SvgjsPath1165" d="M 0 22.5C 0 -7.5 90 -7.5 90 22.5C 90 52.5 0 52.5 0 22.5Z" stroke="none" fill-opacity="1" fill="#e5e5e5"></path><g id="SvgjsG1166"><text id="SvgjsText1167" font-family="微软雅黑" text-anchor="middle" font-size="12px" width="70px" fill="#323232" font-weight="700" align="middle" anchor="middle" family="微软雅黑" size="12px" weight="700" font-style="" opacity="1" y="13.2" transform="rotate(0)"><tspan id="SvgjsTspan1168" dy="15" x="45"><tspan id="SvgjsTspan1169" style="text-decoration:;font-size: inherit;">65天</tspan></tspan></text></g></g><g id="SvgjsG1170" transform="translate(748.7091866588648,443)"><path id="SvgjsPath1171" d="M 0 0L 159.16666666666666 0L 191 33.75947368421055L 159.16666666666666 67.5189473684211L 0 67.5189473684211L 0 0Z" stroke="none" fill-opacity="1" fill="#ccffff"></path><g id="SvgjsG1172"><text id="SvgjsText1173" font-family="微软雅黑" text-anchor="start" font-size="16px" width="128px" fill="#323232" font-weight="700" align="middle" anchor="start" family="微软雅黑" size="16px" weight="700" font-style="" opacity="1" y="2.3594736842105477" transform="rotate(0)"><tspan id="SvgjsTspan1174" dy="20" x="19.1"><tspan id="SvgjsTspan1175" style="text-decoration:;">市发改批复</tspan></tspan><tspan id="SvgjsTspan1176" dy="20" x="19.1"><tspan id="SvgjsTspan1177" style="text-decoration:;">（10万平米以</tspan></tspan><tspan id="SvgjsTspan1178" dy="20" x="19.1"><tspan id="SvgjsTspan1179" style="text-decoration:;">上）</tspan></tspan></text></g></g><g id="SvgjsG1180" transform="translate(586,232)"><path id="SvgjsPath1181" d="M 0 0L 120 0L 120 40L 0 40Z" stroke="none" fill="none"></path><g id="SvgjsG1182"><text id="SvgjsText1183" font-family="微软雅黑" text-anchor="middle" font-size="13px" width="120px" fill="#ffffff" font-weight="700" align="middle" anchor="middle" family="微软雅黑" size="13px" weight="700" font-style="" opacity="1" y="10.05" transform="rotate(0)"><tspan id="SvgjsTspan1184" dy="16" x="60"><tspan id="SvgjsTspan1185" style="text-decoration:;">10天</tspan></tspan></text></g></g><g id="SvgjsG1186" transform="translate(773.7337624341721,232)"><path id="SvgjsPath1187" d="M 0 0L 120 0L 120 40L 0 40Z" stroke="none" fill="none"></path><g id="SvgjsG1188"><text id="SvgjsText1189" font-family="微软雅黑" text-anchor="middle" font-size="13px" width="120px" fill="#ffffff" font-weight="700" align="middle" anchor="middle" family="微软雅黑" size="13px" weight="700" font-style="" opacity="1" y="10.05" transform="rotate(0)"><tspan id="SvgjsTspan1190" dy="16" x="60"><tspan id="SvgjsTspan1191" style="text-decoration:;">20天</tspan></tspan></text></g></g><g id="SvgjsG1192" transform="translate(1036.7337624341721,229.5)"><path id="SvgjsPath1193" d="M 0 22.5C 0 -7.5 90 -7.5 90 22.5C 90 52.5 0 52.5 0 22.5Z" stroke="none" fill-opacity="1" fill="#e5e5e5"></path><g id="SvgjsG1194"><text id="SvgjsText1195" font-family="微软雅黑" text-anchor="middle" font-size="12px" width="70px" fill="#323232" font-weight="700" align="middle" anchor="middle" family="微软雅黑" size="12px" weight="700" font-style="" opacity="1" y="13.2" transform="rotate(0)"><tspan id="SvgjsTspan1196" dy="15" x="45"><tspan id="SvgjsTspan1197" style="text-decoration:;font-size: inherit;">70天</tspan></tspan></text></g></g><g id="SvgjsG1198" transform="translate(940.7337624341721,229.5)"><path id="SvgjsPath1199" d="M 0 0L 120 0L 120 40L 0 40Z" stroke="none" fill="none"></path><g id="SvgjsG1200"><text id="SvgjsText1201" font-family="微软雅黑" text-anchor="middle" font-size="13px" width="120px" fill="#ffffff" font-weight="700" align="middle" anchor="middle" family="微软雅黑" size="13px" weight="700" font-style="" opacity="1" y="10.05" transform="rotate(0)"><tspan id="SvgjsTspan1202" dy="16" x="60"><tspan id="SvgjsTspan1203" style="text-decoration:;">5天</tspan></tspan></text></g></g><g id="SvgjsG1204" transform="translate(939.7091866588648,443)"><path id="SvgjsPath1205" d="M 0 0L 127.5 0L 153 33.75947368421055L 127.5 67.5189473684211L 0 67.5189473684211L 0 0Z" stroke="none" fill-opacity="1" fill="#ccffff"></path><g id="SvgjsG1206"><text id="SvgjsText1207" font-family="微软雅黑" text-anchor="start" font-size="16px" width="102px" fill="#323232" font-weight="700" align="middle" anchor="start" family="微软雅黑" size="16px" weight="700" font-style="" opacity="1" y="2.3594736842105477" transform="rotate(0)"><tspan id="SvgjsTspan1208" dy="20" x="15.3"><tspan id="SvgjsTspan1209" style="text-decoration:;">市建委批复</tspan></tspan><tspan id="SvgjsTspan1210" dy="20" x="15.3"><tspan id="SvgjsTspan1211" style="text-decoration:;">（10万平米以</tspan></tspan><tspan id="SvgjsTspan1212" dy="20" x="15.3"><tspan id="SvgjsTspan1213" style="text-decoration:;">上）</tspan></tspan></text></g></g><g id="SvgjsG1214" transform="translate(408.70918665886484,456.75947368421055)"><path id="SvgjsPath1215" d="M 0 0L 172.5 0L 172.5 40L 0 40Z" stroke="none" fill="none"></path><g id="SvgjsG1216"><text id="SvgjsText1217" font-family="微软雅黑" text-anchor="start" font-size="13px" width="173px" fill="#323232" font-weight="700" align="middle" anchor="start" family="微软雅黑" size="13px" weight="700" font-style="" opacity="1" y="2.05" transform="rotate(0)"><tspan id="SvgjsTspan1218" dy="16" x="0"><tspan id="SvgjsTspan1219" style="text-decoration:;">从获取 出让合同补充协议</tspan></tspan><tspan id="SvgjsTspan1220" dy="16" x="0"><tspan id="SvgjsTspan1221" style="text-decoration:;">（主体变更）开始 （35天）</tspan></tspan></text></g></g><g id="SvgjsG1222" transform="translate(1078,30.643684210526317)"><path id="SvgjsPath1223" d="M 0 0L 60 0L 60 59.5L 0 59.5Z" stroke="none" fill="url(#SvgjsPattern1224)"></path></g><g id="SvgjsG1226" transform="translate(1048,83.39368421052632)"><path id="SvgjsPath1227" d="M 0 0L 120 0L 120 40L 0 40Z" stroke="none" fill="none"></path><g id="SvgjsG1228"><text id="SvgjsText1229" font-family="微软雅黑" text-anchor="middle" font-size="13px" width="120px" fill="#323232" font-weight="400" align="middle" anchor="middle" family="微软雅黑" size="13px" weight="400" font-style="" opacity="1" y="10.05" transform="rotate(0)"><tspan id="SvgjsTspan1230" dy="16" x="60"><tspan id="SvgjsTspan1231" style="text-decoration:;">打印</tspan></tspan></text></g></g><g id="SvgjsG1232" transform="translate(740.3485956699825,314)"><path id="SvgjsPath1233" d="M 0 0L 75.84844938560562 0L 75.84844938560562 32L 0 32Z" stroke="none" fill="none"></path><g id="SvgjsG1234"><text id="SvgjsText1235" font-family="微软雅黑" text-anchor="middle" font-size="13px" width="76px" fill="#323232" font-weight="400" align="middle" anchor="middle" family="微软雅黑" size="13px" weight="400" font-style="" opacity="1" y="6.05" transform="rotate(0)"><tspan id="SvgjsTspan1236" dy="16" x="38"><tspan id="SvgjsTspan1237" style="text-decoration:;font-size: inherit;">119天</tspan></tspan></text></g></g><g id="SvgjsG1238" transform="translate(991.3177296664717,307)"><path id="SvgjsPath1239" d="M 0 0L 108 0L 108 46L 0 46Z" stroke="none" fill="none"></path><g id="SvgjsG1240"><text id="SvgjsText1241" font-family="微软雅黑" text-anchor="middle" font-size="13px" width="108px" fill="#323232" font-weight="400" align="middle" anchor="middle" family="微软雅黑" size="13px" weight="400" font-style="" opacity="1" y="13.05" transform="rotate(0)"><tspan id="SvgjsTspan1242" dy="16" x="54"><tspan id="SvgjsTspan1243" style="text-decoration:;font-size: inherit;">150天</tspan></tspan></text></g></g><g id="SvgjsG1244" transform="translate(209.63253364540662,314)"><path id="SvgjsPath1245" d="M 0 0L 63 0L 63 32L 0 32Z" stroke="none" fill="none"></path><g id="SvgjsG1246"><text id="SvgjsText1247" font-family="微软雅黑" text-anchor="middle" font-size="13px" width="63px" fill="#323232" font-weight="400" align="middle" anchor="middle" family="微软雅黑" size="13px" weight="400" font-style="" opacity="1" y="6.05" transform="rotate(0)"><tspan id="SvgjsTspan1248" dy="16" x="31.5"><tspan id="SvgjsTspan1249" style="text-decoration:;font-size: inherit;">60天</tspan></tspan></text></g></g><g id="SvgjsG1250" transform="translate(467.96342890579285,314)"><path id="SvgjsPath1251" d="M 0 0L 63 0L 63 32L 0 32Z" stroke="none" fill="none"></path><g id="SvgjsG1252"><text id="SvgjsText1253" font-family="微软雅黑" text-anchor="middle" font-size="13px" width="63px" fill="#323232" font-weight="400" align="middle" anchor="middle" family="微软雅黑" size="13px" weight="400" font-style="" opacity="1" y="6.05" transform="rotate(0)"><tspan id="SvgjsTspan1254" dy="16" x="31.5"><tspan id="SvgjsTspan1255" style="text-decoration:;font-size: inherit;">85天</tspan></tspan></text></g></g><g id="SvgjsG1256" transform="translate(472,321)"><path id="SvgjsPath1257" d="M 0 9C 0 -3 18 -3 18 9C 18 21 0 21 0 9Z" stroke="none" fill-opacity="1" fill="#ffffcc"></path><g id="SvgjsG1258"><text id="SvgjsText1259" font-family="微软雅黑" text-anchor="middle" font-size="13px" width="0" fill="#323232" font-weight="400" align="middle" anchor="middle" family="微软雅黑" size="13px" weight="400" font-style="" opacity="1" y="-0.95" transform="rotate(0)"></text></g></g><g id="SvgjsG1260" transform="translate(347.9444119368052,314)"><path id="SvgjsPath1261" d="M 0 0L 63 0L 63 32L 0 32Z" stroke="none" fill="none"></path><g id="SvgjsG1262"><text id="SvgjsText1263" font-family="微软雅黑" text-anchor="middle" font-size="13px" width="63px" fill="#323232" font-weight="400" align="middle" anchor="middle" family="微软雅黑" size="13px" weight="400" font-style="" opacity="1" y="6.05" transform="rotate(0)"><tspan id="SvgjsTspan1264" dy="16" x="31.5"><tspan id="SvgjsTspan1265" style="text-decoration:;font-size: inherit;">70天</tspan></tspan></text></g></g><g id="SvgjsG1266" transform="translate(858.3598595669982,307)"><path id="SvgjsPath1267" d="M 0 0L 108 0L 108 46L 0 46Z" stroke="none" fill="none"></path><g id="SvgjsG1268"><text id="SvgjsText1269" font-family="微软雅黑" text-anchor="middle" font-size="13px" width="108px" fill="#323232" font-weight="400" align="middle" anchor="middle" family="微软雅黑" size="13px" weight="400" font-style="" opacity="1" y="13.05" transform="rotate(0)"><tspan id="SvgjsTspan1270" dy="16" x="54"><tspan id="SvgjsTspan1271" style="text-decoration:;font-size: inherit;">125天</tspan></tspan></text></g></g><g id="SvgjsG1272" transform="translate(615.6448215330603,314)"><path id="SvgjsPath1273" d="M 0 0L 46 0L 46 32L 0 32Z" stroke="none" fill="none"></path><g id="SvgjsG1274"><text id="SvgjsText1275" font-family="微软雅黑" text-anchor="middle" font-size="13px" width="46px" fill="#323232" font-weight="400" align="middle" anchor="middle" family="微软雅黑" size="13px" weight="400" font-style="" opacity="1" y="6.05" transform="rotate(0)"><tspan id="SvgjsTspan1276" dy="16" x="23"><tspan id="SvgjsTspan1277" style="text-decoration:;font-size: inherit;">95天</tspan></tspan></text></g></g><g id="SvgjsG1278" transform="translate(341,321)"><path id="SvgjsPath1279" d="M 0 9C 0 -3 18 -3 18 9C 18 21 0 21 0 9Z" stroke="none" fill-opacity="1" fill="#ffe6cc"></path><g id="SvgjsG1280"><text id="SvgjsText1281" font-family="微软雅黑" text-anchor="middle" font-size="13px" width="0" fill="#323232" font-weight="400" align="middle" anchor="middle" family="微软雅黑" size="13px" weight="400" font-style="" opacity="1" y="-0.95" transform="rotate(0)"></text></g></g><g id="SvgjsG1282" transform="translate(606,321)"><path id="SvgjsPath1283" d="M 0 9C 0 -3 18 -3 18 9C 18 21 0 21 0 9Z" stroke-dasharray="10,6" stroke="rgba(229,229,229,1)" stroke-width="1" fill-opacity="1" fill="#ffffcc"></path><g id="SvgjsG1284"><text id="SvgjsText1285" font-family="微软雅黑" text-anchor="middle" font-size="13px" width="0" fill="#323232" font-weight="400" align="middle" anchor="middle" family="微软雅黑" size="13px" weight="400" font-style="" opacity="1" y="-0.95" transform="rotate(0)"></text></g></g><g id="SvgjsG1286" transform="translate(1012.7337624341721,321)"><path id="SvgjsPath1287" d="M 0 9C 0 -3 18 -3 18 9C 18 21 0 21 0 9Z" stroke="none" fill-opacity="1" fill="#cce5ff"></path><g id="SvgjsG1288"><text id="SvgjsText1289" font-family="微软雅黑" text-anchor="middle" font-size="13px" width="0" fill="#323232" font-weight="400" align="middle" anchor="middle" family="微软雅黑" size="13px" weight="400" font-style="" opacity="1" y="-0.95" transform="rotate(0)"></text></g></g><g id="SvgjsG1290" transform="translate(873,321)"><path id="SvgjsPath1291" d="M 0 9C 0 -3 18 -3 18 9C 18 21 0 21 0 9Z" stroke="none" fill-opacity="1" fill="#ccffff"></path><g id="SvgjsG1292"><text id="SvgjsText1293" font-family="微软雅黑" text-anchor="middle" font-size="13px" width="0" fill="#323232" font-weight="400" align="middle" anchor="middle" family="微软雅黑" size="13px" weight="400" font-style="" opacity="1" y="-0.95" transform="rotate(0)"></text></g></g><g id="SvgjsG1294" transform="translate(740.0000000000001,321)"><path id="SvgjsPath1295" d="M 0 9C 0 -3 18 -3 18 9C 18 21 0 21 0 9Z" stroke="none" fill-opacity="1" fill="#e6ffcc"></path><g id="SvgjsG1296"><text id="SvgjsText1297" font-family="微软雅黑" text-anchor="middle" font-size="13px" width="0" fill="#323232" font-weight="400" align="middle" anchor="middle" family="微软雅黑" size="13px" weight="400" font-style="" opacity="1" y="-0.95" transform="rotate(0)"></text></g></g><g id="SvgjsG1298" transform="translate(207,321)"><path id="SvgjsPath1299" d="M 0 9C 0 -3 18 -3 18 9C 18 21 0 21 0 9Z" stroke="none" fill-opacity="1" fill="#ffcccc"></path><g id="SvgjsG1300"><text id="SvgjsText1301" font-family="微软雅黑" text-anchor="middle" font-size="13px" width="0" fill="#323232" font-weight="400" align="middle" anchor="middle" family="微软雅黑" size="13px" weight="400" font-style="" opacity="1" y="-0.95" transform="rotate(0)"></text></g></g><g id="SvgjsG1302" transform="translate(59.967817437097665,307)"><path id="SvgjsPath1303" d="M 0 0L 1087.0643651258047 0L 1110.0643651258047 23L 1087.0643651258047 46L 0 46L 0 0Z" stroke="none" fill-opacity="1" fill="#006666"></path><g id="SvgjsG1304"><text id="SvgjsText1305" font-family="微软雅黑" text-anchor="middle" font-size="13px" width="870px" fill="#323232" font-weight="400" align="middle" anchor="middle" family="微软雅黑" size="13px" weight="400" font-style="" opacity="1" y="14.05" transform="rotate(0)"></text></g></g><g id="SvgjsG1306" transform="translate(207,307.5)"><path id="SvgjsPath1307" d="M 0 22.5C 0 -7.5 90 -7.5 90 22.5C 90 52.5 0 52.5 0 22.5Z" stroke="none" fill-opacity="1" fill="#e5e5e5"></path><g id="SvgjsG1308"><text id="SvgjsText1309" font-family="微软雅黑" text-anchor="middle" font-size="12px" width="70px" fill="#323232" font-weight="700" align="middle" anchor="middle" family="微软雅黑" size="12px" weight="700" font-style="" opacity="1" y="13.2" transform="rotate(0)"><tspan id="SvgjsTspan1310" dy="15" x="45"><tspan id="SvgjsTspan1311" style="text-decoration:;">11天</tspan></tspan></text></g></g><g id="SvgjsG1312" transform="translate(34.82433074897597,307)"><path id="SvgjsPath1313" d="M 0 23C 0 -7.666666666666667 64.17566925102403 -7.666666666666667 64.17566925102403 23C 64.17566925102403 53.666666666666664 0 53.666666666666664 0 23Z" stroke="none" fill-opacity="1" fill="#e5e5e5"></path><g id="SvgjsG1314"><text id="SvgjsText1315" font-family="微软雅黑" text-anchor="middle" font-size="16px" width="45px" fill="#323232" font-weight="700" align="middle" anchor="middle" family="微软雅黑" size="16px" weight="700" font-style="" opacity="1" y="10.6" transform="rotate(0)"><tspan id="SvgjsTspan1316" dy="20" x="32.5"><tspan id="SvgjsTspan1317" style="text-decoration:;">实际</tspan></tspan></text></g></g><g id="SvgjsG1318" transform="translate(395,307.5)"><path id="SvgjsPath1319" d="M 0 22.5C 0 -7.5 90 -7.5 90 22.5C 90 52.5 0 52.5 0 22.5Z" stroke="none" fill-opacity="1" fill="#e5e5e5"></path><g id="SvgjsG1320"><text id="SvgjsText1321" font-family="微软雅黑" text-anchor="middle" font-size="12px" width="70px" fill="#323232" font-weight="700" align="middle" anchor="middle" family="微软雅黑" size="12px" weight="700" font-style="" opacity="1" y="13.2" transform="rotate(0)"><tspan id="SvgjsTspan1322" dy="15" x="45"><tspan id="SvgjsTspan1323" style="text-decoration:;font-size: inherit;">25天</tspan></tspan></text></g></g><g id="SvgjsG1324" transform="translate(87,310)"><path id="SvgjsPath1325" d="M 0 0L 120 0L 120 40L 0 40Z" stroke="none" fill="none"></path><g id="SvgjsG1326"><text id="SvgjsText1327" font-family="微软雅黑" text-anchor="middle" font-size="13px" width="120px" fill="#ffffff" font-weight="700" align="middle" anchor="middle" family="微软雅黑" size="13px" weight="700" font-style="" opacity="1" y="10.05" transform="rotate(0)"><tspan id="SvgjsTspan1328" dy="16" x="60"><tspan id="SvgjsTspan1329" style="text-decoration:;">10天</tspan></tspan></text></g></g><g id="SvgjsG1330" transform="translate(287.5,310)"><path id="SvgjsPath1331" d="M 0 0L 120 0L 120 40L 0 40Z" stroke="none" fill="none"></path><g id="SvgjsG1332"><text id="SvgjsText1333" font-family="微软雅黑" text-anchor="middle" font-size="13px" width="120px" fill="#ffffff" font-weight="700" align="middle" anchor="middle" family="微软雅黑" size="13px" weight="700" font-style="" opacity="1" y="10.05" transform="rotate(0)"><tspan id="SvgjsTspan1334" dy="16" x="60"><tspan id="SvgjsTspan1335" style="text-decoration:;">14天</tspan></tspan></text></g></g><g id="SvgjsG1336" transform="translate(701,307.5)"><path id="SvgjsPath1337" d="M 0 22.5C 0 -7.5 90 -7.5 90 22.5C 90 52.5 0 52.5 0 22.5Z" stroke="none" fill-opacity="1" fill="#e5e5e5"></path><g id="SvgjsG1338"><text id="SvgjsText1339" font-family="微软雅黑" text-anchor="middle" font-size="12px" width="70px" fill="#323232" font-weight="700" align="middle" anchor="middle" family="微软雅黑" size="12px" weight="700" font-style="" opacity="1" y="13.2" transform="rotate(0)"><tspan id="SvgjsTspan1340" dy="15" x="45"><tspan id="SvgjsTspan1341" style="text-decoration:;font-size: inherit;">45天</tspan></tspan></text></g></g><g id="SvgjsG1342" transform="translate(881,307.5)"><path id="SvgjsPath1343" d="M 0 22.5C 0 -7.5 90 -7.5 90 22.5C 90 52.5 0 52.5 0 22.5Z" stroke="none" fill-opacity="1" fill="#e5e5e5"></path><g id="SvgjsG1344"><text id="SvgjsText1345" font-family="微软雅黑" text-anchor="middle" font-size="12px" width="70px" fill="#323232" font-weight="700" align="middle" anchor="middle" family="微软雅黑" size="12px" weight="700" font-style="" opacity="1" y="13.2" transform="rotate(0)"><tspan id="SvgjsTspan1346" dy="15" x="45"><tspan id="SvgjsTspan1347" style="text-decoration:;font-size: inherit;">65天</tspan></tspan></text></g></g><g id="SvgjsG1348" transform="translate(586,310)"><path id="SvgjsPath1349" d="M 0 0L 120 0L 120 40L 0 40Z" stroke="none" fill="none"></path><g id="SvgjsG1350"><text id="SvgjsText1351" font-family="微软雅黑" text-anchor="middle" font-size="13px" width="120px" fill="#ffffff" font-weight="700" align="middle" anchor="middle" family="微软雅黑" size="13px" weight="700" font-style="" opacity="1" y="10.05" transform="rotate(0)"><tspan id="SvgjsTspan1352" dy="16" x="60"><tspan id="SvgjsTspan1353" style="text-decoration:;">10天</tspan></tspan></text></g></g><g id="SvgjsG1354" transform="translate(773.7337624341721,310)"><path id="SvgjsPath1355" d="M 0 0L 120 0L 120 40L 0 40Z" stroke="none" fill="none"></path><g id="SvgjsG1356"><text id="SvgjsText1357" font-family="微软雅黑" text-anchor="middle" font-size="13px" width="120px" fill="#ffffff" font-weight="700" align="middle" anchor="middle" family="微软雅黑" size="13px" weight="700" font-style="" opacity="1" y="10.05" transform="rotate(0)"><tspan id="SvgjsTspan1358" dy="16" x="60"><tspan id="SvgjsTspan1359" style="text-decoration:;">20天</tspan></tspan></text></g></g><g id="SvgjsG1360" transform="translate(1036.7337624341721,307.5)"><path id="SvgjsPath1361" d="M 0 22.5C 0 -7.5 90 -7.5 90 22.5C 90 52.5 0 52.5 0 22.5Z" stroke="none" fill-opacity="1" fill="#e5e5e5"></path><g id="SvgjsG1362"><text id="SvgjsText1363" font-family="微软雅黑" text-anchor="middle" font-size="12px" width="70px" fill="#323232" font-weight="700" align="middle" anchor="middle" family="微软雅黑" size="12px" weight="700" font-style="" opacity="1" y="13.2" transform="rotate(0)"><tspan id="SvgjsTspan1364" dy="15" x="45"><tspan id="SvgjsTspan1365" style="text-decoration:;font-size: inherit;">70天</tspan></tspan></text></g></g><g id="SvgjsG1366" transform="translate(940.7337624341721,307.5)"><path id="SvgjsPath1367" d="M 0 0L 120 0L 120 40L 0 40Z" stroke="none" fill="none"></path><g id="SvgjsG1368"><text id="SvgjsText1369" font-family="微软雅黑" text-anchor="middle" font-size="13px" width="120px" fill="#ffffff" font-weight="700" align="middle" anchor="middle" family="微软雅黑" size="13px" weight="700" font-style="" opacity="1" y="10.05" transform="rotate(0)"><tspan id="SvgjsTspan1370" dy="16" x="60"><tspan id="SvgjsTspan1371" style="text-decoration:;">5天</tspan></tspan></text></g></g><g id="SvgjsG1372" transform="translate(785.680441778818,576)"><path id="SvgjsPath1373" d="M 0 0L 248 0L 248 45L 0 45Z" stroke="none" fill-opacity="1" fill="#009999"></path><g id="SvgjsG1374"><text id="SvgjsText1375" font-family="微软雅黑" text-anchor="middle" font-size="19px" width="228px" fill="#ffffff" font-weight="700" align="middle" anchor="middle" family="微软雅黑" size="19px" weight="700" font-style="" opacity="1" y="7.65" transform="rotate(0)"><tspan id="SvgjsTspan1376" dy="23" x="124"><tspan id="SvgjsTspan1377" style="text-decoration:;">重新选择项目</tspan></tspan></text></g></g><g id="SvgjsG1378" transform="translate(494.9466793446459,576)"><path id="SvgjsPath1379" d="M 0 0L 248 0L 248 45L 0 45Z" stroke="none" fill-opacity="1" fill="#009999"></path><g id="SvgjsG1380"><text id="SvgjsText1381" font-family="微软雅黑" text-anchor="middle" font-size="19px" width="228px" fill="#ffffff" font-weight="700" align="middle" anchor="middle" family="微软雅黑" size="19px" weight="700" font-style="" opacity="1" y="7.65" transform="rotate(0)"><tspan id="SvgjsTspan1382" dy="23" x="124"><tspan id="SvgjsTspan1383" style="text-decoration:;">输入项目已获取证照</tspan></tspan></text></g></g></svg>