<svg id="SvgjsSvg1006" width="1366" height="774.5" xmlns="http://www.w3.org/2000/svg" version="1.1" xmlns:xlink="http://www.w3.org/1999/xlink" xmlns:svgjs="http://svgjs.com/svgjs"><defs id="SvgjsDefs1007"><pattern id="SvgjsPattern1023" x="0" y="0" width="41" height="43" patternUnits="userSpaceOnUse"><image id="SvgjsImage1024" xlink:href="https://cdn.processon.com/5f9fdadaf346fb11c3d01f5f?e=1604315370&amp;token=trhI0BY8QfVrIGn9nENop6JAc6l5nZuxhjQ62UfM:oGIUkgfusy09pJhTqv4tmXCn6fM=" width="41" height="43" preserveAspectRatio="none" crossOrigin="anonymous" x="0" y="0"></image></pattern><pattern id="SvgjsPattern1027" x="0" y="0" width="62" height="59.5" patternUnits="userSpaceOnUse"><image id="SvgjsImage1028" xlink:href="https://cdn.processon.com/5fed6bdf6376896cfafbe892?e=1609398767&amp;amp;token=trhI0BY8QfVrIGn9nENop6JAc6l5nZuxhjQ62UfM:qJkaw8I751v4NpivNa-wN28wlZM=" width="62" height="59.5" preserveAspectRatio="none" crossOrigin="anonymous" x="0" y="0"></image></pattern></defs><rect id="SvgjsRect1008" width="1366" height="774.5" fill="#a9b7c0"></rect><g id="SvgjsG1009" transform="translate(65.48390871854883,25.5)"><path id="SvgjsPath1010" d="M 0 0L 551.0321825629023 0L 551.0321825629023 43L 0 43Z" stroke="none" fill="none"></path><g id="SvgjsG1011"><text id="SvgjsText1012" font-family="微软雅黑" text-anchor="start" font-size="30px" width="552px" fill="#1a1a1a" font-weight="700" align="middle" anchor="start" family="微软雅黑" size="30px" weight="700" font-style="" opacity="1" y="-4" transform="rotate(0)"><tspan id="SvgjsTspan1013" dy="37" x="0"><tspan id="SvgjsTspan1014" style="text-decoration:;">  开发报建部规证阶段标准工期</tspan></tspan></text></g></g><g id="SvgjsG1015" transform="translate(505.0000000000001,25.5)"><path id="SvgjsPath1016" d="M 0 0L 685 0L 685 43L 0 43Z" stroke="none" fill-opacity="1" fill="#009999"></path><g id="SvgjsG1017"><text id="SvgjsText1018" font-family="微软雅黑" text-anchor="middle" font-size="20px" width="665px" fill="#ffffff" font-weight="700" align="middle" anchor="middle" family="微软雅黑" size="20px" weight="700" font-style="" opacity="1" y="6" transform="rotate(0)"><tspan id="SvgjsTspan1019" dy="25" x="342.5"><tspan id="SvgjsTspan1020" style="text-decoration:;font-size: inherit;">规证阶段</tspan></tspan></text></g></g><g id="SvgjsG1021" transform="translate(25,25.5)"><path id="SvgjsPath1022" d="M 0 0L 41 0L 41 43L 0 43Z" stroke="none" fill="url(#SvgjsPattern1023)"></path></g><g id="SvgjsG1025" transform="translate(1249,25)"><path id="SvgjsPath1026" d="M 0 0L 62 0L 62 59.5L 0 59.5Z" stroke="none" fill="url(#SvgjsPattern1027)"></path></g><g id="SvgjsG1029" transform="translate(1219,69.5)"><path id="SvgjsPath1030" d="M 0 0L 122 0L 122 43L 0 43Z" stroke="none" fill="none"></path><g id="SvgjsG1031"><text id="SvgjsText1032" font-family="微软雅黑" text-anchor="middle" font-size="13px" width="122px" fill="#323232" font-weight="400" align="middle" anchor="middle" family="微软雅黑" size="13px" weight="400" font-style="" opacity="1" y="11.55" transform="rotate(0)"><tspan id="SvgjsTspan1033" dy="16" x="61"><tspan id="SvgjsTspan1034" style="text-decoration:;">打印</tspan></tspan></text></g></g><g id="SvgjsG1035" transform="translate(56.71715001462843,81)"><path id="SvgjsPath1036" d="M 6.666666666666667 0L 167.89903330407648 0C 176.78792219296537 0 176.78792219296537 20 167.89903330407648 20L 6.666666666666667 20C -2.2222222222222223 20 -2.2222222222222223 0 6.666666666666667 0Z" stroke="none" fill-opacity="1" fill="#ffcccc"></path><g id="SvgjsG1037"><text id="SvgjsText1038" font-family="微软雅黑" text-anchor="middle" font-size="16px" width="155px" fill="#323232" font-weight="400" align="middle" anchor="middle" family="微软雅黑" size="16px" weight="400" font-style="" opacity="1" y="-2.4" transform="rotate(0)"><tspan id="SvgjsTspan1039" dy="20" x="87.5"><tspan id="SvgjsTspan1040" style="text-decoration:;">1</tspan></tspan></text></g></g><g id="SvgjsG1041" transform="translate(61,552.5)"><path id="SvgjsPath1042" d="M 14.333333333333334 0L 1243.6666666666667 0C 1262.7777777777778 0 1262.7777777777778 43 1243.6666666666667 43L 14.333333333333334 43C -4.777777777777778 43 -4.777777777777778 0 14.333333333333334 0Z" stroke="none" fill-opacity="1" fill="#009999"></path><g id="SvgjsG1043"><text id="SvgjsText1044" font-family="微软雅黑" text-anchor="middle" font-size="13px" width="1238px" fill="#ffffff" font-weight="400" align="middle" anchor="middle" family="微软雅黑" size="13px" weight="400" font-style="" opacity="1" y="11.55" transform="rotate(0)"></text></g></g><g id="SvgjsG1045" transform="translate(60.5,556.5)"><path id="SvgjsPath1046" d="M 0 0L 51 0L 51 35L 0 35Z" stroke="none" fill="none"></path><g id="SvgjsG1047"><text id="SvgjsText1048" font-family="微软雅黑" text-anchor="middle" font-size="16px" width="51px" fill="#ffffff" font-weight="700" align="middle" anchor="middle" family="微软雅黑" size="16px" weight="700" font-style="" opacity="1" y="5.1" transform="rotate(0)"><tspan id="SvgjsTspan1049" dy="20" x="25.5"><tspan id="SvgjsTspan1050" style="text-decoration:;">计划</tspan></tspan></text></g></g><g id="SvgjsG1051" transform="translate(393.5,552.5)"><path id="SvgjsPath1052" d="M 0 0L 41 0L 41 43L 0 43Z" stroke="none" fill="none"></path><g id="SvgjsG1053"><text id="SvgjsText1054" font-family="微软雅黑" text-anchor="middle" font-size="13px" width="41px" fill="#ffffff" font-weight="400" align="middle" anchor="middle" family="微软雅黑" size="13px" weight="400" font-style="" opacity="1" y="11.55" transform="rotate(0)"><tspan id="SvgjsTspan1055" dy="16" x="20.5"><tspan id="SvgjsTspan1056" style="text-decoration:;">30天</tspan></tspan></text></g></g><g id="SvgjsG1057" transform="translate(800,550.25)"><path id="SvgjsPath1058" d="M 0 0L 68 0L 68 31.5L 0 31.5Z" stroke="none" fill="none"></path><g id="SvgjsG1059"><text id="SvgjsText1060" font-family="微软雅黑" text-anchor="middle" font-size="13px" width="68px" fill="#ffffff" font-weight="400" align="middle" anchor="middle" family="微软雅黑" size="13px" weight="400" font-style="" opacity="1" y="5.8" transform="rotate(0)"><tspan id="SvgjsTspan1061" dy="16" x="34"><tspan id="SvgjsTspan1062" style="text-decoration:;">2020.10.10</tspan></tspan></text></g></g><g id="SvgjsG1063" transform="translate(1054.5,552.5)"><path id="SvgjsPath1064" d="M 0 0L 41 0L 41 43L 0 43Z" stroke="none" fill="none"></path><g id="SvgjsG1065"><text id="SvgjsText1066" font-family="微软雅黑" text-anchor="middle" font-size="13px" width="41px" fill="#ffffff" font-weight="700" align="middle" anchor="middle" family="微软雅黑" size="13px" weight="700" font-style="" opacity="1" y="11.55" transform="rotate(0)"><tspan id="SvgjsTspan1067" dy="16" x="20.5"><tspan id="SvgjsTspan1068" style="text-decoration:;">85天</tspan></tspan></text></g></g><g id="SvgjsG1069" transform="translate(1173.5,552.5)"><path id="SvgjsPath1070" d="M 0 0L 41 0L 41 43L 0 43Z" stroke="none" fill="none"></path><g id="SvgjsG1071"><text id="SvgjsText1072" font-family="微软雅黑" text-anchor="middle" font-size="13px" width="41px" fill="#ffffff" font-weight="700" align="middle" anchor="middle" family="微软雅黑" size="13px" weight="700" font-style="" opacity="1" y="11.55" transform="rotate(0)"><tspan id="SvgjsTspan1073" dy="16" x="20.5"><tspan id="SvgjsTspan1074" style="text-decoration:;">95天</tspan></tspan></text></g></g><g id="SvgjsG1075" transform="translate(1271.5,552.5)"><path id="SvgjsPath1076" d="M 0 0L 41 0L 41 43L 0 43Z" stroke="none" fill="none"></path><g id="SvgjsG1077"><text id="SvgjsText1078" font-family="微软雅黑" text-anchor="middle" font-size="13px" width="41px" fill="#ffffff" font-weight="400" align="middle" anchor="middle" family="微软雅黑" size="13px" weight="400" font-style="" opacity="1" y="11.55" transform="rotate(0)"><tspan id="SvgjsTspan1079" dy="16" x="20.5"><tspan id="SvgjsTspan1080" style="text-decoration:;">105天</tspan></tspan></text></g></g><g id="SvgjsG1081" transform="translate(245.54627157694563,69.5)"><path id="SvgjsPath1082" d="M 0 0L 273 0L 273 43L 0 43Z" stroke="none" fill="none"></path><g id="SvgjsG1083"><text id="SvgjsText1084" font-family="微软雅黑" text-anchor="start" font-size="16px" width="273px" fill="#323232" font-weight="400" align="middle" anchor="start" family="微软雅黑" size="16px" weight="400" font-style="" opacity="1" y="9.1" transform="rotate(0)"><tspan id="SvgjsTspan1085" dy="20" x="0"><tspan id="SvgjsTspan1086" style="text-decoration:;">确定规证、施工证、预售证划分</tspan></tspan></text></g></g><g id="SvgjsG1087" transform="translate(302.5,98.5)"><path id="SvgjsPath1088" d="M 0 0L 273 0L 273 43L 0 43Z" stroke="none" fill="none"></path><g id="SvgjsG1089"><text id="SvgjsText1090" font-family="微软雅黑" text-anchor="start" font-size="16px" width="273px" fill="#323232" font-weight="400" align="middle" anchor="start" family="微软雅黑" size="16px" weight="400" font-style="" opacity="1" y="9.1" transform="rotate(0)"><tspan id="SvgjsTspan1091" dy="20" x="0"><tspan id="SvgjsTspan1092" style="text-decoration:;">项目基本方案</tspan></tspan></text></g></g><g id="SvgjsG1093" transform="translate(296.0462715769455,140)"><path id="SvgjsPath1094" d="M 6.666666666666667 0L 110.33333333333333 0C 119.22222222222223 0 119.22222222222223 20 110.33333333333333 20L 6.666666666666667 20C -2.2222222222222223 20 -2.2222222222222223 0 6.666666666666667 0Z" stroke="none" fill-opacity="1" fill="#ffe6cc"></path><g id="SvgjsG1095"><text id="SvgjsText1096" font-family="微软雅黑" text-anchor="middle" font-size="16px" width="97px" fill="#323232" font-weight="400" align="middle" anchor="middle" family="微软雅黑" size="16px" weight="400" font-style="" opacity="1" y="-2.4" transform="rotate(0)"><tspan id="SvgjsTspan1097" dy="20" x="58.5"><tspan id="SvgjsTspan1098" style="text-decoration:;">3</tspan></tspan></text></g></g><g id="SvgjsG1099" transform="translate(436,128.5)"><path id="SvgjsPath1100" d="M 0 0L 322 0L 322 43L 0 43Z" stroke="none" fill="none"></path><g id="SvgjsG1101"><text id="SvgjsText1102" font-family="微软雅黑" text-anchor="start" font-size="16px" width="322px" fill="#323232" font-weight="400" align="middle" anchor="start" family="微软雅黑" size="16px" weight="400" font-style="" opacity="1" y="9.1" transform="rotate(0)"><tspan id="SvgjsTspan1103" dy="20" x="0"><tspan id="SvgjsTspan1104" style="text-decoration:;">正式方案册（同步沟通配套、人防、园林）</tspan></tspan></text></g></g><g id="SvgjsG1105" transform="translate(415.5,171)"><path id="SvgjsPath1106" d="M 6.666666666666667 0L 110.33333333333333 0C 119.22222222222223 0 119.22222222222223 20 110.33333333333333 20L 6.666666666666667 20C -2.2222222222222223 20 -2.2222222222222223 0 6.666666666666667 0Z" stroke="none" fill-opacity="1" fill="#ccffff"></path><g id="SvgjsG1107"><text id="SvgjsText1108" font-family="微软雅黑" text-anchor="middle" font-size="16px" width="97px" fill="#323232" font-weight="400" align="middle" anchor="middle" family="微软雅黑" size="16px" weight="400" font-style="" opacity="1" y="-2.4" transform="rotate(0)"><tspan id="SvgjsTspan1109" dy="20" x="58.5"><tspan id="SvgjsTspan1110" style="text-decoration:;">4</tspan></tspan></text></g></g><g id="SvgjsG1111" transform="translate(543.8291215623171,159.5)"><path id="SvgjsPath1112" d="M 0 0L 322 0L 322 43L 0 43Z" stroke="none" fill="none"></path><g id="SvgjsG1113"><text id="SvgjsText1114" font-family="微软雅黑" text-anchor="start" font-size="16px" width="322px" fill="#323232" font-weight="400" align="middle" anchor="start" family="微软雅黑" size="16px" weight="400" font-style="" opacity="1" y="9.1" transform="rotate(0)"><tspan id="SvgjsTspan1115" dy="20" x="0"><tspan id="SvgjsTspan1116" style="text-decoration:;">配套、人防、园林沟通第二轮沟通</tspan></tspan></text></g></g><g id="SvgjsG1117" transform="translate(605.8291215623171,193.5)"><path id="SvgjsPath1118" d="M 0 0L 322 0L 322 43L 0 43Z" stroke="none" fill="none"></path><g id="SvgjsG1119"><text id="SvgjsText1120" font-family="微软雅黑" text-anchor="start" font-size="16px" width="322px" fill="#323232" font-weight="400" align="middle" anchor="start" family="微软雅黑" size="16px" weight="400" font-style="" opacity="1" y="9.1" transform="rotate(0)"><tspan id="SvgjsTspan1121" dy="20" x="0"><tspan id="SvgjsTspan1122" style="text-decoration:;">专家会上会材料</tspan></tspan></text></g></g><g id="SvgjsG1123" transform="translate(673,225.5)"><path id="SvgjsPath1124" d="M 0 0L 322 0L 322 43L 0 43Z" stroke="none" fill="none"></path><g id="SvgjsG1125"><text id="SvgjsText1126" font-family="微软雅黑" text-anchor="start" font-size="16px" width="322px" fill="#323232" font-weight="400" align="middle" anchor="start" family="微软雅黑" size="16px" weight="400" font-style="" opacity="1" y="9.1" transform="rotate(0)"><tspan id="SvgjsTspan1127" dy="20" x="0"><tspan id="SvgjsTspan1128" style="text-decoration:;">方案专家会</tspan></tspan></text></g></g><g id="SvgjsG1129" transform="translate(656.5,274)"><path id="SvgjsPath1130" d="M 6.666666666666667 0L 60.333333333333336 0C 69.22222222222223 0 69.22222222222223 20 60.333333333333336 20L 6.666666666666667 20C -2.2222222222222223 20 -2.2222222222222223 0 6.666666666666667 0Z" stroke="none" fill-opacity="1" fill="#ccffff"></path><g id="SvgjsG1131"><text id="SvgjsText1132" font-family="微软雅黑" text-anchor="middle" font-size="16px" width="47px" fill="#323232" font-weight="400" align="middle" anchor="middle" family="微软雅黑" size="16px" weight="400" font-style="" opacity="1" y="-2.4" transform="rotate(0)"><tspan id="SvgjsTspan1133" dy="20" x="33.5"><tspan id="SvgjsTspan1134" style="text-decoration:;">7</tspan></tspan></text></g></g><g id="SvgjsG1135" transform="translate(719,262.5)"><path id="SvgjsPath1136" d="M 0 0L 322 0L 322 43L 0 43Z" stroke="none" fill="none"></path><g id="SvgjsG1137"><text id="SvgjsText1138" font-family="微软雅黑" text-anchor="start" font-size="16px" width="322px" fill="#323232" font-weight="400" align="middle" anchor="start" family="微软雅黑" size="16px" weight="400" font-style="" opacity="1" y="9.1" transform="rotate(0)"><tspan id="SvgjsTspan1139" dy="20" x="0"><tspan id="SvgjsTspan1140" style="text-decoration:;">根据专家会已经完成意见回复</tspan></tspan></text></g></g><g id="SvgjsG1141" transform="translate(716.5,306)"><path id="SvgjsPath1142" d="M 6.666666666666667 0L 110.33333333333333 0C 119.22222222222223 0 119.22222222222223 20 110.33333333333333 20L 6.666666666666667 20C -2.2222222222222223 20 -2.2222222222222223 0 6.666666666666667 0Z" stroke="none" fill-opacity="1" fill="#ccffff"></path><g id="SvgjsG1143"><text id="SvgjsText1144" font-family="微软雅黑" text-anchor="middle" font-size="16px" width="97px" fill="#323232" font-weight="400" align="middle" anchor="middle" family="微软雅黑" size="16px" weight="400" font-style="" opacity="1" y="-2.4" transform="rotate(0)"><tspan id="SvgjsTspan1145" dy="20" x="58.5"><tspan id="SvgjsTspan1146" style="text-decoration:;">8</tspan></tspan></text></g></g><g id="SvgjsG1147" transform="translate(850,294.5)"><path id="SvgjsPath1148" d="M 0 0L 122 0L 122 43L 0 43Z" stroke="none" fill="none"></path><g id="SvgjsG1149"><text id="SvgjsText1150" font-family="微软雅黑" text-anchor="start" font-size="16px" width="122px" fill="#323232" font-weight="400" align="middle" anchor="start" family="微软雅黑" size="16px" weight="400" font-style="" opacity="1" y="9.1" transform="rotate(0)"><tspan id="SvgjsTspan1151" dy="20" x="0"><tspan id="SvgjsTspan1152" style="text-decoration:;">局长会</tspan></tspan></text></g></g><g id="SvgjsG1153" transform="translate(835,337)"><path id="SvgjsPath1154" d="M 6.666666666666667 0L 67.33333333333333 0C 76.22222222222223 0 76.22222222222223 20 67.33333333333333 20L 6.666666666666667 20C -2.2222222222222223 20 -2.2222222222222223 0 6.666666666666667 0Z" stroke="none" fill-opacity="1" fill="#ccffff"></path><g id="SvgjsG1155"><text id="SvgjsText1156" font-family="微软雅黑" text-anchor="middle" font-size="16px" width="54px" fill="#323232" font-weight="400" align="middle" anchor="middle" family="微软雅黑" size="16px" weight="400" font-style="" opacity="1" y="-2.4" transform="rotate(0)"><tspan id="SvgjsTspan1157" dy="20" x="37"><tspan id="SvgjsTspan1158" style="text-decoration:;">9</tspan></tspan></text></g></g><g id="SvgjsG1159" transform="translate(926.5394784961968,325.5)"><path id="SvgjsPath1160" d="M 0 0L 224.9210430076064 0L 224.9210430076064 43L 0 43Z" stroke="none" fill="none"></path><g id="SvgjsG1161"><text id="SvgjsText1162" font-family="微软雅黑" text-anchor="start" font-size="16px" width="225px" fill="#323232" font-weight="400" align="middle" anchor="start" family="微软雅黑" size="16px" weight="400" font-style="" opacity="1" y="9.1" transform="rotate(0)"><tspan id="SvgjsTspan1163" dy="20" x="0"><tspan id="SvgjsTspan1164" style="text-decoration:;">根据局长会意见完成方案优化</tspan></tspan></text></g></g><g id="SvgjsG1165" transform="translate(911,375)"><path id="SvgjsPath1166" d="M 6.666666666666667 0L 34.333333333333336 0C 43.22222222222222 0 43.22222222222222 20 34.333333333333336 20L 6.666666666666667 20C -2.2222222222222223 20 -2.2222222222222223 0 6.666666666666667 0Z" stroke="none" fill-opacity="1" fill="#ccffff"></path><g id="SvgjsG1167"><text id="SvgjsText1168" font-family="微软雅黑" text-anchor="middle" font-size="16px" width="21px" fill="#323232" font-weight="400" align="middle" anchor="middle" family="微软雅黑" size="16px" weight="400" font-style="" opacity="1" y="-2.4" transform="rotate(0)"><tspan id="SvgjsTspan1169" dy="20" x="20.5"><tspan id="SvgjsTspan1170" style="text-decoration:;">10</tspan></tspan></text></g></g><g id="SvgjsG1171" transform="translate(961.9145607811586,363.5)"><path id="SvgjsPath1172" d="M 0 0L 154.17087843768286 0L 154.17087843768286 43L 0 43Z" stroke="none" fill="none"></path><g id="SvgjsG1173"><text id="SvgjsText1174" font-family="微软雅黑" text-anchor="start" font-size="16px" width="155px" fill="#323232" font-weight="400" align="middle" anchor="start" family="微软雅黑" size="16px" weight="400" font-style="" opacity="1" y="9.1" transform="rotate(0)"><tspan id="SvgjsTspan1175" dy="20" x="0"><tspan id="SvgjsTspan1176" style="text-decoration:;">推送多规合一平台</tspan></tspan></text></g></g><g id="SvgjsG1177" transform="translate(1083.5,394.5)"><path id="SvgjsPath1178" d="M 0 0L 147 0L 147 43L 0 43Z" stroke="none" fill="none"></path><g id="SvgjsG1179"><text id="SvgjsText1180" font-family="微软雅黑" text-anchor="start" font-size="16px" width="147px" fill="#323232" font-weight="400" align="middle" anchor="start" family="微软雅黑" size="16px" weight="400" font-style="" opacity="1" y="9.1" transform="rotate(0)"><tspan id="SvgjsTspan1181" dy="20" x="0"><tspan id="SvgjsTspan1182" style="text-decoration:;">多规合一会商意见</tspan></tspan></text></g></g><g id="SvgjsG1183" transform="translate(1074,474)"><path id="SvgjsPath1184" d="M 6.666666666666667 0L 115.33333333333333 0C 124.22222222222223 0 124.22222222222223 20 115.33333333333333 20L 6.666666666666667 20C -2.2222222222222223 20 -2.2222222222222223 0 6.666666666666667 0Z" stroke="none" fill-opacity="1" fill="#ccffff"></path><g id="SvgjsG1185"><text id="SvgjsText1186" font-family="微软雅黑" text-anchor="middle" font-size="16px" width="102px" fill="#323232" font-weight="400" align="middle" anchor="middle" family="微软雅黑" size="16px" weight="400" font-style="" opacity="1" y="-2.4" transform="rotate(0)"><tspan id="SvgjsTspan1187" dy="20" x="61"><tspan id="SvgjsTspan1188" style="text-decoration:;">13</tspan></tspan></text></g></g><g id="SvgjsG1189" transform="translate(905.5,462.5)"><path id="SvgjsPath1190" d="M 0 0L 147 0L 147 43L 0 43Z" stroke="none" fill="none"></path><g id="SvgjsG1191"><text id="SvgjsText1192" font-family="微软雅黑" text-anchor="end" font-size="16px" width="147px" fill="#323232" font-weight="400" align="middle" anchor="end" family="微软雅黑" size="16px" weight="400" font-style="" opacity="1" y="9.1" transform="rotate(0)"><tspan id="SvgjsTspan1193" dy="20" x="147"><tspan id="SvgjsTspan1194" style="text-decoration:;">规划许可证</tspan></tspan></text></g></g><g id="SvgjsG1195" transform="translate(1195,504)"><path id="SvgjsPath1196" d="M 6.666666666666667 0L 115.33333333333333 0C 124.22222222222223 0 124.22222222222223 20 115.33333333333333 20L 6.666666666666667 20C -2.2222222222222223 20 -2.2222222222222223 0 6.666666666666667 0Z" stroke="none" fill-opacity="1" fill="#ccffff"></path><g id="SvgjsG1197"><text id="SvgjsText1198" font-family="微软雅黑" text-anchor="middle" font-size="16px" width="102px" fill="#323232" font-weight="400" align="middle" anchor="middle" family="微软雅黑" size="16px" weight="400" font-style="" opacity="1" y="-2.4" transform="rotate(0)"><tspan id="SvgjsTspan1199" dy="20" x="61"><tspan id="SvgjsTspan1200" style="text-decoration:;">14</tspan></tspan></text></g></g><g id="SvgjsG1201" transform="translate(1038.0789569923936,492.5)"><path id="SvgjsPath1202" d="M 0 0L 147 0L 147 43L 0 43Z" stroke="none" fill="none"></path><g id="SvgjsG1203"><text id="SvgjsText1204" font-family="微软雅黑" text-anchor="end" font-size="16px" width="147px" fill="#323232" font-weight="400" align="middle" anchor="end" family="微软雅黑" size="16px" weight="400" font-style="" opacity="1" y="9.1" transform="rotate(0)"><tspan id="SvgjsTspan1205" dy="20" x="147"><tspan id="SvgjsTspan1206" style="text-decoration:;">临时规证</tspan></tspan></text></g></g><g id="SvgjsG1207"><path id="SvgjsPath1208" d="M56 84L56 656L56.32572502194262 656" stroke="#cfcfcf" stroke-width="1" fill="none"></path></g><g id="SvgjsG1209"><path id="SvgjsPath1210" d="M232 85L232 318.5L232 318.5L232 552.5" stroke="#cfcfcf" stroke-width="1" fill="none"></path></g><g id="SvgjsG1211" transform="translate(57.651450043885234,110)"><path id="SvgjsPath1212" d="M 6.666666666666667 0L 231.72815486639362 0C 240.6170437552825 0 240.6170437552825 20 231.72815486639362 20L 6.666666666666667 20C -2.2222222222222223 20 -2.2222222222222223 0 6.666666666666667 0Z" stroke="none" fill-opacity="1" fill="#ffe6cc"></path><g id="SvgjsG1213"><text id="SvgjsText1214" font-family="微软雅黑" text-anchor="middle" font-size="16px" width="219px" fill="#323232" font-weight="400" align="middle" anchor="middle" family="微软雅黑" size="16px" weight="400" font-style="" opacity="1" y="-2.4" transform="rotate(0)"><tspan id="SvgjsTspan1215" dy="20" x="119.5"><tspan id="SvgjsTspan1216" style="text-decoration:;">2</tspan></tspan></text></g></g><g id="SvgjsG1217"><path id="SvgjsPath1218" d="M296 115L296 333.5L296 333.5L296 552.5" stroke="#cfcfcf" stroke-width="1" fill="none"></path></g><g id="SvgjsG1219"><path id="SvgjsPath1220" d="M528.813424357294 173L535 173L535 552.5" stroke="#cfcfcf" stroke-width="1" fill="none"></path></g><g id="SvgjsG1221"><path id="SvgjsPath1222" d="M593.8429389327227 203.5L597.5 203.5L597.5 552.5" stroke="#cfcfcf" stroke-width="1" fill="none"></path></g><g id="SvgjsG1223"><path id="SvgjsPath1224" d="M652.4019237886466 237L652.4019237886466 237.5L655 552.5" stroke="#cfcfcf" stroke-width="1" fill="none"></path></g><g id="SvgjsG1225" transform="translate(536,237)"><path id="SvgjsPath1226" d="M 6.666666666666667 0L 115.33333333333333 0C 124.22222222222223 0 124.22222222222223 20 115.33333333333333 20L 6.666666666666667 20C -2.2222222222222223 20 -2.2222222222222223 0 6.666666666666667 0Z" stroke="none" fill-opacity="1" fill="#ccffff"></path><g id="SvgjsG1227"><text id="SvgjsText1228" font-family="微软雅黑" text-anchor="middle" font-size="16px" width="102px" fill="#323232" font-weight="400" align="middle" anchor="middle" family="微软雅黑" size="16px" weight="400" font-style="" opacity="1" y="-2.4" transform="rotate(0)"><tspan id="SvgjsTspan1229" dy="20" x="61"><tspan id="SvgjsTspan1230" style="text-decoration:;">6</tspan></tspan></text></g></g><g id="SvgjsG1231"><path id="SvgjsPath1232" d="M718 281L718 281L718 522L717.5462715769455 522L717.5462715769455 552.5" stroke="#cfcfcf" stroke-width="1" fill="none"></path></g><g id="SvgjsG1233"><path id="SvgjsPath1234" d="M834 304L834 427.125L834 427.125L834 550.25" stroke="#cfcfcf" stroke-width="1" fill="none"></path></g><g id="SvgjsG1235"><path id="SvgjsPath1236" d="M905.7524696116325 339.2940952255126L911 339.2940952255126L911 552.5" stroke="#cfcfcf" stroke-width="1" fill="none"></path></g><g id="SvgjsG1237"><path id="SvgjsPath1238" d="M948.3618442752845 376.052120859954L953 376.052120859954L953 552.5" stroke="#cfcfcf" stroke-width="1" fill="none"></path></g><g id="SvgjsG1239"><path id="SvgjsPath1240" d="M1074 402.052120859954L1074 477.02606042997695L1074 477.02606042997695L1074 552.5" stroke="#cfcfcf" stroke-width="1" fill="none"></path></g><g id="SvgjsG1241" transform="translate(952,406)"><path id="SvgjsPath1242" d="M 6.666666666666667 0L 115.33333333333333 0C 124.22222222222223 0 124.22222222222223 20 115.33333333333333 20L 6.666666666666667 20C -2.2222222222222223 20 -2.2222222222222223 0 6.666666666666667 0Z" stroke="none" fill-opacity="1" fill="#ccffff"></path><g id="SvgjsG1243"><text id="SvgjsText1244" font-family="微软雅黑" text-anchor="middle" font-size="16px" width="102px" fill="#323232" font-weight="400" align="middle" anchor="middle" family="微软雅黑" size="16px" weight="400" font-style="" opacity="1" y="-2.4" transform="rotate(0)"><tspan id="SvgjsTspan1245" dy="20" x="61"><tspan id="SvgjsTspan1246" style="text-decoration:;">11</tspan></tspan></text></g></g><g id="SvgjsG1247" transform="translate(881.5,442)"><path id="SvgjsPath1248" d="M 6.666666666666667 0L 188.33333333333334 0C 197.22222222222223 0 197.22222222222223 20 188.33333333333334 20L 6.666666666666667 20C -2.2222222222222223 20 -2.2222222222222223 0 6.666666666666667 0Z" stroke="none" fill-opacity="1" fill="#ffe6cc"></path><g id="SvgjsG1249"><text id="SvgjsText1250" font-family="微软雅黑" text-anchor="middle" font-size="16px" width="175px" fill="#323232" font-weight="400" align="middle" anchor="middle" family="微软雅黑" size="16px" weight="400" font-style="" opacity="1" y="-2.4" transform="rotate(0)"><tspan id="SvgjsTspan1251" dy="20" x="97.5"><tspan id="SvgjsTspan1252" style="text-decoration:;">12</tspan></tspan></text></g></g><g id="SvgjsG1253" transform="translate(535.5,205)"><path id="SvgjsPath1254" d="M 6.666666666666667 0L 55.333333333333336 0C 64.22222222222223 0 64.22222222222223 20 55.333333333333336 20L 6.666666666666667 20C -2.2222222222222223 20 -2.2222222222222223 0 6.666666666666667 0Z" stroke="none" fill-opacity="1" fill="#ffe6cc"></path><g id="SvgjsG1255"><text id="SvgjsText1256" font-family="微软雅黑" text-anchor="middle" font-size="16px" width="42px" fill="#323232" font-weight="400" align="middle" anchor="middle" family="微软雅黑" size="16px" weight="400" font-style="" opacity="1" y="-2.4" transform="rotate(0)"><tspan id="SvgjsTspan1257" dy="20" x="31"><tspan id="SvgjsTspan1258" style="text-decoration:;">5</tspan></tspan></text></g></g><g id="SvgjsG1259"><path id="SvgjsPath1260" d="M1317.3747688518533 510.6904730469628L1317.3747688518533 679L1312.5 679" stroke="#cfcfcf" stroke-width="1" fill="none"></path></g><g id="SvgjsG1261"><path id="SvgjsPath1262" d="M881.5 452L877.0067930807486 452L877.0067930807486 552" stroke="#cfcfcf" stroke-width="1" fill="none"></path></g><g id="SvgjsG1263" transform="translate(727.0789569923936,430.5)"><path id="SvgjsPath1264" d="M 0 0L 147 0L 147 43L 0 43Z" stroke="none" fill="none"></path><g id="SvgjsG1265"><text id="SvgjsText1266" font-family="微软雅黑" text-anchor="end" font-size="16px" width="147px" fill="#323232" font-weight="400" align="middle" anchor="end" family="微软雅黑" size="16px" weight="400" font-style="" opacity="1" y="9.1" transform="rotate(0)"><tspan id="SvgjsTspan1267" dy="20" x="147"><tspan id="SvgjsTspan1268" style="text-decoration:;">规证图、临建图</tspan></tspan></text></g></g><g id="SvgjsG1269" transform="translate(1059.5,134)"><path id="SvgjsPath1270" d="M 6.666666666666667 0L 188.33333333333334 0C 197.22222222222223 0 197.22222222222223 20 188.33333333333334 20L 6.666666666666667 20C -2.2222222222222223 20 -2.2222222222222223 0 6.666666666666667 0Z" stroke="none" fill-opacity="1" fill="#ffcccc"></path><g id="SvgjsG1271"><text id="SvgjsText1272" font-family="微软雅黑" text-anchor="middle" font-size="16px" width="175px" fill="#323232" font-weight="400" align="middle" anchor="middle" family="微软雅黑" size="16px" weight="400" font-style="" opacity="1" y="-2.4" transform="rotate(0)"><tspan id="SvgjsTspan1273" dy="20" x="97.5"><tspan id="SvgjsTspan1274" style="text-decoration:;">开发部、技术部等</tspan></tspan></text></g></g><g id="SvgjsG1275" transform="translate(1059.5,171)"><path id="SvgjsPath1276" d="M 6.666666666666667 0L 188.33333333333334 0C 197.22222222222223 0 197.22222222222223 20 188.33333333333334 20L 6.666666666666667 20C -2.2222222222222223 20 -2.2222222222222223 0 6.666666666666667 0Z" stroke="none" fill-opacity="1" fill="#ffe6cc"></path><g id="SvgjsG1277"><text id="SvgjsText1278" font-family="微软雅黑" text-anchor="middle" font-size="16px" width="175px" fill="#323232" font-weight="400" align="middle" anchor="middle" family="微软雅黑" size="16px" weight="400" font-style="" opacity="1" y="-2.4" transform="rotate(0)"><tspan id="SvgjsTspan1279" dy="20" x="97.5"><tspan id="SvgjsTspan1280" style="text-decoration:;">技术部</tspan></tspan></text></g></g><g id="SvgjsG1281" transform="translate(1059.5,205)"><path id="SvgjsPath1282" d="M 6.666666666666667 0L 188.33333333333334 0C 197.22222222222223 0 197.22222222222223 20 188.33333333333334 20L 6.666666666666667 20C -2.2222222222222223 20 -2.2222222222222223 0 6.666666666666667 0Z" stroke="none" fill-opacity="1" fill="#ccffff"></path><g id="SvgjsG1283"><text id="SvgjsText1284" font-family="微软雅黑" text-anchor="middle" font-size="16px" width="175px" fill="#323232" font-weight="400" align="middle" anchor="middle" family="微软雅黑" size="16px" weight="400" font-style="" opacity="1" y="-2.4" transform="rotate(0)"><tspan id="SvgjsTspan1285" dy="20" x="97.5"><tspan id="SvgjsTspan1286" style="text-decoration:;">开发部</tspan></tspan></text></g></g><g id="SvgjsG1287" transform="translate(56.32572502194262,621)"><path id="SvgjsPath1288" d="M 23.333333333333332 0L 1244.0152166227815 0C 1275.1263277338926 0 1275.1263277338926 70 1244.0152166227815 70L 23.333333333333332 70C -7.777777777777778 70 -7.777777777777778 0 23.333333333333332 0Z" stroke="none" fill-opacity="1" fill="#006666"></path><g id="SvgjsG1289"><text id="SvgjsText1290" font-family="微软雅黑" text-anchor="middle" font-size="13px" width="1248px" fill="#ffffff" font-weight="400" align="middle" anchor="middle" family="微软雅黑" size="13px" weight="400" font-style="" opacity="1" y="25.05" transform="rotate(0)"></text></g></g><g id="SvgjsG1291" transform="translate(60.5,634.5)"><path id="SvgjsPath1292" d="M 0 0L 51 0L 51 43L 0 43Z" stroke="none" fill="none"></path><g id="SvgjsG1293"><text id="SvgjsText1294" font-family="微软雅黑" text-anchor="middle" font-size="16px" width="51px" fill="#ffffff" font-weight="700" align="middle" anchor="middle" family="微软雅黑" size="16px" weight="700" font-style="" opacity="1" y="9.1" transform="rotate(0)"><tspan id="SvgjsTspan1295" dy="20" x="25.5"><tspan id="SvgjsTspan1296" style="text-decoration:;">实际</tspan></tspan></text></g></g><g id="SvgjsG1297" transform="translate(191.25,623.5)"><path id="SvgjsPath1298" d="M 0 0L 81.5 0L 81.5 35L 0 35Z" stroke="none" fill="none"></path><g id="SvgjsG1299"><text id="SvgjsText1300" font-family="微软雅黑" text-anchor="middle" font-size="13px" width="82px" fill="#ffffff" font-weight="400" align="middle" anchor="middle" family="微软雅黑" size="13px" weight="400" font-style="" opacity="1" y="-0.44999999999999996" transform="rotate(0)"><tspan id="SvgjsTspan1301" dy="16" x="41"><tspan id="SvgjsTspan1302" style="text-decoration:;">2020.12.26 </tspan></tspan><tspan id="SvgjsTspan1303" dy="16" x="41"><tspan id="SvgjsTspan1304" style="text-decoration:;">延迟15天</tspan></tspan></text></g></g><g id="SvgjsG1305" transform="translate(262.5,655.5)"><path id="SvgjsPath1306" d="M 0 0L 67 0L 67 35L 0 35Z" stroke="none" fill="none"></path><g id="SvgjsG1307"><text id="SvgjsText1308" font-family="微软雅黑" text-anchor="middle" font-size="13px" width="67px" fill="#ffffff" font-weight="400" align="middle" anchor="middle" family="微软雅黑" size="13px" weight="400" font-style="" opacity="1" y="-0.44999999999999996" transform="rotate(0)"><tspan id="SvgjsTspan1309" dy="16" x="33.5"><tspan id="SvgjsTspan1310" style="text-decoration:;">2020.12.26 </tspan></tspan><tspan id="SvgjsTspan1311" dy="16" x="33.5"><tspan id="SvgjsTspan1312" style="text-decoration:;">延迟20天</tspan></tspan></text></g></g><g id="SvgjsG1313" transform="translate(498,655.5)"><path id="SvgjsPath1314" d="M 0 0L 74 0L 74 35L 0 35Z" stroke="none" fill="none"></path><g id="SvgjsG1315"><text id="SvgjsText1316" font-family="微软雅黑" text-anchor="middle" font-size="13px" width="74px" fill="#ffffff" font-weight="400" align="middle" anchor="middle" family="微软雅黑" size="13px" weight="400" font-style="" opacity="1" y="-0.44999999999999996" transform="rotate(0)"><tspan id="SvgjsTspan1317" dy="16" x="37"><tspan id="SvgjsTspan1318" style="text-decoration:;">2020.12.26 </tspan></tspan><tspan id="SvgjsTspan1319" dy="16" x="37"><tspan id="SvgjsTspan1320" style="text-decoration:;">延迟15天</tspan></tspan></text></g></g><g id="SvgjsG1321" transform="translate(347.4199367320073,706.5)"><path id="SvgjsPath1322" d="M 0 0L 249 0L 249 43L 0 43Z" stroke="none" fill-opacity="1" fill="#006666"></path><g id="SvgjsG1323"><text id="SvgjsText1324" font-family="微软雅黑" text-anchor="middle" font-size="19px" width="229px" fill="#ffffff" font-weight="700" align="middle" anchor="middle" family="微软雅黑" size="19px" weight="700" font-style="" opacity="1" y="6.65" transform="rotate(0)"><tspan id="SvgjsTspan1325" dy="23" x="124.5"><tspan id="SvgjsTspan1326" style="text-decoration:;">返回整体流程页面</tspan></tspan></text></g></g><g id="SvgjsG1327" transform="translate(936.0789569923936,706.5)"><path id="SvgjsPath1328" d="M 0 0L 249 0L 249 43L 0 43Z" stroke="none" fill-opacity="1" fill="#006666"></path><g id="SvgjsG1329"><text id="SvgjsText1330" font-family="微软雅黑" text-anchor="middle" font-size="19px" width="229px" fill="#ffffff" font-weight="700" align="middle" anchor="middle" family="微软雅黑" size="19px" weight="700" font-style="" opacity="1" y="6.65" transform="rotate(0)"><tspan id="SvgjsTspan1331" dy="23" x="124.5"><tspan id="SvgjsTspan1332" style="text-decoration:;">重新选择项目</tspan></tspan></text></g></g><g id="SvgjsG1333" transform="translate(648.4199367320073,706.5)"><path id="SvgjsPath1334" d="M 0 0L 249 0L 249 43L 0 43Z" stroke="none" fill-opacity="1" fill="#006666"></path><g id="SvgjsG1335"><text id="SvgjsText1336" font-family="微软雅黑" text-anchor="middle" font-size="19px" width="229px" fill="#ffffff" font-weight="700" align="middle" anchor="middle" family="微软雅黑" size="19px" weight="700" font-style="" opacity="1" y="6.65" transform="rotate(0)"><tspan id="SvgjsTspan1337" dy="23" x="124.5"><tspan id="SvgjsTspan1338" style="text-decoration:;">输入项目已获取证照</tspan></tspan></text></g></g><g id="SvgjsG1339"><path id="SvgjsPath1340" d="M232 595.5L232 609.5L232 609.5L232 623.5" stroke="#cfcfcf" stroke-width="1" fill="none"></path></g><g id="SvgjsG1341"><path id="SvgjsPath1342" d="M952.7171500146283 623.5L952.7171500146283 609.75L952.7171500146283 609.75L952.7171500146283 596" stroke="#cfcfcf" stroke-width="1" fill="none"></path></g><g id="SvgjsG1343"><path id="SvgjsPath1344" d="M294.71715001462826 655.5L294.71715001462826 625.75L294.71715001462826 625.75L294.71715001462826 596" stroke="#cfcfcf" stroke-width="1" fill="none"></path></g><g id="SvgjsG1345"><path id="SvgjsPath1346" d="M1074.7171500146283 621.5L1074.7171500146283 608.75L1074.7171500146283 608.75L1074.7171500146283 596" stroke="#cfcfcf" stroke-width="1" fill="none"></path></g><g id="SvgjsG1347"><path id="SvgjsPath1348" d="M1192.7171500146283 621.5L1192.7171500146283 594.75L1192.7171500146283 594.75L1192.7171500146283 596" stroke="#cfcfcf" stroke-width="1" fill="none"></path></g><g id="SvgjsG1349"><path id="SvgjsPath1350" d="M874 623.5L874 609.25L873.7171500146283 609.25L873.7171500146283 595" stroke="#cfcfcf" stroke-width="1" fill="none"></path></g><g id="SvgjsG1351"><path id="SvgjsPath1352" d="M833.7171500146283 655.5L833.7171500146283 625.75L833.7171500146283 625.75L833.7171500146283 596" stroke="#cfcfcf" stroke-width="1" fill="none"></path></g><g id="SvgjsG1353"><path id="SvgjsPath1354" d="M715.7171500146283 623.5L715.7171500146283 609.75L715.7171500146283 609.75L715.7171500146283 596" stroke="#cfcfcf" stroke-width="1" fill="none"></path></g><g id="SvgjsG1355"><path id="SvgjsPath1356" d="M654.7171500146283 655.5L654.7171500146283 625.25L654.7171500146283 625.25L654.7171500146283 595" stroke="#cfcfcf" stroke-width="1" fill="none"></path></g><g id="SvgjsG1357"><path id="SvgjsPath1358" d="M597.7171500146283 623.5L597.7171500146283 609.75L597.7171500146283 609.75L597.7171500146283 596" stroke="#cfcfcf" stroke-width="1" fill="none"></path></g><g id="SvgjsG1359"><path id="SvgjsPath1360" d="M532.7171500146283 655.5L532.7171500146283 625.25L532.7171500146283 625.25L532.7171500146283 595" stroke="#cfcfcf" stroke-width="1" fill="none"></path></g><g id="SvgjsG1361"><path id="SvgjsPath1362" d="M409.2412295168564 142.36808057330268L414 142.36808057330268L414 552.5" stroke="#cfcfcf" stroke-width="1" fill="none"></path></g><g id="SvgjsG1363" transform="translate(377,634.5)"><path id="SvgjsPath1364" d="M 0 0L 74 0L 74 43L 0 43Z" stroke="none" fill="none"></path><g id="SvgjsG1365"><text id="SvgjsText1366" font-family="微软雅黑" text-anchor="middle" font-size="13px" width="74px" fill="#ffffff" font-weight="400" align="middle" anchor="middle" family="微软雅黑" size="13px" weight="400" font-style="" opacity="1" y="3.55" transform="rotate(0)"><tspan id="SvgjsTspan1367" dy="16" x="37"><tspan id="SvgjsTspan1368" style="text-decoration:;">2020.12.26 </tspan></tspan><tspan id="SvgjsTspan1369" dy="16" x="37"><tspan id="SvgjsTspan1370" style="text-decoration:;">延迟15天</tspan></tspan></text></g></g><g id="SvgjsG1371"><path id="SvgjsPath1372" d="M414 595.5L414 615L414 615L414 634.5" stroke="#cfcfcf" stroke-width="1" fill="none"></path></g><g id="SvgjsG1373" transform="translate(560,623.5)"><path id="SvgjsPath1374" d="M 0 0L 74 0L 74 35L 0 35Z" stroke="none" fill="none"></path><g id="SvgjsG1375"><text id="SvgjsText1376" font-family="微软雅黑" text-anchor="middle" font-size="13px" width="74px" fill="#ffffff" font-weight="400" align="middle" anchor="middle" family="微软雅黑" size="13px" weight="400" font-style="" opacity="1" y="-0.44999999999999996" transform="rotate(0)"><tspan id="SvgjsTspan1377" dy="16" x="37"><tspan id="SvgjsTspan1378" style="text-decoration:;">2020.12.26 </tspan></tspan><tspan id="SvgjsTspan1379" dy="16" x="37"><tspan id="SvgjsTspan1380" style="text-decoration:;">延迟15天</tspan></tspan></text></g></g><g id="SvgjsG1381" transform="translate(618,655.5)"><path id="SvgjsPath1382" d="M 0 0L 74 0L 74 35L 0 35Z" stroke="none" fill="none"></path><g id="SvgjsG1383"><text id="SvgjsText1384" font-family="微软雅黑" text-anchor="middle" font-size="13px" width="74px" fill="#ffffff" font-weight="400" align="middle" anchor="middle" family="微软雅黑" size="13px" weight="400" font-style="" opacity="1" y="-0.44999999999999996" transform="rotate(0)"><tspan id="SvgjsTspan1385" dy="16" x="37"><tspan id="SvgjsTspan1386" style="text-decoration:;">2020.12.26 </tspan></tspan><tspan id="SvgjsTspan1387" dy="16" x="37"><tspan id="SvgjsTspan1388" style="text-decoration:;">延迟15天</tspan></tspan></text></g></g><g id="SvgjsG1389" transform="translate(681,623.5)"><path id="SvgjsPath1390" d="M 0 0L 74 0L 74 35L 0 35Z" stroke="none" fill="none"></path><g id="SvgjsG1391"><text id="SvgjsText1392" font-family="微软雅黑" text-anchor="middle" font-size="13px" width="74px" fill="#ffffff" font-weight="400" align="middle" anchor="middle" family="微软雅黑" size="13px" weight="400" font-style="" opacity="1" y="-0.44999999999999996" transform="rotate(0)"><tspan id="SvgjsTspan1393" dy="16" x="37"><tspan id="SvgjsTspan1394" style="text-decoration:;">2020.12.26 </tspan></tspan><tspan id="SvgjsTspan1395" dy="16" x="37"><tspan id="SvgjsTspan1396" style="text-decoration:;">延迟15天</tspan></tspan></text></g></g><g id="SvgjsG1397" transform="translate(797,655.5)"><path id="SvgjsPath1398" d="M 0 0L 74 0L 74 35L 0 35Z" stroke="none" fill="none"></path><g id="SvgjsG1399"><text id="SvgjsText1400" font-family="微软雅黑" text-anchor="middle" font-size="13px" width="74px" fill="#ffffff" font-weight="400" align="middle" anchor="middle" family="微软雅黑" size="13px" weight="400" font-style="" opacity="1" y="-0.44999999999999996" transform="rotate(0)"><tspan id="SvgjsTspan1401" dy="16" x="37"><tspan id="SvgjsTspan1402" style="text-decoration:;">2020.12.26 </tspan></tspan><tspan id="SvgjsTspan1403" dy="16" x="37"><tspan id="SvgjsTspan1404" style="text-decoration:;">延迟15天</tspan></tspan></text></g></g><g id="SvgjsG1405" transform="translate(837,623.5)"><path id="SvgjsPath1406" d="M 0 0L 74 0L 74 35L 0 35Z" stroke="none" fill="none"></path><g id="SvgjsG1407"><text id="SvgjsText1408" font-family="微软雅黑" text-anchor="middle" font-size="13px" width="74px" fill="#ffffff" font-weight="400" align="middle" anchor="middle" family="微软雅黑" size="13px" weight="400" font-style="" opacity="1" y="-0.44999999999999996" transform="rotate(0)"><tspan id="SvgjsTspan1409" dy="16" x="37"><tspan id="SvgjsTspan1410" style="text-decoration:;">2020.12.26 </tspan></tspan><tspan id="SvgjsTspan1411" dy="16" x="37"><tspan id="SvgjsTspan1412" style="text-decoration:;">延迟15天</tspan></tspan></text></g></g><g id="SvgjsG1413" transform="translate(874,655.5)"><path id="SvgjsPath1414" d="M 0 0L 74 0L 74 35L 0 35Z" stroke="none" fill="none"></path><g id="SvgjsG1415"><text id="SvgjsText1416" font-family="微软雅黑" text-anchor="middle" font-size="13px" width="74px" fill="#ffffff" font-weight="400" align="middle" anchor="middle" family="微软雅黑" size="13px" weight="400" font-style="" opacity="1" y="-0.44999999999999996" transform="rotate(0)"><tspan id="SvgjsTspan1417" dy="16" x="37"><tspan id="SvgjsTspan1418" style="text-decoration:;">2020.12.26 </tspan></tspan><tspan id="SvgjsTspan1419" dy="16" x="37"><tspan id="SvgjsTspan1420" style="text-decoration:;">延迟15天</tspan></tspan></text></g></g><g id="SvgjsG1421" transform="translate(916,623.5)"><path id="SvgjsPath1422" d="M 0 0L 74 0L 74 35L 0 35Z" stroke="none" fill="none"></path><g id="SvgjsG1423"><text id="SvgjsText1424" font-family="微软雅黑" text-anchor="middle" font-size="13px" width="74px" fill="#ffffff" font-weight="400" align="middle" anchor="middle" family="微软雅黑" size="13px" weight="400" font-style="" opacity="1" y="-0.44999999999999996" transform="rotate(0)"><tspan id="SvgjsTspan1425" dy="16" x="37"><tspan id="SvgjsTspan1426" style="text-decoration:;">2020.12.26 </tspan></tspan><tspan id="SvgjsTspan1427" dy="16" x="37"><tspan id="SvgjsTspan1428" style="text-decoration:;">延迟15天</tspan></tspan></text></g></g><g id="SvgjsG1429" transform="translate(1038.0789569923936,638.5)"><path id="SvgjsPath1430" d="M 0 0L 74 0L 74 35L 0 35Z" stroke="none" fill="none"></path><g id="SvgjsG1431"><text id="SvgjsText1432" font-family="微软雅黑" text-anchor="middle" font-size="13px" width="74px" fill="#ffffff" font-weight="700" align="middle" anchor="middle" family="微软雅黑" size="13px" weight="700" font-style="" opacity="1" y="-0.44999999999999996" transform="rotate(0)"><tspan id="SvgjsTspan1433" dy="16" x="37"><tspan id="SvgjsTspan1434" style="text-decoration:;">2020.12.26 </tspan></tspan><tspan id="SvgjsTspan1435" dy="16" x="37"><tspan id="SvgjsTspan1436" style="text-decoration:;">延迟15天</tspan></tspan></text></g></g><g id="SvgjsG1437" transform="translate(1156.5,638.5)"><path id="SvgjsPath1438" d="M 0 0L 74 0L 74 35L 0 35Z" stroke="none" fill="none"></path><g id="SvgjsG1439"><text id="SvgjsText1440" font-family="微软雅黑" text-anchor="middle" font-size="13px" width="74px" fill="#ffffff" font-weight="700" align="middle" anchor="middle" family="微软雅黑" size="13px" weight="700" font-style="" opacity="1" y="-0.44999999999999996" transform="rotate(0)"><tspan id="SvgjsTspan1441" dy="16" x="37"><tspan id="SvgjsTspan1442" style="text-decoration:;">2020.12.26 </tspan></tspan><tspan id="SvgjsTspan1443" dy="16" x="37"><tspan id="SvgjsTspan1444" style="text-decoration:;">延迟15天</tspan></tspan></text></g></g><g id="SvgjsG1445" transform="translate(1243,638.5)"><path id="SvgjsPath1446" d="M 0 0L 74 0L 74 35L 0 35Z" stroke="none" fill="none"></path><g id="SvgjsG1447"><text id="SvgjsText1448" font-family="微软雅黑" text-anchor="middle" font-size="13px" width="74px" fill="#ffffff" font-weight="400" align="middle" anchor="middle" family="微软雅黑" size="13px" weight="400" font-style="" opacity="1" y="-0.44999999999999996" transform="rotate(0)"><tspan id="SvgjsTspan1449" dy="16" x="37"><tspan id="SvgjsTspan1450" style="text-decoration:;">2020.12.26 </tspan></tspan><tspan id="SvgjsTspan1451" dy="16" x="37"><tspan id="SvgjsTspan1452" style="text-decoration:;">延迟15天</tspan></tspan></text></g></g><g id="SvgjsG1453" transform="translate(843,570.75)"><path id="SvgjsPath1454" d="M 0 0L 68 0L 68 24.75L 0 24.75Z" stroke="none" fill="none"></path><g id="SvgjsG1455"><text id="SvgjsText1456" font-family="微软雅黑" text-anchor="middle" font-size="13px" width="68px" fill="#ffffff" font-weight="400" align="middle" anchor="middle" family="微软雅黑" size="13px" weight="400" font-style="" opacity="1" y="2.425" transform="rotate(0)"><tspan id="SvgjsTspan1457" dy="16" x="34"><tspan id="SvgjsTspan1458" style="text-decoration:;">2020.10.10</tspan></tspan></text></g></g><g id="SvgjsG1459" transform="translate(877,552.5)"><path id="SvgjsPath1460" d="M 0 0L 68 0L 68 24.75L 0 24.75Z" stroke="none" fill="none"></path><g id="SvgjsG1461"><text id="SvgjsText1462" font-family="微软雅黑" text-anchor="middle" font-size="13px" width="68px" fill="#ffffff" font-weight="400" align="middle" anchor="middle" family="微软雅黑" size="13px" weight="400" font-style="" opacity="1" y="2.425" transform="rotate(0)"><tspan id="SvgjsTspan1463" dy="16" x="34"><tspan id="SvgjsTspan1464" style="text-decoration:;">2020.10.10</tspan></tspan></text></g></g><g id="SvgjsG1465" transform="translate(916,570.75)"><path id="SvgjsPath1466" d="M 0 0L 68 0L 68 24.75L 0 24.75Z" stroke="none" fill="none"></path><g id="SvgjsG1467"><text id="SvgjsText1468" font-family="微软雅黑" text-anchor="middle" font-size="13px" width="68px" fill="#ffffff" font-weight="400" align="middle" anchor="middle" family="微软雅黑" size="13px" weight="400" font-style="" opacity="1" y="2.425" transform="rotate(0)"><tspan id="SvgjsTspan1469" dy="16" x="34"><tspan id="SvgjsTspan1470" style="text-decoration:;">2020.10.10</tspan></tspan></text></g></g><g id="SvgjsG1471" transform="translate(501,549.125)"><path id="SvgjsPath1472" d="M 0 0L 68 0L 68 31.5L 0 31.5Z" stroke="none" fill="none"></path><g id="SvgjsG1473"><text id="SvgjsText1474" font-family="微软雅黑" text-anchor="middle" font-size="13px" width="68px" fill="#ffffff" font-weight="400" align="middle" anchor="middle" family="微软雅黑" size="13px" weight="400" font-style="" opacity="1" y="5.8" transform="rotate(0)"><tspan id="SvgjsTspan1475" dy="16" x="34"><tspan id="SvgjsTspan1476" style="text-decoration:;">2020.10.10</tspan></tspan></text></g></g><g id="SvgjsG1477" transform="translate(563,567.375)"><path id="SvgjsPath1478" d="M 0 0L 68 0L 68 31.5L 0 31.5Z" stroke="none" fill="none"></path><g id="SvgjsG1479"><text id="SvgjsText1480" font-family="微软雅黑" text-anchor="middle" font-size="13px" width="68px" fill="#ffffff" font-weight="400" align="middle" anchor="middle" family="微软雅黑" size="13px" weight="400" font-style="" opacity="1" y="5.8" transform="rotate(0)"><tspan id="SvgjsTspan1481" dy="16" x="34"><tspan id="SvgjsTspan1482" style="text-decoration:;">2020.10.10</tspan></tspan></text></g></g><g id="SvgjsG1483" transform="translate(621,549.125)"><path id="SvgjsPath1484" d="M 0 0L 68 0L 68 31.5L 0 31.5Z" stroke="none" fill="none"></path><g id="SvgjsG1485"><text id="SvgjsText1486" font-family="微软雅黑" text-anchor="middle" font-size="13px" width="68px" fill="#ffffff" font-weight="400" align="middle" anchor="middle" family="微软雅黑" size="13px" weight="400" font-style="" opacity="1" y="5.8" transform="rotate(0)"><tspan id="SvgjsTspan1487" dy="16" x="34"><tspan id="SvgjsTspan1488" style="text-decoration:;">2020.10.10</tspan></tspan></text></g></g><g id="SvgjsG1489" transform="translate(684,567.375)"><path id="SvgjsPath1490" d="M 0 0L 68 0L 68 31.5L 0 31.5Z" stroke="none" fill="none"></path><g id="SvgjsG1491"><text id="SvgjsText1492" font-family="微软雅黑" text-anchor="middle" font-size="13px" width="68px" fill="#ffffff" font-weight="400" align="middle" anchor="middle" family="微软雅黑" size="13px" weight="400" font-style="" opacity="1" y="5.8" transform="rotate(0)"><tspan id="SvgjsTspan1493" dy="16" x="34"><tspan id="SvgjsTspan1494" style="text-decoration:;">2020.10.10</tspan></tspan></text></g></g><g id="SvgjsG1495" transform="translate(198,549.125)"><path id="SvgjsPath1496" d="M 0 0L 68 0L 68 31.5L 0 31.5Z" stroke="none" fill="none"></path><g id="SvgjsG1497"><text id="SvgjsText1498" font-family="微软雅黑" text-anchor="middle" font-size="13px" width="68px" fill="#ffffff" font-weight="400" align="middle" anchor="middle" family="微软雅黑" size="13px" weight="400" font-style="" opacity="1" y="5.8" transform="rotate(0)"><tspan id="SvgjsTspan1499" dy="16" x="34"><tspan id="SvgjsTspan1500" style="text-decoration:;">2020.10.10</tspan></tspan></text></g></g><g id="SvgjsG1501" transform="translate(262,567.375)"><path id="SvgjsPath1502" d="M 0 0L 68 0L 68 31.5L 0 31.5Z" stroke="none" fill="none"></path><g id="SvgjsG1503"><text id="SvgjsText1504" font-family="微软雅黑" text-anchor="middle" font-size="13px" width="68px" fill="#ffffff" font-weight="400" align="middle" anchor="middle" family="微软雅黑" size="13px" weight="400" font-style="" opacity="1" y="5.8" transform="rotate(0)"><tspan id="SvgjsTspan1505" dy="16" x="34"><tspan id="SvgjsTspan1506" style="text-decoration:;">2020.10.10</tspan></tspan></text></g></g><g id="SvgjsG1507"><path id="SvgjsPath1508" d="M911.7171500146283 655.5L911.7171500146283 625.75L911.7171500146283 625.75L911.7171500146283 596" stroke="#cfcfcf" stroke-width="1" fill="none"></path></g><g id="SvgjsG1509"><path id="SvgjsPath1510" d="M1195 479.052120859954L1195 515.776060429977L1194 515.776060429977L1194 552.5" stroke="#cfcfcf" stroke-width="1" fill="none"></path></g></svg>